<?xml version="1.0" encoding="utf-8"?>
<!-- Generator: Adobe Illustrator 26.0.2, SVG Export Plug-In . SVG Version: 6.00 Build 0)  -->
<svg version="1.1" id="Layer_1" xmlns="http://www.w3.org/2000/svg" xmlns:xlink="http://www.w3.org/1999/xlink" x="0px" y="0px"
	 viewBox="0 0 1000 1000" style="enable-background:new 0 0 1000 1000;" xml:space="preserve">
<style type="text/css">
	.st0{clip-path:url(#SVGID_00000163763047284706670720000013507525787256442264_);}
	.st1{fill:url(#Sky_background_00000000205569975534725440000005526545930303428224_);}
	.st2{opacity:0.7;fill:#B3E6FB;}
	.st3{filter:url(#Adobe_OpacityMaskFilter);}
	.st4{fill:url(#SVGID_00000136380908312655386390000007920071673071552906_);}
	.st5{mask:url(#SVGID_00000134223127857698569730000015129408043671382186_);fill:#FFF1B5;}
	.st6{fill:#FFFFFF;}
	.st7{fill:url(#SVGID_00000118386449472027003560000005073499836553104041_);}
	.st8{opacity:0.3;}
	.st9{filter:url(#Adobe_OpacityMaskFilter_00000005961791936736214710000016171528351817899144_);}
	.st10{fill:url(#SVGID_00000116196156973819757160000017715200000677846678_);}
	.st11{opacity:0.5;mask:url(#SVGID_00000137125452608454991200000015996808859880554417_);fill:#FFF1B5;}
	.st12{filter:url(#Adobe_OpacityMaskFilter_00000083792284506357713700000009924620066536101260_);}
	.st13{fill:url(#SVGID_00000078046961450703529930000012498270199172420010_);}
	.st14{opacity:0.5;mask:url(#SVGID_00000082347573707268008750000005722981224922525618_);fill:#FFF1B5;}
	.st15{filter:url(#Adobe_OpacityMaskFilter_00000116945480524297156240000013750337207396939918_);}
	.st16{fill:url(#SVGID_00000093885049160244408460000018194204908729367472_);}
	.st17{opacity:0.5;mask:url(#SVGID_00000120552159601100622580000002254810358511891079_);fill:#FFF1B5;}
	.st18{filter:url(#Adobe_OpacityMaskFilter_00000170999015493694156160000014039946384414829981_);}
	.st19{fill:url(#SVGID_00000132798795044283237990000001172884784111746181_);}
	.st20{opacity:0.5;mask:url(#SVGID_00000123435835407294573780000016722011753599593393_);fill:#FFF1B5;}
	.st21{filter:url(#Adobe_OpacityMaskFilter_00000176727255709925578110000011168636926430555777_);}
	.st22{fill:url(#SVGID_00000147909198668150986220000018316638851368737725_);}
	.st23{opacity:0.5;mask:url(#SVGID_00000034797878064741835750000010535837246237847221_);fill:#FFF1B5;}
	.st24{filter:url(#Adobe_OpacityMaskFilter_00000125592439239925784830000005140272642224694190_);}
	.st25{fill:url(#SVGID_00000034077984351225678360000006326093634102892456_);}
	.st26{opacity:0.5;mask:url(#SVGID_00000147913799250341802190000010740622286646647192_);fill:#FFF1B5;}
	.st27{filter:url(#Adobe_OpacityMaskFilter_00000155851324106651566250000009222718670050014376_);}
	.st28{fill:url(#SVGID_00000037653547365972956570000001636339865618065066_);}
	.st29{opacity:0.5;mask:url(#SVGID_00000047745767560883476310000015456918774979530155_);fill:#FFF1B5;}
	.st30{filter:url(#Adobe_OpacityMaskFilter_00000147942801014980792620000010595386999494250374_);}
	.st31{fill:url(#SVGID_00000085243071025573983340000018158948111773408154_);}
	.st32{opacity:0.1;mask:url(#Rays_00000089547786515851016180000000655470839373024393_);}
	.st33{fill:#FFF1B5;}
	.st34{fill:none;}
	.st35{fill:url(#SVGID_00000180363622734401734440000001313434943455781267_);}
	
		.st36{clip-path:url(#SVGID_00000163763047284706670720000013507525787256442264_);fill:url(#SVGID_00000177461025019441355280000001574129417359494276_);}
	
		.st37{opacity:0.5;clip-path:url(#SVGID_00000163763047284706670720000013507525787256442264_);fill:url(#SVGID_00000013156381066106872070000016405890772532023187_);}
	.st38{fill:url(#SVGID_00000173123558946923875660000018172024576926964415_);}
	.st39{fill:url(#SVGID_00000068675708088638085820000010063179472179993740_);}
	.st40{fill:url(#SVGID_00000052094507601470925360000001553670782183421092_);}
	.st41{fill:url(#SVGID_00000093167241577412680520000008550870070917951645_);}
	.st42{fill:url(#SVGID_00000177476767772374812050000006645898149241027003_);}
	.st43{fill:url(#SVGID_00000114039737099445406670000009821494211910819514_);}
	.st44{fill:url(#SVGID_00000051351250767893562070000016831502490720231317_);}
	.st45{fill:url(#SVGID_00000046323452978763541840000006981018820755329410_);}
	.st46{fill:url(#SVGID_00000086654264994850020460000007993060056162099879_);}
	.st47{fill:url(#SVGID_00000008844150720429698300000001768335228793450115_);}
	.st48{fill:url(#SVGID_00000110461863379130299940000005835754930364071313_);}
	.st49{fill:url(#SVGID_00000075876581670650610600000001076342479631303595_);}
	.st50{opacity:0.25;fill:url(#SVGID_00000032606508973982576330000011163471494305935756_);}
	.st51{fill:url(#SVGID_00000033343808412578771490000004685494033276378781_);}
	.st52{fill:url(#SVGID_00000115511187519278884410000011154656486226911368_);}
	.st53{opacity:0.25;fill:url(#SVGID_00000095311417348903734910000015368081015505625986_);}
	.st54{fill:url(#SVGID_00000090289626859204481890000003804199876152927383_);}
	.st55{fill:url(#SVGID_00000042699953135678716840000004244976725007699892_);}
	.st56{fill:url(#SVGID_00000026130273917825391270000003345565068486220198_);}
	.st57{fill:url(#SVGID_00000112625309587355010080000000556651407105806270_);}
	.st58{fill:url(#SVGID_00000174586497255435632960000005227236575310837914_);}
	.st59{fill:url(#SVGID_00000006685359419268167170000007297880246265550722_);}
	.st60{fill:url(#SVGID_00000056386503890907280970000018151095780718873472_);}
	.st61{fill:url(#SVGID_00000046310513435817075520000018005862958435309465_);}
	.st62{fill:url(#SVGID_00000137825382194615403620000011284899619242544005_);}
	.st63{fill:url(#SVGID_00000004542433462366210290000001145265813735323042_);}
	.st64{opacity:0.3;fill:url(#SVGID_00000049913894470896581960000016996459514453280681_);}
	.st65{fill:url(#SVGID_00000075153777601097027290000004485611225508110731_);}
	.st66{fill:url(#SVGID_00000150796830056697242200000007969623597751074469_);}
	.st67{fill:url(#SVGID_00000021078662370922267370000006483917882195325847_);}
	.st68{fill:url(#SVGID_00000031183708496850096230000014602103772941117829_);}
	.st69{fill:url(#SVGID_00000013183409335450700290000000937075916924405173_);}
</style>
<g>
	<defs>
		<path id="SVGID_1_" d="M727.62,142.42c-39.46-35.93-69.21-29.26-117.78-37.3c-38.53-6.38-57.54-23.98-90.16-42.92
			c-90.71-52.69-219.45-50.98-313.06-4.86C138.38,90.95,92.38,159.28,68.85,231.63c-35.3,108.56,23.87,209.78,4.86,322.3
			c-23.45,138.83,17.15,224.2,132.35,307.58c69.67,50.43,154.76,70.93,239.83,58.11c63.8-9.62,106.38-53.13,165.35-75.23
			c38.12-14.29,79.24-18.38,118.46-29.29c108.88-30.3,176-145.49,195.05-250.54c7.23-39.85,11.97-80.81,5.47-120.79
			c-11.08-68.12-63.15-107.99-103.8-158.76C788.43,237.54,772.13,182.95,727.62,142.42z"/>
	</defs>
	<clipPath id="SVGID_00000163030742064715785820000014909224988383645351_">
		<use xlink:href="#SVGID_1_"  style="overflow:visible;"/>
	</clipPath>
	<g style="clip-path:url(#SVGID_00000163030742064715785820000014909224988383645351_);">
		
			<linearGradient id="Sky_background_00000005245953545305176500000000229175857250294961_" gradientUnits="userSpaceOnUse" x1="370.6711" y1="17.879" x2="370.6711" y2="932.32">
			<stop  offset="0" style="stop-color:#0188CC"/>
			<stop  offset="1" style="stop-color:#9CDEF8"/>
		</linearGradient>
		
			<rect id="Sky_background" x="-199.91" y="15.6" style="fill:url(#Sky_background_00000005245953545305176500000000229175857250294961_);" width="1141.17" height="912.93"/>
		<path class="st2" d="M922.94,497.49c-9.09-8.48-24.07-14.02-41.02-14.02c-22.34,0-41.27,9.62-47.78,22.92
			c-7.18-1.53-14.91-2.38-22.97-2.38c-16.82,0-32.22,3.65-44.14,9.69c-2.36-0.36-4.76-0.56-7.21-0.56
			c-13.27,0-25.3,5.52-34.14,14.48c-4.08-0.51-8.31-0.79-12.65-0.79c-12.29,0-23.71,2.16-33.18,5.85
			c-11.26-12.1-26.5-19.54-43.28-19.54c-1.17,0-2.33,0.04-3.49,0.11c-2.01-5.74-5.24-10.9-9.4-15.16
			c-3.12-22.33-27.83-39.73-57.86-39.73c-24.2,0-44.95,11.3-53.72,27.37c-3.82,1.44-7.15,3.5-9.76,6.02
			c-6.89-9.28-16.78-15.13-27.81-15.13c-17.03,0-31.4,13.88-36.06,32.91c-7.45-2.07-15.72-3.24-24.43-3.24
			c-0.39,0-0.78,0.01-1.18,0.02c-11.67-9.84-28.29-15.99-46.75-15.99c-25.81,0-48.03,12.03-58.12,29.34
			c-8.67,1.5-16.91,3.81-24.54,6.85c-14.88-12.35-36.46-20.67-60.88-22.28c-6.35-10.18-15.67-17.76-26.51-21.12
			c0-0.07,0.01-0.14,0.01-0.21c0-6.14-2.99-11.69-7.83-15.72c0.63-1.69,0.99-3.5,0.99-5.39c0-8.82-7.41-15.98-16.55-15.98
			c-0.6,0-1.18,0.03-1.76,0.09c-0.48-11.25-8.62-20.23-18.72-20.6c-0.89-1.32-1.81-2.63-2.76-3.91c1.35-3.79,2.13-7.85,2.13-12.1
			c0-20.17-16.6-36.52-37.09-36.52c-2.31,0-4.57,0.24-6.77,0.64c-3.1-2.7-7.17-4.51-11.69-5.03c-0.14-19.23-19.15-34.78-42.59-34.78
			c-7.83,0-15.14,1.77-21.45,4.79c-2.03-27.32-27.06-48.92-57.67-48.92c-24.87,0-46.07,14.26-54.23,34.27
			c-3.63-2.16-8.24-3.46-13.29-3.46c-0.77,0-1.52,0.03-2.27,0.09c-4.64-2.09-9.44-3.82-14.37-5.12
			c-3.6-9.64-14.71-16.66-27.86-16.66c-10.86,0-20.31,4.79-25.31,11.87c-1.77-0.29-3.61-0.46-5.5-0.46
			c-13.55,0-24.54,7.92-24.54,17.69c0,2.18,0.57,4.26,1.58,6.19c-2.91,2.37-5.73,4.88-8.42,7.58v185.85
			c18.13,18.18,41.63,29.18,67.33,29.18c17.61,0,34.19-5.17,48.72-14.27c21.77,40.86,67.91,69.05,121.31,69.05
			c33.8,0,64.67-11.32,88.32-29.97c9.48,27.66,45.32,48.23,88.12,48.23c10.48,0,20.54-1.25,29.91-3.52
			c16.91,22.51,49.5,37.75,86.93,37.75c36.32,0,68.07-14.35,85.38-35.76c11.75,6.68,26.46,10.66,42.44,10.66
			c1.86,0,3.71-0.07,5.53-0.18c12.35,8.64,28.34,13.87,45.82,13.87c11.41,0,22.18-2.24,31.73-6.19
			c12.85,8.19,28.71,13.03,45.87,13.03c6.99,0,13.76-0.82,20.2-2.32c0.75,0.01,1.49,0.04,2.24,0.04c8.32,0,16.32-0.83,23.84-2.36
			c0.92,0.05,1.85,0.08,2.79,0.08c31.53,0,57.62-26.21,62.08-60.36c4.6,0.66,9.41,1.02,14.37,1.02c2.49,0,4.93-0.1,7.34-0.27
			c8.94,12.62,23.28,20.81,39.45,20.81c3.04,0,6.01-0.31,8.9-0.86c9.32,4.87,20.35,7.71,32.18,7.71c22.58,0,42.26-10.28,52.65-25.5
			c2.19,0.25,4.42,0.4,6.69,0.4c17.13,0,32.28-7.46,41.61-18.91c8.47,13.9,22.6,24.29,39.41,28.39V489.98
			C934.69,491.59,928.51,494.13,922.94,497.49z"/>
		<g id="Sun">
			<g>
				<defs>
					<filter id="Adobe_OpacityMaskFilter" filterUnits="userSpaceOnUse" x="158.41" y="348.82" width="353.76" height="353.76">
						<feColorMatrix  type="matrix" values="1 0 0 0 0  0 1 0 0 0  0 0 1 0 0  0 0 0 1 0"/>
					</filter>
				</defs>
				
					<mask maskUnits="userSpaceOnUse" x="158.41" y="348.82" width="353.76" height="353.76" id="SVGID_00000000206056459217929770000005818994665124076685_">
					<g class="st3">
						
							<radialGradient id="SVGID_00000135653105612474369640000011727306181687961534_" cx="335.2949" cy="525.6989" r="176.8811" gradientUnits="userSpaceOnUse">
							<stop  offset="0" style="stop-color:#FFFFFF"/>
							<stop  offset="0.093" style="stop-color:#F1F1F1"/>
							<stop  offset="0.2702" style="stop-color:#CBCBCB"/>
							<stop  offset="0.5132" style="stop-color:#8D8D8D"/>
							<stop  offset="0.8094" style="stop-color:#3A3A3A"/>
							<stop  offset="1" style="stop-color:#000000"/>
						</radialGradient>
						<circle style="fill:url(#SVGID_00000135653105612474369640000011727306181687961534_);" cx="335.29" cy="525.7" r="176.88"/>
					</g>
				</mask>
				
					<circle style="mask:url(#SVGID_00000000206056459217929770000005818994665124076685_);fill:#FFF1B5;" cx="335.29" cy="525.7" r="176.88"/>
			</g>
		</g>
		<g>
			<path class="st6" d="M246.28,850.93c-58.14,0-109.32-25.31-128.16-62.44c-39.17,22.65-87.33,35.05-136.59,35.05
				c-36.02,0-71.82-6.63-103.67-19.19c-4.33,0.62-8.6,0.93-12.73,0.93c-25.42,0-45.39-10.99-65.05-30.81V320.94
				c0,0,26.82-4.07,38.09,29.55c6.78,2.73,12.86,7.11,17.91,12.9c2.35-0.58,4.74-0.87,7.14-0.87c18.23,0,33.45,16.65,36.66,38.57
				c3.62-1.71,7.46-2.83,11.42-3.3c9.88-21.27,33.66-35.26,60.71-35.26c34.31,0,62.54,22.85,65.22,51.79
				c0.57-0.04,1.15-0.06,1.73-0.06c11.2,0,21.37,7.45,26.1,18.63c30.36,2.83,55.9,21.99,64.02,48.17
				c13.49,7.92,22.98,22.02,26.01,38.12c5.41-2.47,11.16-3.74,17.01-3.74c21.78,0,40.71,17.86,47.51,43.19
				c8.37-5.73,18.68-8.95,29.33-8.95c16.93,0,32.43,7.92,41.24,20.65c4.23-1.59,8.63-2.39,13.15-2.39
				c20.59,0,37.78,16.81,41.48,38.98c4.88-2.59,10.32-3.98,15.96-3.98c6.63,0,13.16,2,18.79,5.7c2.41-0.98,4.87-1.85,7.38-2.62
				c10.53-23.24,31.37-38.08,53.9-38.08c0.34,0,0.68,0,1.02,0.01c12.41-17.47,30.08-27.4,49-27.4c5.65,0,11.23,0.9,16.67,2.67
				c7.16-6.66,15.69-10.28,24.41-10.28c7.99,0,15.61,2.9,22.32,8.44c11.51-7.34,26.59-11.48,42.34-11.48
				c21.23,0,40.98,7.53,52.56,19.85c1.6-0.05,3.07-0.07,4.5-0.07c3.85,0,7.82,0.14,11.83,0.43c7.37-8.05,19.96-14.38,36.14-18.14
				c5.68-6.89,17.14-11.2,30.39-11.2c2.94,0,5.85,0.22,8.69,0.66c10.23-6.25,24.06-9.79,38.48-9.79c25.24,0,46.22,10.48,53.11,25.19
				c3.78-1.42,7.85-2.23,11.99-2.35c5.46-13.37,21.71-22.84,40.65-22.84c5.45,0,10.77,0.79,15.85,2.34
				c4.32-0.54,8.7-0.82,13.06-0.82c10.23,0,27.39,4.25,27.39,4.25V710c-19.5,30.14-46.61,47.36-82.16,47.36
				c-28.77,0-55.96-11.8-75.73-32.63c-22.5,21.69-60.38,34.91-101.15,34.91c-25.32,0-50.08-5.14-70.57-14.56
				c-19.71,37.65-65.53,62.49-116.58,62.49c-48.52,0-92.11-22.29-113.3-56.72c0.22,2.16,0.33,4.33,0.33,6.51
				C382.08,808.95,321.16,850.93,246.28,850.93z"/>
			
				<linearGradient id="SVGID_00000081628360059571957730000013774966460473593535_" gradientUnits="userSpaceOnUse" x1="333.9636" y1="735.071" x2="388.7376" y2="403.0069">
				<stop  offset="0" style="stop-color:#91D2ED"/>
				<stop  offset="0.0639" style="stop-color:#98D5EE"/>
				<stop  offset="1" style="stop-color:#FFFFFF"/>
			</linearGradient>
			<path style="fill:url(#SVGID_00000081628360059571957730000013774966460473593535_);" d="M941.26,521.72
				c-8.32-2.57-17.59-4.01-27.39-4.01c-4.7,0-9.27,0.34-13.69,0.97c-4.62-1.58-9.77-2.49-15.22-2.49
				c-18.46,0-33.65,10.12-35.55,23.11c-1.31-0.17-2.64-0.29-4.01-0.29c-6.72,0-12.84,2.15-17.53,5.67
				c-0.37-15.78-22-28.5-48.66-28.5c-14.84,0-28.1,3.95-37.03,10.16c-3.14-0.66-6.55-1.03-10.14-1.03
				c-12.49,0-23.02,4.42-26.3,10.46c-17.53,3.68-31.15,10.62-37.2,19.15c-4.86-0.45-9.81-0.7-14.86-0.7c-2.53,0-5.02,0.08-7.51,0.19
				c-9.52-11.89-28.14-19.97-49.55-19.97c-17.22,0-32.62,5.23-42.95,13.46c-6.12-6.55-13.61-10.42-21.72-10.42
				c-8.51,0-16.35,4.26-22.62,11.41c-5.81-2.45-12.01-3.8-18.46-3.8c-18.38,0-34.77,10.78-45.51,27.63
				c-1.49-0.15-2.99-0.24-4.51-0.24c-21.54,0-40.15,15.08-48.89,36.93c-4.64,1.22-9.09,2.82-13.3,4.78
				c-4.92-4.19-11.12-6.71-17.88-6.71c-9.04,0-17.1,4.48-22.4,11.49c0.2-1.77,0.34-3.57,0.34-5.41c0-22.69-15.84-41.08-35.38-41.08
				c-5.72,0-11.11,1.61-15.89,4.42c-6.38-13.33-21.21-22.67-38.5-22.67c-13.94,0-26.24,6.09-33.85,15.43
				c-2.76-28.01-20.95-49.66-42.99-49.66c-8.39,0-16.21,3.14-22.85,8.57c0-0.2,0.03-0.38,0.03-0.58c0-19.81-10.67-36.83-26-44.59
				c-6.57-25.73-32.19-45.14-63.21-46.26c-2.75-10.6-11.16-18.32-21.1-18.32c-3.05,0-5.96,0.73-8.61,2.04
				c0.15-1.43,0.24-2.87,0.24-4.33c0-27.31-26.23-49.45-58.58-49.45c-26.4,0-48.71,14.75-56.04,35.01c-0.09,0-0.17-0.01-0.26-0.01
				c-8.6,0-16.4,3.65-22.24,9.58c0.11-1.4,0.17-2.82,0.17-4.26c0-22.27-13.62-40.32-30.43-40.32c-3.33,0-6.53,0.73-9.52,2.04
				c-5.42-7.58-12.82-13.13-21.26-15.68c-4.26-18.66-15.42-32.01-28.56-32.01c-1.29,0-2.56,0.17-3.8,0.42v445.59
				c17.8,17.95,40.42,28.71,65.05,28.71c4.59,0,9.1-0.41,13.54-1.14c30.7,12.38,65.71,19.4,102.86,19.4
				c53.04,0,101.7-14.28,139.72-38.08c14.1,37.62,64.73,65.46,125.03,65.46c71.22,0,128.95-38.83,128.95-86.73
				c0-8.3-1.77-16.31-5-23.9c1.17-0.68,2.31-1.38,3.43-2.09c2.47,1.38,5.03,2.63,7.69,3.74c15.83,38.12,60.74,65.62,113.7,65.62
				c52.61,0,97.27-27.14,113.38-64.86c19.99,10.56,45.7,16.93,73.77,16.93c43.75,0,81.81-15.45,101.33-38.2
				c18,21.94,45.16,35.92,75.55,35.92c34.4,0,64.64-17.92,82.16-45.01V521.72z"/>
		</g>
		<g id="Rays_2" class="st8">
			<defs>
				
					<filter id="Adobe_OpacityMaskFilter_00000059994012974601501490000010185013752508025003_" filterUnits="userSpaceOnUse" x="-199.91" y="15.6" width="535.21" height="510.1">
					<feColorMatrix  type="matrix" values="1 0 0 0 0  0 1 0 0 0  0 0 1 0 0  0 0 0 1 0"/>
				</filter>
			</defs>
			
				<mask maskUnits="userSpaceOnUse" x="-199.91" y="15.6" width="535.21" height="510.1" id="SVGID_00000024699261270932512610000011861582412034453693_">
				<g style="filter:url(#Adobe_OpacityMaskFilter_00000059994012974601501490000010185013752508025003_);">
					
						<linearGradient id="SVGID_00000119810206373039230540000004250801184869887889_" gradientUnits="userSpaceOnUse" x1="-199.9131" y1="270.6478" x2="335.2949" y2="270.6478">
						<stop  offset="0" style="stop-color:#000000"/>
						<stop  offset="0.1931" style="stop-color:#2C2C2C"/>
						<stop  offset="0.6266" style="stop-color:#9B9B9B"/>
						<stop  offset="1" style="stop-color:#FFFFFF"/>
					</linearGradient>
					<polygon style="fill:url(#SVGID_00000119810206373039230540000004250801184869887889_);" points="335.29,525.7 -31.02,15.6 
						-199.91,15.6 -199.91,65.81 					"/>
				</g>
			</mask>
			<polygon style="opacity:0.5;mask:url(#SVGID_00000024699261270932512610000011861582412034453693_);fill:#FFF1B5;" points="
				335.29,525.7 -31.02,15.6 -199.91,15.6 -199.91,65.81 			"/>
			<defs>
				
					<filter id="Adobe_OpacityMaskFilter_00000174562303187034447290000017536971441266167463_" filterUnits="userSpaceOnUse" x="133.31" y="15.6" width="201.99" height="510.1">
					<feColorMatrix  type="matrix" values="1 0 0 0 0  0 1 0 0 0  0 0 1 0 0  0 0 0 1 0"/>
				</filter>
			</defs>
			
				<mask maskUnits="userSpaceOnUse" x="133.31" y="15.6" width="201.99" height="510.1" id="SVGID_00000123416000366282699890000015646721827374909319_">
				<g style="filter:url(#Adobe_OpacityMaskFilter_00000174562303187034447290000017536971441266167463_);">
					
						<linearGradient id="SVGID_00000007411514327435842800000000973499080621340341_" gradientUnits="userSpaceOnUse" x1="335.9755" y1="518.4514" x2="195.6196" y2="22.0673">
						<stop  offset="0" style="stop-color:#FFFFFF"/>
						<stop  offset="0.3734" style="stop-color:#9B9B9B"/>
						<stop  offset="0.8069" style="stop-color:#2C2C2C"/>
						<stop  offset="1" style="stop-color:#000000"/>
					</linearGradient>
					<polygon style="fill:url(#SVGID_00000007411514327435842800000000973499080621340341_);" points="335.29,525.7 133.31,15.6 
						254.27,15.6 					"/>
				</g>
			</mask>
			<polygon style="opacity:0.5;mask:url(#SVGID_00000123416000366282699890000015646721827374909319_);fill:#FFF1B5;" points="
				335.29,525.7 133.31,15.6 254.27,15.6 			"/>
			<defs>
				
					<filter id="Adobe_OpacityMaskFilter_00000029023901755469219700000013631805297609769919_" filterUnits="userSpaceOnUse" x="335.29" y="15.6" width="140.36" height="510.1">
					<feColorMatrix  type="matrix" values="1 0 0 0 0  0 1 0 0 0  0 0 1 0 0  0 0 0 1 0"/>
				</filter>
			</defs>
			
				<mask maskUnits="userSpaceOnUse" x="335.29" y="15.6" width="140.36" height="510.1" id="SVGID_00000005960866496308936870000015588065550512374443_">
				<g style="filter:url(#Adobe_OpacityMaskFilter_00000029023901755469219700000013631805297609769919_);">
					
						<linearGradient id="SVGID_00000152241250585946249630000018294804367289312924_" gradientUnits="userSpaceOnUse" x1="353.7677" y1="515.2534" x2="422.2348" y2="22.2931">
						<stop  offset="0" style="stop-color:#FFFFFF"/>
						<stop  offset="0.3734" style="stop-color:#9B9B9B"/>
						<stop  offset="0.8069" style="stop-color:#2C2C2C"/>
						<stop  offset="1" style="stop-color:#000000"/>
					</linearGradient>
					<polygon style="fill:url(#SVGID_00000152241250585946249630000018294804367289312924_);" points="335.29,525.7 370.67,15.6 
						475.66,15.6 					"/>
				</g>
			</mask>
			<polygon style="opacity:0.5;mask:url(#SVGID_00000005960866496308936870000015588065550512374443_);fill:#FFF1B5;" points="
				335.29,525.7 370.67,15.6 475.66,15.6 			"/>
			<defs>
				
					<filter id="Adobe_OpacityMaskFilter_00000043457681124316841000000010959745260662073508_" filterUnits="userSpaceOnUse" x="335.29" y="15.6" width="432.5" height="510.1">
					<feColorMatrix  type="matrix" values="1 0 0 0 0  0 1 0 0 0  0 0 1 0 0  0 0 0 1 0"/>
				</filter>
			</defs>
			
				<mask maskUnits="userSpaceOnUse" x="335.29" y="15.6" width="432.5" height="510.1" id="SVGID_00000148660627540054503970000002141873590475295633_">
				<g style="filter:url(#Adobe_OpacityMaskFilter_00000043457681124316841000000010959745260662073508_);">
					
						<linearGradient id="SVGID_00000178167425974917469150000012631837547781508793_" gradientUnits="userSpaceOnUse" x1="335.2949" y1="270.6478" x2="767.7977" y2="270.6478">
						<stop  offset="0" style="stop-color:#FFFFFF"/>
						<stop  offset="0.3734" style="stop-color:#9B9B9B"/>
						<stop  offset="0.8069" style="stop-color:#2C2C2C"/>
						<stop  offset="1" style="stop-color:#000000"/>
					</linearGradient>
					<polygon style="fill:url(#SVGID_00000178167425974917469150000012631837547781508793_);" points="335.29,525.7 621.73,15.6 
						767.8,15.6 					"/>
				</g>
			</mask>
			<polygon style="opacity:0.5;mask:url(#SVGID_00000148660627540054503970000002141873590475295633_);fill:#FFF1B5;" points="
				335.29,525.7 621.73,15.6 767.8,15.6 			"/>
			<defs>
				
					<filter id="Adobe_OpacityMaskFilter_00000010303619674696281900000005048669542559338652_" filterUnits="userSpaceOnUse" x="335.29" y="15.6" width="605.96" height="510.1">
					<feColorMatrix  type="matrix" values="1 0 0 0 0  0 1 0 0 0  0 0 1 0 0  0 0 0 1 0"/>
				</filter>
			</defs>
			
				<mask maskUnits="userSpaceOnUse" x="335.29" y="15.6" width="605.96" height="510.1" id="SVGID_00000077286542733649267050000004841059207141614473_">
				<g style="filter:url(#Adobe_OpacityMaskFilter_00000010303619674696281900000005048669542559338652_);">
					
						<linearGradient id="SVGID_00000127734604552467302720000005737803828049274769_" gradientUnits="userSpaceOnUse" x1="335.2949" y1="270.6478" x2="941.2552" y2="270.6478">
						<stop  offset="0" style="stop-color:#FFFFFF"/>
						<stop  offset="0.3734" style="stop-color:#9B9B9B"/>
						<stop  offset="0.8069" style="stop-color:#2C2C2C"/>
						<stop  offset="1" style="stop-color:#000000"/>
					</linearGradient>
					<polygon style="fill:url(#SVGID_00000127734604552467302720000005737803828049274769_);" points="335.29,525.7 863.66,15.6 
						941.26,15.6 941.26,173.08 					"/>
				</g>
			</mask>
			<polygon style="opacity:0.5;mask:url(#SVGID_00000077286542733649267050000004841059207141614473_);fill:#FFF1B5;" points="
				335.29,525.7 863.66,15.6 941.26,15.6 941.26,173.08 			"/>
			<defs>
				
					<filter id="Adobe_OpacityMaskFilter_00000180334417913981990430000000131078825018810247_" filterUnits="userSpaceOnUse" x="335.29" y="303.17" width="605.96" height="222.53">
					<feColorMatrix  type="matrix" values="1 0 0 0 0  0 1 0 0 0  0 0 1 0 0  0 0 0 1 0"/>
				</filter>
			</defs>
			
				<mask maskUnits="userSpaceOnUse" x="335.29" y="303.17" width="605.96" height="222.53" id="SVGID_00000153688557555828730180000006937987032857157804_">
				<g style="filter:url(#Adobe_OpacityMaskFilter_00000180334417913981990430000000131078825018810247_);">
					
						<linearGradient id="SVGID_00000150099818954839649430000010375028608573371287_" gradientUnits="userSpaceOnUse" x1="393.2924" y1="545.7568" x2="975.2573" y2="347.2022">
						<stop  offset="0" style="stop-color:#FFFFFF"/>
						<stop  offset="0.3734" style="stop-color:#9B9B9B"/>
						<stop  offset="0.8069" style="stop-color:#2C2C2C"/>
						<stop  offset="1" style="stop-color:#000000"/>
					</linearGradient>
					<polygon style="fill:url(#SVGID_00000150099818954839649430000010375028608573371287_);" points="335.29,525.7 941.26,303.17 
						941.26,414.43 					"/>
				</g>
			</mask>
			<polygon style="opacity:0.5;mask:url(#SVGID_00000153688557555828730180000006937987032857157804_);fill:#FFF1B5;" points="
				335.29,525.7 941.26,303.17 941.26,414.43 			"/>
			<defs>
				
					<filter id="Adobe_OpacityMaskFilter_00000171715257420908110980000016069576181052327856_" filterUnits="userSpaceOnUse" x="-199.91" y="215.52" width="535.21" height="310.18">
					<feColorMatrix  type="matrix" values="1 0 0 0 0  0 1 0 0 0  0 0 1 0 0  0 0 0 1 0"/>
				</filter>
			</defs>
			
				<mask maskUnits="userSpaceOnUse" x="-199.91" y="215.52" width="535.21" height="310.18" id="SVGID_00000085939871117730409520000015097074660493326469_">
				<g style="filter:url(#Adobe_OpacityMaskFilter_00000171715257420908110980000016069576181052327856_);">
					
						<linearGradient id="SVGID_00000118378274876041208210000004085020708909616515_" gradientUnits="userSpaceOnUse" x1="-199.9131" y1="370.6098" x2="335.2949" y2="370.6098">
						<stop  offset="0" style="stop-color:#000000"/>
						<stop  offset="0.1931" style="stop-color:#2C2C2C"/>
						<stop  offset="0.6266" style="stop-color:#9B9B9B"/>
						<stop  offset="1" style="stop-color:#FFFFFF"/>
					</linearGradient>
					<polygon style="fill:url(#SVGID_00000118378274876041208210000004085020708909616515_);" points="335.29,525.7 -199.91,215.52 
						-199.91,370.61 					"/>
				</g>
			</mask>
			<polygon style="opacity:0.5;mask:url(#SVGID_00000085939871117730409520000015097074660493326469_);fill:#FFF1B5;" points="
				335.29,525.7 -199.91,215.52 -199.91,370.61 			"/>
		</g>
		<defs>
			
				<filter id="Adobe_OpacityMaskFilter_00000003816541462571321030000013105031828376665266_" filterUnits="userSpaceOnUse" x="-199.91" y="15.6" width="1141.17" height="510.1">
				<feColorMatrix  type="matrix" values="1 0 0 0 0  0 1 0 0 0  0 0 1 0 0  0 0 0 1 0"/>
			</filter>
		</defs>
		
			<mask maskUnits="userSpaceOnUse" x="-199.91" y="15.6" width="1141.17" height="510.1" id="Rays_00000080898258479952972170000013407587529300804747_">
			<g style="filter:url(#Adobe_OpacityMaskFilter_00000003816541462571321030000013105031828376665266_);">
				
					<radialGradient id="SVGID_00000024720539681448781450000014370376247475008431_" cx="370.6711" cy="5349.9614" r="556.9427" gradientTransform="matrix(1 0 0 0.6173 0 -2943.2148)" gradientUnits="userSpaceOnUse">
					<stop  offset="0" style="stop-color:#FFFFFF"/>
					<stop  offset="1" style="stop-color:#000000"/>
				</radialGradient>
				
					<rect x="-199.91" y="15.6" style="fill:url(#SVGID_00000024720539681448781450000014370376247475008431_);" width="1141.17" height="687.62"/>
			</g>
		</mask>
		<g id="Rays" style="opacity:0.1;mask:url(#Rays_00000080898258479952972170000013407587529300804747_);">
			<polygon class="st33" points="335.29,525.7 -199.91,125.15 -199.91,159.38 			"/>
			<polygon class="st33" points="335.29,525.7 -199.91,52.11 -199.91,15.6 			"/>
			<polygon class="st33" points="335.29,525.7 -78.95,15.6 -31.02,15.6 			"/>
			<polygon class="st33" points="335.29,525.7 46.58,15.6 108.2,15.6 			"/>
			<polygon class="st33" points="335.29,525.7 178.95,15.6 267.97,15.6 			"/>
			<polygon class="st33" points="335.29,525.7 335.29,15.6 405.48,15.6 			"/>
			<polygon class="st33" points="335.29,525.7 475.66,15.6 521.31,15.6 			"/>
			<polygon class="st33" points="335.29,525.7 578.36,15.6 621.73,15.6 			"/>
			<polygon class="st33" points="335.29,525.7 690.2,15.6 742.69,15.6 			"/>
			<polygon class="st33" points="335.29,525.7 829.42,15.6 877.35,15.6 			"/>
			<polygon class="st33" points="335.29,525.7 941.26,15.6 941.26,70.37 			"/>
			<polygon class="st33" points="335.29,525.7 941.26,134.28 941.26,173.08 			"/>
			<polygon class="st33" points="335.29,525.7 941.26,236.98 941.26,280.35 			"/>
			<polygon class="st33" points="335.29,525.7 941.26,348.82 941.26,381.34 			"/>
			<polygon class="st33" points="335.29,525.7 941.26,437.26 941.26,476.63 			"/>
			<polygon class="st33" points="335.29,525.7 -199.91,236.98 -199.91,282.63 			"/>
		</g>
		<g id="Birds">
			<path class="st6" d="M653.1,255.19c-21.21-13.83-52.06,1.44-64.63,20.15c19.15-16.72,47.52-23.19,69.4-7.65
				c5.97-26.17,26.69-38.69,56.87-40.5C673.47,217.65,654.78,248.99,653.1,255.19z"/>
			<path class="st6" d="M720.49,266.82c-11.62-2.98-23.15,8.56-25.95,18.87c6.05-10.42,17.8-17.64,29.99-13.98
				c-1.3-12.65,6.1-21.43,19.37-26.83C723.93,246.87,720.3,263.78,720.49,266.82z"/>
			<path class="st6" d="M728.34,203.56c-4.83-4.47-13.4-1.9-17.44,2.35c5.63-3.45,13.18-3.87,18.11,1.06
				c2.67-6.44,8.53-8.75,16.34-7.9C735.2,194.82,729.04,202.04,728.34,203.56z"/>
			<path class="st6" d="M765.98,297.64c-4.83-4.47-13.4-1.9-17.44,2.35c5.63-3.45,13.18-3.87,18.11,1.06
				c2.67-6.44,8.53-8.75,16.34-7.9C772.83,288.91,766.68,296.12,765.98,297.64z"/>
			<path class="st6" d="M679.42,192.27c-4.83-4.47-13.4-1.9-17.44,2.35c5.63-3.45,13.18-3.87,18.11,1.06
				c2.67-6.44,8.53-8.75,16.34-7.9C686.27,183.53,680.12,190.75,679.42,192.27z"/>
		</g>
		<circle class="st34" cx="473.38" cy="490.32" r="435.93"/>
		<g>
			<path class="st6" d="M-199.91,887.47V517.66c4.55-2.16,6.98-1.81,11.77-1.57c6.05,0.3,11.51,2.11,16.69,5.18
				c3.77-1.59,7.71-2.4,11.77-2.4c11.03,0,21.31,6.1,27.76,16.21c1.99-0.15,3.96-0.23,5.91-0.23c3.32,0,6.62,0.2,9.84,0.61
				c9.42-4.88,20.27-7.45,31.52-7.45c7.66,0,15.06,1.17,22.06,3.48c5.2-3.99,12.98-6.34,21.59-6.34c8.21,0,15.73,2.12,20.96,5.88
				c11.52,2.7,20.95,12.93,24.8,26.6c1.17,0.13,2.31,0.29,3.43,0.47c6.45-5.56,18.13-8.99,31.54-8.99
				c12.01,0,26.95,2.98,33.65,11.05c11.91,0.91,23.41,4.96,23.41,14.05c0,0.22-0.01,0.46-0.03,0.72c3.85,2.98,7.09,6.21,9.71,9.68
				c11.8,0.85,21.74,5.72,26.56,12.72c2.38-0.33,4.77-0.49,7.13-0.49c2.49,0,5.04,0.19,7.59,0.56c3.64-3.47,8.6-5.51,13.8-5.51
				c1.07,0,2.13,0.08,3.17,0.25c5.29-5.65,12.96-9,21.08-9c10.21,0,19.36,5.09,24.34,13.26c0.29,0.05,0.58,0.09,0.87,0.14
				c5.38-8.2,14.82-13.4,25.01-13.4c6.66,0,13.03,2.16,18.23,6.12c3.4,0.16,6.77,0.84,10.06,2.05c1.81,0.17,3.61,0.39,5.4,0.64
				c2.21-1.3,4.53-2.44,6.93-3.4c2.28-16.7,17.2-29.99,36.79-32.39c8.05-7.05,19.33-11.05,31.38-11.05c6.7,0,13.3,1.27,19.27,3.7
				c5.9-11.62,17.35-18.91,30.19-18.91c18.88,0,34.24,16.04,34.24,35.76c0,0.3,0,0.61-0.01,0.91c1.02-0.1,2.04-0.15,3.05-0.15
				c17.62,0,31.95,13.65,31.95,30.43c0,3.27-0.56,6.52-1.64,9.61c12.92,5.68,22.83,15.75,27.51,27.78
				c5.16-1.59,10.51-2.39,15.97-2.39c12.96,0,25.55,4.72,35.6,13.16c10.17-12.03,25.59-19.24,42-19.24c1.4,0,2.81,0.06,4.24,0.17
				c4.18-8.34,9.23-16.26,15.06-23.63c-1.2-3.73-1.8-7.6-1.8-11.54c0-20.97,17.06-38.04,38.04-38.04c3.54,0,7.07,0.51,10.53,1.51
				c3.77-1,7.64-1.51,11.53-1.51c2.36,0,4.7,0.18,7.02,0.55c7.44-16.62,25.61-27.76,46.48-27.76c2.77,0,5.6,0.22,8.45,0.66
				c9.97-8.42,22.17-13.02,34.72-13.02c18.15,0,34.96,9.42,45.88,25.45c1.39-0.23,2.78-0.34,4.19-0.34
				c9.37,0,17.94,4.85,23.39,13.11c10.76,3.82,19.21,10.2,24.32,17.96c9.1-13.17,24.82-21.74,42.45-21.74
				c22.1,0,37.18,17.18,43.84,36.7v303.17H-199.91z"/>
			
				<linearGradient id="SVGID_00000070091962921603519560000015048081663980619190_" gradientUnits="userSpaceOnUse" x1="370.6711" y1="912.8268" x2="370.6711" y2="520.0143">
				<stop  offset="0" style="stop-color:#B3E6FB"/>
				<stop  offset="1" style="stop-color:#FFFFFF"/>
			</linearGradient>
			<path style="fill:url(#SVGID_00000070091962921603519560000015048081663980619190_);" d="M941.26,587.33
				c-0.3-0.02-0.59-0.06-0.89-0.09c-4.09-18.71-21.77-32.79-42.95-32.79c-22.46,0-40.95,15.83-43.51,36.24
				c-0.25,0.13-0.49,0.25-0.73,0.39c0.24-1.35,0.4-2.71,0.4-4.1c0-13.41-11.32-24.91-27.48-29.89
				c-3.91-7.17-10.87-11.96-18.83-11.96c-2.56,0-5.01,0.52-7.3,1.43c-9.1-15.97-24.85-26.53-42.77-26.53
				c-12.42,0-23.81,5.08-32.65,13.51c-3.37-0.73-6.88-1.16-10.52-1.16c-20.55,0-37.72,12.38-42.08,28.95
				c-3.6-1.13-7.44-1.75-11.42-1.75c-4.06,0-7.96,0.65-11.63,1.83c-3.27-1.16-6.77-1.83-10.43-1.83
				c-17.23,0-31.19,13.97-31.19,31.19c0,4.56,1,8.88,2.76,12.79c-7.57,9.03-13.92,19.03-18.82,29.79c-2.69-0.46-5.45-0.74-8.28-0.74
				c-17.62,0-32.96,9.21-41.06,22.84c-9.16-10.31-22.13-16.75-36.54-16.75c-7.29,0-14.21,1.66-20.47,4.63
				c-2.75-14.71-14.26-26.82-29.73-32.14c-0.56-0.95-1.12-1.89-1.69-2.83c2.03-3.41,3.2-7.33,3.2-11.51
				c0-13.03-11.24-23.58-25.11-23.58c-2.18,0-4.28,0.29-6.3,0.78c-1.33-1.15-2.68-2.27-4.04-3.33c0.28-1.65,0.45-3.33,0.45-5.06
				c0-15.97-12.26-28.91-27.39-28.91c-11.59,0-21.49,7.62-25.48,18.36c-1.72,0.25-3.43,0.59-5.14,0.99
				c-5.47-2.61-11.91-4.14-18.83-4.14c-11.59,0-21.86,4.24-28.4,10.79c-18.62,1.39-33.23,14.41-33.23,30.29
				c0,0.16,0.03,0.31,0.03,0.47c-4.38,1.3-8.42,3.2-12.03,5.6c-2.76-0.45-5.57-0.81-8.44-1.06c-3.13-1.25-6.49-1.97-9.99-1.97
				c-0.32,0-0.64,0.04-0.96,0.06c-4.1-3.8-9.65-6.14-15.77-6.14c-9.77,0-18.08,5.94-21.34,14.29c-2.92-0.7-5.92-1.23-9-1.58
				c-3.07-7.42-10.8-12.7-19.87-12.7c-7.95,0-14.87,4.05-18.53,10.05c-1.72-0.82-3.66-1.3-5.72-1.3c-4.74,0-8.88,2.47-11.1,6.12
				c-3.3-0.74-6.73-1.18-10.3-1.18c-3.84,0-7.55,0.49-11.07,1.35c-1.65-7.73-12.78-13.72-26.3-13.72c0,0,0,0,0,0
				c-3.28-5.28-8.31-10.07-14.7-14.13c1.19-0.92,1.87-1.92,1.87-2.99c0-3.92-9.03-7.13-20.45-7.39
				c-2.47-6.17-14.84-10.87-29.76-10.87c-13.87,0-25.54,4.06-29.1,9.59c-3.43-0.78-7.3-1.31-11.45-1.5
				C-3.14,550-11.99,539.2-22.97,537.42c-3.8-3.26-10.45-5.42-18.04-5.42c-9.04,0-16.76,3.07-19.89,7.41
				c-7.12-2.9-15.19-4.56-23.76-4.56c-11.29,0-21.72,2.86-30.24,7.7c-3.52-0.55-7.25-0.85-11.12-0.85c-3.35,0-6.58,0.25-9.68,0.66
				c-4.78-9.93-13.72-16.64-23.99-16.64c-4.42,0-8.58,1.27-12.29,3.47c-4.6-3.6-10.31-5.76-16.52-5.76c-4.08,0-7.93,0.95-11.41,2.59
				v386.8H941.26V587.33z"/>
		</g>
	</g>
	
		<radialGradient id="SVGID_00000023992558626613598480000000619465772048632234_" cx="84.5375" cy="572.9308" r="267.7138" gradientUnits="userSpaceOnUse">
		<stop  offset="0" style="stop-color:#A26B2E"/>
		<stop  offset="0.1" style="stop-color:#B6802E"/>
		<stop  offset="0.25" style="stop-color:#E3AB2C"/>
		<stop  offset="0.39" style="stop-color:#FFF6AF"/>
		<stop  offset="0.45" style="stop-color:#DDA62C"/>
		<stop  offset="0.65" style="stop-color:#B0742A"/>
		<stop  offset="0.75" style="stop-color:#9C5B27"/>
		<stop  offset="0.91" style="stop-color:#F2BA2D"/>
		<stop  offset="1" style="stop-color:#FFF1B5"/>
	</radialGradient>
	
		<circle style="clip-path:url(#SVGID_00000163030742064715785820000014909224988383645351_);fill:url(#SVGID_00000023992558626613598480000000619465772048632234_);" cx="334.51" cy="519.33" r="47.9"/>
	
		<radialGradient id="SVGID_00000065036680645154649720000018047607267503923118_" cx="84.5375" cy="572.9308" r="267.7138" gradientUnits="userSpaceOnUse">
		<stop  offset="0" style="stop-color:#A26B2E"/>
		<stop  offset="0.1" style="stop-color:#B6802E"/>
		<stop  offset="0.1553" style="stop-color:#B0742A"/>
		<stop  offset="0.25" style="stop-color:#E3AB2C"/>
		<stop  offset="0.39" style="stop-color:#FFF6AF"/>
		<stop  offset="0.4005" style="stop-color:#9C5B27"/>
		<stop  offset="0.45" style="stop-color:#DDA62C"/>
		<stop  offset="0.91" style="stop-color:#F2BA2D"/>
		<stop  offset="1" style="stop-color:#FFF1B5"/>
	</radialGradient>
	
		<circle style="opacity:0.5;clip-path:url(#SVGID_00000163030742064715785820000014909224988383645351_);fill:url(#SVGID_00000065036680645154649720000018047607267503923118_);" cx="334.51" cy="519.33" r="47.9"/>
	<g style="clip-path:url(#SVGID_00000163030742064715785820000014909224988383645351_);">
		<path class="st6" d="M-200.91,886.83V517.02c4.55-2.16,6.98-1.81,11.77-1.57c6.05,0.3,11.51,2.11,16.69,5.18
			c3.77-1.59,7.71-2.4,11.77-2.4c11.03,0,21.31,6.1,27.76,16.21c1.99-0.15,3.96-0.23,5.91-0.23c3.32,0,6.62,0.2,9.84,0.61
			c9.42-4.88,20.27-7.45,31.52-7.45c7.66,0,15.06,1.17,22.06,3.48c5.2-3.99,12.98-6.34,21.59-6.34c8.21,0,15.73,2.12,20.96,5.88
			c11.52,2.7,20.95,12.93,24.8,26.6c1.17,0.13,2.31,0.29,3.43,0.47c6.45-5.56,18.13-8.99,31.54-8.99c12.01,0,26.95,2.98,33.65,11.05
			c11.91,0.91,23.41,4.96,23.41,14.05c0,0.22-0.01,0.46-0.03,0.72c3.85,2.98,7.09,6.21,9.71,9.68c11.8,0.85,21.74,5.72,26.56,12.72
			c2.38-0.33,4.77-0.49,7.13-0.49c2.49,0,5.04,0.19,7.59,0.56c3.64-3.47,8.6-5.51,13.8-5.51c1.07,0,2.13,0.08,3.17,0.25
			c5.29-5.65,12.96-9,21.08-9c10.21,0,19.36,5.09,24.34,13.26c0.29,0.05,0.58,0.09,0.87,0.14c5.38-8.2,14.82-13.4,25.01-13.4
			c6.66,0,13.03,2.16,18.23,6.12c3.4,0.16,6.77,0.84,10.06,2.05c1.81,0.17,3.61,0.39,5.4,0.64c2.21-1.3,4.53-2.44,6.93-3.4
			c2.28-16.7,17.2-29.99,36.79-32.39c8.05-7.05,19.33-11.05,31.38-11.05c6.7,0,13.3,1.27,19.27,3.7
			c5.9-11.62,17.35-18.91,30.19-18.91c18.88,0,34.24,16.04,34.24,35.76c0,0.3,0,0.61-0.01,0.91c1.02-0.1,2.04-0.15,3.05-0.15
			c17.62,0,31.95,13.65,31.95,30.43c0,3.27-0.56,6.52-1.64,9.61c12.92,5.68,22.83,15.75,27.51,27.78
			c5.16-1.59,10.51-2.39,15.97-2.39c12.96,0,25.55,4.72,35.6,13.16c10.17-12.03,25.59-19.24,42-19.24c1.4,0,2.81,0.06,4.24,0.17
			c4.18-8.34,9.23-16.26,15.06-23.63c-1.2-3.73-1.8-7.6-1.8-11.54c0-20.97,17.06-38.04,38.04-38.04c3.54,0,7.07,0.51,10.53,1.51
			c3.77-1,7.64-1.51,11.53-1.51c2.36,0,4.7,0.18,7.02,0.55c7.44-16.62,25.61-27.76,46.48-27.76c2.77,0,5.6,0.22,8.45,0.66
			c9.97-8.42,22.17-13.02,34.72-13.02c18.15,0,34.96,9.42,45.88,25.45c1.39-0.23,2.78-0.34,4.19-0.34c9.37,0,17.94,4.85,23.39,13.11
			c10.76,3.82,19.21,10.2,24.32,17.96c9.1-13.17,24.82-21.74,42.45-21.74c22.1,0,37.18,17.18,43.84,36.7v303.17H-200.91z"/>
		
			<linearGradient id="SVGID_00000077315833474988871920000011101713551071247535_" gradientUnits="userSpaceOnUse" x1="369.6733" y1="912.184" x2="369.6733" y2="519.3716">
			<stop  offset="0" style="stop-color:#B3E6FB"/>
			<stop  offset="1" style="stop-color:#FFFFFF"/>
		</linearGradient>
		<path style="fill:url(#SVGID_00000077315833474988871920000011101713551071247535_);" d="M940.26,586.68
			c-0.3-0.02-0.59-0.06-0.89-0.09c-4.09-18.71-21.77-32.79-42.95-32.79c-22.46,0-40.95,15.83-43.51,36.24
			c-0.25,0.13-0.49,0.25-0.73,0.39c0.24-1.35,0.4-2.71,0.4-4.1c0-13.41-11.32-24.91-27.48-29.89c-3.91-7.17-10.87-11.96-18.83-11.96
			c-2.56,0-5.01,0.52-7.3,1.43c-9.1-15.97-24.85-26.53-42.77-26.53c-12.42,0-23.81,5.08-32.65,13.51
			c-3.37-0.73-6.88-1.16-10.52-1.16c-20.55,0-37.72,12.38-42.08,28.95c-3.6-1.13-7.44-1.75-11.42-1.75c-4.06,0-7.96,0.65-11.63,1.83
			c-3.27-1.16-6.77-1.83-10.43-1.83c-17.23,0-31.19,13.97-31.19,31.19c0,4.56,1,8.88,2.76,12.79c-7.57,9.03-13.92,19.03-18.82,29.79
			c-2.69-0.46-5.45-0.74-8.28-0.74c-17.62,0-32.96,9.21-41.06,22.84c-9.16-10.31-22.13-16.75-36.54-16.75
			c-7.29,0-14.21,1.66-20.47,4.63c-2.75-14.71-14.26-26.82-29.73-32.14c-0.56-0.95-1.12-1.89-1.69-2.83
			c2.03-3.41,3.2-7.33,3.2-11.51c0-13.03-11.24-23.58-25.11-23.58c-2.18,0-4.28,0.29-6.3,0.78c-1.33-1.15-2.68-2.27-4.04-3.33
			c0.28-1.65,0.45-3.33,0.45-5.06c0-15.97-12.26-28.91-27.39-28.91c-11.59,0-21.49,7.62-25.48,18.36c-1.72,0.25-3.43,0.59-5.14,0.99
			c-5.47-2.61-11.91-4.14-18.83-4.14c-11.59,0-21.86,4.24-28.4,10.79c-18.62,1.39-33.23,14.41-33.23,30.29
			c0,0.16,0.03,0.31,0.03,0.47c-4.38,1.3-8.42,3.2-12.03,5.6c-2.76-0.45-5.57-0.81-8.44-1.06c-3.13-1.25-6.49-1.97-9.99-1.97
			c-0.32,0-0.64,0.04-0.96,0.06c-4.1-3.8-9.65-6.14-15.77-6.14c-9.77,0-18.08,5.94-21.34,14.29c-2.92-0.7-5.92-1.23-9-1.58
			c-3.07-7.42-10.8-12.7-19.87-12.7c-7.95,0-14.87,4.05-18.53,10.05c-1.72-0.82-3.66-1.3-5.72-1.3c-4.74,0-8.88,2.47-11.1,6.12
			c-3.3-0.74-6.73-1.18-10.3-1.18c-3.84,0-7.55,0.49-11.07,1.35c-1.65-7.73-12.78-13.72-26.3-13.72c0,0,0,0,0,0
			c-3.28-5.28-8.31-10.07-14.7-14.13c1.19-0.92,1.87-1.92,1.87-2.99c0-3.92-9.03-7.13-20.45-7.39
			c-2.47-6.17-14.84-10.87-29.76-10.87c-13.87,0-25.54,4.06-29.1,9.59c-3.43-0.78-7.3-1.31-11.45-1.5
			c-2.32-14.04-11.17-24.84-22.15-26.63c-3.8-3.26-10.45-5.42-18.04-5.42c-9.04,0-16.76,3.07-19.89,7.41
			c-7.12-2.9-15.19-4.56-23.76-4.56c-11.29,0-21.72,2.86-30.24,7.7c-3.52-0.55-7.25-0.85-11.12-0.85c-3.35,0-6.58,0.25-9.68,0.66
			c-4.78-9.93-13.72-16.64-23.99-16.64c-4.42,0-8.58,1.27-12.29,3.47c-4.6-3.6-10.31-5.76-16.52-5.76c-4.08,0-7.93,0.95-11.41,2.59
			v386.8H940.26V586.68z"/>
	</g>
</g>
<linearGradient id="SVGID_00000012431141831690403970000014441664373254796440_" gradientUnits="userSpaceOnUse" x1="38.8976" y1="479.6373" x2="949.0497" y2="479.6373">
	<stop  offset="0" style="stop-color:#A26B2E"/>
	<stop  offset="0.1" style="stop-color:#B6802E"/>
	<stop  offset="0.25" style="stop-color:#E3AB2C"/>
	<stop  offset="0.39" style="stop-color:#FFF6AF"/>
	<stop  offset="0.45" style="stop-color:#DDA62C"/>
	<stop  offset="0.65" style="stop-color:#B0742A"/>
	<stop  offset="0.75" style="stop-color:#9C5B27"/>
	<stop  offset="0.91" style="stop-color:#F2BA2D"/>
	<stop  offset="1" style="stop-color:#FFF1B5"/>
</linearGradient>
<path style="fill:url(#SVGID_00000012431141831690403970000014441664373254796440_);" d="M726.25,142.43
	c-10.99-9.86-23.36-18.46-37.24-23.69c-13.83-5.39-28.66-7.34-43.34-8.87c-14.72-1.55-29.48-2.87-44.06-5.68
	c-14.55-2.99-28.55-8.47-41.5-15.72c-12.98-7.22-25.24-15.56-38.05-22.93c-3.17-1.91-6.43-3.62-9.72-5.28l-9.82-5.07
	c-6.63-3.22-13.52-5.86-20.26-8.82c-27.55-10.49-56.6-16.71-85.87-19.34c-29.29-2.68-58.87-1.41-87.82,3.1
	c-28.94,4.58-57.36,12.46-84.07,24.11c-13.22,6.17-26.33,12.33-38.1,20.71c-11.88,8.16-23.05,17.33-33.28,27.48
	c-10.15,10.24-19.46,21.28-27.97,32.93c-8.42,11.72-15.91,24.09-22.71,36.81c-6.8,12.74-12.53,26.03-17.7,39.49l-3.71,10.17
	l-3.33,10.3c-2.09,6.87-3.55,13.74-5.37,20.57c-6.06,27.68-5.81,56.41-3.04,85.06c2.79,28.73,8.33,57.56,13.14,87.03
	c4.76,29.43,9.04,59.75,8.25,90.81l-0.5,11.64c-0.16,3.88-0.28,7.76-0.85,11.64l-1.37,11.64l-0.7,5.82l-0.7,5.35
	c-0.89,7.12-1.99,14.23-2.72,21.34l-1.64,21.32c-1.28,28.36,0.72,56.56,7.72,83.25c6.92,26.71,19.07,51.68,35.24,74.21
	c16.11,22.6,36.13,42.77,57.98,61.13c10.79,9.27,22.44,17.98,33.9,26.42c11.41,8.21,23.47,15.42,35.81,22.12
	c24.91,12.89,51.38,22.92,78.88,28.72l5.14,1.15l5.19,0.91l10.39,1.76c6.98,0.78,13.93,1.94,20.96,2.32
	c14.01,1.28,28.13,1.27,42.21,0.58l10.56-0.7c3.51-0.32,7.01-0.79,10.52-1.17l5.26-0.6l4.99-0.86c3.32-0.56,6.65-1.1,9.93-2.01
	c13.19-3.09,26.11-7.92,38.85-13.89c25.49-11.96,50.42-28.11,77.91-41.73c13.7-6.78,28.21-12.94,43.09-17.39
	c14.81-4.58,29.7-7.82,44.4-10.73c14.7-2.92,29.24-5.41,43.49-8.34c7.12-1.46,14.17-3.07,21.12-4.84c3.37-0.98,6.76-1.88,10.12-2.91
	c3.31-1.16,6.68-2.19,9.96-3.46c26.37-9.91,50.66-25.59,71.77-44.95c21.16-19.37,39.22-42.33,54.22-67.19
	c14.99-24.88,27.1-51.65,36.06-79.47c4.47-13.91,8.18-28.08,11.07-42.43c2.87-14.44,5.4-28.94,7.2-43.51
	c1.78-14.57,2.86-29.22,2.72-43.87c-0.07-7.32-0.36-14.65-1.14-21.92c-0.31-3.65-0.88-7.26-1.36-10.89l-2.07-10.73
	c-3.25-14.21-8.55-27.95-15.45-40.87c-6.88-12.94-15.29-25.08-24.37-36.69c-18.23-23.21-38.97-44.49-57.58-67.57
	c-18.82-23.04-32.96-49.26-47.71-74.88C764.44,187.72,748.29,162.41,726.25,142.43z M726.25,142.43
	c22.11,19.89,38.37,45.17,53.2,70.7c14.86,25.57,29.41,51.53,48.37,74.28c18.7,22.92,40.1,43.49,58.89,66.53
	c9.4,11.5,18.18,23.6,25.49,36.66c7.32,13.03,13.08,27.02,16.74,41.61c6.9,29.3,7.23,59.6,4.57,89.31
	c-1.34,14.88-3.42,29.64-5.84,44.33c-2.47,14.78-5.8,29.41-9.91,43.83c-8.25,28.83-19.48,56.9-34.07,83.33
	c-14.56,26.41-32.49,51.24-54.22,72.76c-21.67,21.5-47.3,39.63-75.97,51.71c-3.57,1.54-7.24,2.83-10.86,4.25
	c-3.67,1.3-7.39,2.44-11.09,3.67c-7.32,2.17-14.64,4.15-21.96,5.95c-14.62,3.62-29.17,6.69-43.42,9.97
	c-14.24,3.31-28.22,6.85-41.56,11.48c-13.37,4.48-26.02,10.36-38.64,17.11c-25.21,13.42-49.51,30.61-77.43,44.37
	c-13.91,6.88-28.73,12.85-44.3,16.86c-3.85,1.13-7.81,1.89-11.77,2.65l-5.93,1.14l-5.75,0.79c-3.84,0.51-7.67,1.09-11.52,1.53
	l-11.58,1.02c-15.46,1.1-31.02,1.43-46.53,0.36c-7.77-0.29-15.49-1.31-23.22-2.13l-11.53-1.82l-5.76-0.95l-5.71-1.2
	c-30.52-6.15-60.13-16.75-87.81-31.03c-13.72-7.36-27.13-15.33-39.8-24.37c-12.4-9.06-24.55-18.02-36.22-28.05
	c-23.36-19.78-45.38-41.98-63.57-67.69c-18.2-25.63-31.97-54.99-39.57-85.73c-1.76-7.7-3.16-15.47-4.66-23.21
	c-0.83-7.8-1.79-15.6-2.46-23.39c-0.24-7.79-0.6-15.58-0.69-23.34l0.84-23.18l2.25-22.92c0.94-7.59,2.25-15.1,3.37-22.65l0.87-5.64
	l0.72-5.19l1.45-10.39c0.6-3.44,0.77-6.96,0.98-10.48l0.69-10.54c1.19-28.21-1.5-56.99-5.35-86.08c-3.76-29.11-8.49-58.68-10.45-89
	c-1.92-30.24-0.91-61.52,6.86-91.57c2.24-7.39,4.2-14.95,6.71-22.15l3.93-10.69l4.31-10.54c5.98-13.95,12.55-27.65,20.21-40.77
	c7.66-13.1,16.04-25.79,25.39-37.77c9.43-11.91,19.7-23.16,30.81-33.54c11.21-10.28,23.37-19.51,36.22-27.61
	c12.77-8.34,26.83-14.3,40.6-20.21c56.05-22.1,117.13-28.92,176.32-22.51c29.6,3.29,58.86,10.22,86.45,21.41
	c6.75,3.13,13.65,5.95,20.26,9.34l9.8,5.33c3.28,1.75,6.53,3.54,9.67,5.53c12.67,7.72,24.81,16.23,37.66,23.52
	c12.8,7.36,26.61,12.94,41.06,16.08c14.48,2.95,29.23,4.5,43.95,6.05c14.68,1.58,29.54,3.59,43.37,9.04
	C702.95,123.88,715.3,132.53,726.25,142.43z"/>
<g>
	
		<linearGradient id="SVGID_00000161605167068403249680000009990886132984041643_" gradientUnits="userSpaceOnUse" x1="-6165.5288" y1="-3412.5579" x2="-6153.4028" y2="-3412.5579" gradientTransform="matrix(0.0731 -0.9973 0.9973 0.0731 4438.5166 -5400.0811)">
		<stop  offset="0" style="stop-color:#46736E"/>
		<stop  offset="0.9964" style="stop-color:#2F4F4F"/>
	</linearGradient>
	<path style="fill:url(#SVGID_00000161605167068403249680000009990886132984041643_);" d="M466.95,490.39
		c0.1,1.11,23.26,0.89,97.4,5.52c0,0,2.49,0.16,5.56,0.35c89.97,5.71,131.95,11.08,132.28,9.42c0.39-1.98-57.85-15.86-130.8-19.17
		C513.63,483.88,466.8,488.8,466.95,490.39z"/>
	
		<linearGradient id="SVGID_00000051348613508287639330000001559227623306434983_" gradientUnits="userSpaceOnUse" x1="513.955" y1="477.8087" x2="400.795" y2="485.1568">
		<stop  offset="0" style="stop-color:#EF9F8E"/>
		<stop  offset="1" style="stop-color:#FF0000"/>
	</linearGradient>
	<path style="fill:url(#SVGID_00000051348613508287639330000001559227623306434983_);" d="M411.7,506.07
		c-0.3,6.72,40.52,21.4,79.62,9.39c10.56-3.25,31.19-9.58,33.64-22.95c3.04-16.59-23.68-34.67-42.57-42.14
		c-30.55-12.07-64.6-5.89-65.66,1c-0.87,5.61,20.06,12.47,18.73,16.32c-0.76,2.19-8.03,1.37-28.15,3.15
		c-7.18,0.64-10.16,1.09-10.67,2.76c-1.22,4.07,13.39,11.78,14.24,12.22c12.96,6.75,22.32,6.37,22.58,9.13
		C433.85,499.17,411.92,501.2,411.7,506.07z"/>
	<g>
		
			<linearGradient id="SVGID_00000039851226412759108590000003058582072240779160_" gradientUnits="userSpaceOnUse" x1="414.5799" y1="542.6116" x2="548.3145" y2="460.3135">
			<stop  offset="0" style="stop-color:#EF9F8E"/>
			<stop  offset="1" style="stop-color:#FF0000"/>
		</linearGradient>
		<path style="fill:url(#SVGID_00000039851226412759108590000003058582072240779160_);" d="M507.29,484.58
			c-7.27,4.2-14.45-4.06-28.02-2.88c-17.89,1.55-24.08,17.52-38.45,26.24c-4.51,2.74-10.33,5.06-17.95,5.98
			c14.76,5.58,41.99,9.68,68.45,1.55c10.56-3.25,31.19-9.58,33.64-22.95c1.37-7.5-3.35-15.31-10.66-22.3
			C513.37,478.2,510.77,482.56,507.29,484.58z"/>
	</g>
	
		<linearGradient id="SVGID_00000123437604876307888580000002567624722573450902_" gradientUnits="userSpaceOnUse" x1="594.6063" y1="512.1885" x2="639.5991" y2="512.1885">
		<stop  offset="0" style="stop-color:#46736E"/>
		<stop  offset="0.9964" style="stop-color:#2F4F4F"/>
	</linearGradient>
	<path style="fill:url(#SVGID_00000123437604876307888580000002567624722573450902_);" d="M625.99,495.89
		c-11.96,0.4-19.91,7.09-22.04,8.94c-3.01,2.61-4.7,4.95-5.12,5.58c-3.62,5.46-4.36,11.52-4.21,16.27
		c0.19,6.46,17.5-5.71,20.55-11.46c3.04-5.75,24.43-16.97,24.43-16.97C636.23,496.93,631.56,495.7,625.99,495.89z"/>
</g>
<g>
	
		<linearGradient id="SVGID_00000081611922119210057010000014650232555327151778_" gradientUnits="userSpaceOnUse" x1="546.2835" y1="482.3558" x2="572.56" y2="531.3659">
		<stop  offset="0" style="stop-color:#CBAF85"/>
		<stop  offset="1" style="stop-color:#BA7C44"/>
	</linearGradient>
	<path style="fill:url(#SVGID_00000081611922119210057010000014650232555327151778_);" d="M563.47,509.73c0,0,1.1-10.87-1.61-14.26
		s-5.34-10.41-6.24-6.82c-0.89,3.59,0.21,8.52-0.81,8.35s-7.81-0.68-7.81-0.68s2.26,12.65,8.35,14.52
		C561.43,512.7,562.81,517.46,563.47,509.73z"/>
	
		<linearGradient id="SVGID_00000013912744512688304630000000084387558430693002_" gradientUnits="userSpaceOnUse" x1="1225.0261" y1="800.357" x2="1196.1376" y2="705.1029" gradientTransform="matrix(-0.993 0.1177 0.1177 0.993 1868.0833 60.2989)">
		<stop  offset="0" style="stop-color:#3B3138"/>
		<stop  offset="1" style="stop-color:#241F21"/>
	</linearGradient>
	<path style="fill:url(#SVGID_00000013912744512688304630000000084387558430693002_);" d="M768.36,950.08
		c3.57,5.69,3.01,8.35,2.4,9.56c-1.8,3.55-7.29,0.95-20.61,3.96c-1.56,0.35-4.54,1.08-8.4,0.58c-3.31-0.42-7.29-1.74-7.22-2.62
		c0.03-0.32,0.59-0.51,0.8-0.58c3.66-1.19,26.34-10.83,26.34-10.83L768.36,950.08z"/>
	
		<linearGradient id="SVGID_00000005958489238575181740000015160899448070516891_" gradientUnits="userSpaceOnUse" x1="1200.1218" y1="781.8092" x2="1200.1218" y2="628.775" gradientTransform="matrix(-0.993 0.1177 0.1177 0.993 1868.0833 60.2989)">
		<stop  offset="0" style="stop-color:#CBAF85"/>
		<stop  offset="1" style="stop-color:#BA7C44"/>
	</linearGradient>
	<path style="fill:url(#SVGID_00000005958489238575181740000015160899448070516891_);" d="M768.78,936.71l-0.69,13.63
		c0,0-5.33,4.67-7.36-0.11c-1.46-3.44-2.43-13.03-2.43-13.03L768.78,936.71z"/>
	
		<linearGradient id="SVGID_00000096779090706936333740000000779728866882867869_" gradientUnits="userSpaceOnUse" x1="1256.4688" y1="781.8091" x2="1256.4688" y2="628.7729" gradientTransform="matrix(-0.993 0.1177 0.1177 0.993 1868.0833 60.2989)">
		<stop  offset="0" style="stop-color:#CBAF85"/>
		<stop  offset="1" style="stop-color:#BA7C44"/>
	</linearGradient>
	<polygon style="fill:url(#SVGID_00000096779090706936333740000000779728866882867869_);" points="701.47,950.46 708.74,965.3 
		716.82,963.14 713.42,949.04 	"/>
	
		<linearGradient id="SVGID_00000049202154995241660930000005325842278465300877_" gradientUnits="userSpaceOnUse" x1="1267.1095" y1="787.5941" x2="1238.2208" y2="692.3395" gradientTransform="matrix(-0.993 0.1177 0.1177 0.993 1868.0833 60.2989)">
		<stop  offset="0" style="stop-color:#3B3138"/>
		<stop  offset="1" style="stop-color:#241F21"/>
	</linearGradient>
	<path style="fill:url(#SVGID_00000049202154995241660930000005325842278465300877_);" d="M712.18,973.54
		c3.48-5.13,7.08-5.08,7.46-8.4c0.3-2.61-1.59-5.57-4.07-6.51c-3.48-1.32-7.22,1.7-8.06,2.38c-5.73,4.64-3.4,10.72-8.92,14.04
		c-1.11,0.67-2.9,1.44-4.66,3.47c-0.75,0.86-2.6,3-1.98,4.27c0.72,1.47,4.37,1.04,7.84,0.62c4.17-0.5,6.25-0.74,8.12-2.21
		C710.51,979.19,709.49,977.5,712.18,973.54z"/>
	
		<linearGradient id="SVGID_00000096769313228839935670000010795429911197263037_" gradientUnits="userSpaceOnUse" x1="1186.8899" y1="451.5933" x2="1172.8358" y2="767.8098" gradientTransform="matrix(-0.993 0.1177 0.1177 0.993 1868.0833 60.2989)">
		<stop  offset="0" style="stop-color:#96888E"/>
		<stop  offset="1" style="stop-color:#706369"/>
	</linearGradient>
	<path style="fill:url(#SVGID_00000096769313228839935670000010795429911197263037_);" d="M779.22,611.41
		c1.74,31.34,0.06,58.43-2.75,80.67c-3.02,23.92-5.58,28.22-5.79,44.6c-0.44,35.65,11.38,39.77,16.78,79.57
		c5.97,43.95-2.86,80.01-6.36,93.77c-3.06,12.03-6.5,21.83-9.14,28.66c-3.76,3.86-10.06,3.02-16.69,2.24
		c-5.72-39.84-11.84-77.27-17.57-117.11c-12.74-59.59-25.49-119.18-38.23-178.77C726.05,633.83,752.64,622.62,779.22,611.41z"/>
	
		<linearGradient id="SVGID_00000181059332004424162010000003219195252399412655_" gradientUnits="userSpaceOnUse" x1="1186.8899" y1="451.5933" x2="1172.8358" y2="767.8098" gradientTransform="matrix(-0.993 0.1177 0.1177 0.993 1868.0833 60.2989)">
		<stop  offset="0" style="stop-color:#96888E"/>
		<stop  offset="1" style="stop-color:#706369"/>
	</linearGradient>
	<path style="opacity:0.25;fill:url(#SVGID_00000181059332004424162010000003219195252399412655_);" d="M755.27,940.92
		c-5.72-39.84-11.84-77.27-17.57-117.11c-12.74-59.59-25.49-119.18-38.23-178.77c26.58-11.21,53.16-22.42,79.75-33.63
		c0.11,2.08,0.18,4.08,0.26,6.12c-35.57,36.47-40.89,63.46-39.03,81.42c2.26,21.78,15.09,31.61,15.38,63.43
		c0.21,22.76-6.26,27.3-4.57,47.71c2.18,26.28,14.69,40.12,21.44,54.85c6.53,14.24,10.14,34.87,2.33,65.29
		c-1.09,3.16-2.14,6-3.08,8.44C768.2,942.55,761.9,941.71,755.27,940.92z"/>
	
		<linearGradient id="SVGID_00000052789649325771104810000013576740871035265979_" gradientUnits="userSpaceOnUse" x1="1401.1376" y1="586.1156" x2="1143.4766" y2="574.4036" gradientTransform="matrix(-0.993 0.1177 0.1177 0.993 1868.0833 60.2989)">
		<stop  offset="0" style="stop-color:#96888E"/>
		<stop  offset="1" style="stop-color:#706369"/>
	</linearGradient>
	<path style="fill:url(#SVGID_00000052789649325771104810000013576740871035265979_);" d="M733.34,645.55
		c-17.28,35.58-26.22,63.21-30.91,80.19c-2.86,10.36-5.34,21.12-4.98,34.92c0.44,16.91,4.93,30.46,8.57,39.08
		c5.16,10.99,10.08,23.91,13.71,38.66c11.78,47.83,3.79,89.34-3.16,113.4c-4.71,2.2-9.41,4.4-14.12,6.6
		c-13.55-29.86-30.64-72.39-44.78-125.42c-7.72-28.96-13.67-51.68-16.13-80.97c-2.6-30.89-2.26-80.11,18.18-140.59
		C684.26,622.8,708.8,634.17,733.34,645.55z"/>
	
		<linearGradient id="SVGID_00000103978055235554821720000007264698894836962481_" gradientUnits="userSpaceOnUse" x1="5061.3594" y1="448.1469" x2="5217.812" y2="739.9575" gradientTransform="matrix(-1 0 0 1 5901.2139 0)">
		<stop  offset="0" style="stop-color:#956F53"/>
		<stop  offset="1" style="stop-color:#71482F"/>
	</linearGradient>
	<path style="fill:url(#SVGID_00000103978055235554821720000007264698894836962481_);" d="M699.95,379.08
		c-30.44,7.86-53.49,15.33-62.65,32.38c-9.67,18,9.02,29.4,16.92,66.48c12.1,56.77-19.12,80.95-4.84,137.94
		c4.81,19.2,12.68,33.71,17.98,42.28c10.65,7.31,27.44,17.1,49.58,22.85c32.22,8.36,47.14,0.71,89.47-0.37
		c69.24-1.78,81.21,17.36,111.33,2.49c30.44-15.03,50.43-50.48,42.56-64.27c-4.71-8.26-16.87-1.85-35.83-10.9
		c-24.43-11.66-22.05-30.53-42.28-44.88c-29.05-20.6-53.26,4.64-78.14-13.31c-25.16-18.16-32.02-66.81-24.44-96.75
		c4.95-19.55,3.36-40.23,6.58-60.14c0.27-1.65,0.37-4.27-0.88-7.11c-4.78-10.89-25.47-11.34-41.1-11.54
		C720.37,373.93,702.45,378.43,699.95,379.08z"/>
	
		<linearGradient id="SVGID_00000151514854996035767280000010410005210078659730_" gradientUnits="userSpaceOnUse" x1="-1183.9109" y1="-2.0224" x2="-1041.204" y2="291.4314" gradientTransform="matrix(0.9575 -0.2886 0.2886 0.9575 1742.4999 87.6895)">
		<stop  offset="0" style="stop-color:#956F53"/>
		<stop  offset="1" style="stop-color:#71482F"/>
	</linearGradient>
	<path style="opacity:0.25;fill:url(#SVGID_00000151514854996035767280000010410005210078659730_);" d="M912.31,661.65
		c-10.07-5.57-6.39-24.02-21.32-32.42c-13.85-7.79-23.12,4.67-42.94,0.35c-25.42-5.55-26.1-29.52-50.49-35.17
		c-17.54-4.06-21.79,7.27-46.39,9.78c-24.56,2.51-57.65-4.97-80.23-29.35c-9.6-10.36-15.42-21.78-18.97-32.49
		c-4.82,21.8-10.26,42.93-2.59,73.52c4.81,19.2,12.68,33.71,17.98,42.28c10.65,7.31,27.44,17.1,49.58,22.85
		c32.22,8.36,47.14,0.71,89.47-0.37c69.24-1.78,81.21,17.36,111.33,2.49c19.45-9.61,34.59-27.54,40.97-42.84
		C933.11,662.34,919.62,665.69,912.31,661.65z"/>
	
		<linearGradient id="SVGID_00000122720574943605227040000013645269116010507688_" gradientUnits="userSpaceOnUse" x1="620.8829" y1="279.5747" x2="720.9285" y2="414.0623">
		<stop  offset="0" style="stop-color:#CBAF85"/>
		<stop  offset="1" style="stop-color:#BA7C44"/>
	</linearGradient>
	<path style="fill:url(#SVGID_00000122720574943605227040000013645269116010507688_);" d="M677.68,327.11c0,0-7.19,16.68-6.79,27.93
		c0.39,11.25,12.98,9.39,12.98,9.39l0.11,7.11c0.1,6.07-3.39,11.63-8.89,14.19l-4.84,2.25c0,0,33.16,4.28,49.91-9.77l-5.17-0.08
		c-7.32-0.11-13.55-5.36-14.89-12.56l-0.56-3C699.53,362.58,702.29,327.17,677.68,327.11z"/>
	
		<linearGradient id="SVGID_00000074407077920200981760000012397786073666899902_" gradientUnits="userSpaceOnUse" x1="5215.1387" y1="365.6993" x2="5371.5913" y2="657.5111" gradientTransform="matrix(-1 0 0 1 5901.2139 0)">
		<stop  offset="0" style="stop-color:#956F53"/>
		<stop  offset="1" style="stop-color:#71482F"/>
	</linearGradient>
	<path style="fill:url(#SVGID_00000074407077920200981760000012397786073666899902_);" d="M642.21,405.46
		c-5.67,4.32-14.11,11.74-21.08,23.02c-19.84,32.09-7.59,62.8-25.39,75.97c-5.09,3.77-14.35,7.36-32.18,3.08l-6.23,4.2
		c0,0-3.77,41.79,46.12,38.13c49.89-3.66,68.2-68.08,68.2-68.08L642.21,405.46z"/>
	
		<linearGradient id="SVGID_00000074417374233538486480000017947673662536682933_" gradientUnits="userSpaceOnUse" x1="-2098.4226" y1="437.2292" x2="-2000.9835" y2="684.8206" gradientTransform="matrix(1 0 0 1 2911.9187 0)">
		<stop  offset="0" style="stop-color:#3B3138"/>
		<stop  offset="1" style="stop-color:#241F21"/>
	</linearGradient>
	<path style="fill:url(#SVGID_00000074417374233538486480000017947673662536682933_);" d="M684.09,342.57
		c1.67-0.28,2.89-2.53,4.09-1.99c1.27,0.56,1.39,3.69,0.52,5.96c-0.71,1.86-2.04,2.99-2.78,3.53c1.45,1.69,3.34,4.35,4.33,7.96
		c2.2,7.97-1.57,14.84-3.04,18.8c-6.65,17.85,8.16,43.97,23.08,56.55c12.12,10.22,16.98,5.31,24.41,13.86
		c14.48,16.65-1.86,37.62,6.84,60.92c13.24,35.43,71.41,41.47,73.82,41.69c0.95,0.09,1.59,0.14,2.57,0.21
		c26.03,1.95,65.49,4.91,91.17-18.45c19.21-17.48,26.35-45.72,22.79-69.78c-0.94-6.33-4.87-30.32-26.18-48.4
		c-3.38-2.87-23.41-19.82-48.43-17.97c-13.25,0.98-15.53,5.86-25.9,3.82c-14.19-2.8-23.77-14.69-29.72-22.07
		c-10.93-13.57-7.23-16.97-14.83-23.46c-14.88-12.72-30.1-0.5-45.78-11.51c-15.46-10.85-8.09-27.93-22.92-37.21
		c-15.29-9.57-42.53-3.53-47.34,9.77C666.69,326.21,678.96,343.43,684.09,342.57z"/>
</g>
<g>
	<g>
		
			<linearGradient id="SVGID_00000012432168710031110380000016961833682328217236_" gradientUnits="userSpaceOnUse" x1="400.9958" y1="1642.0577" x2="331.5266" y2="1613.6385" gradientTransform="matrix(-0.9796 -0.2015 -0.2015 0.9796 1171.7717 -875.1225)">
			<stop  offset="0" style="stop-color:#CBAF85"/>
			<stop  offset="1" style="stop-color:#BA7C44"/>
		</linearGradient>
		<path style="fill:url(#SVGID_00000012432168710031110380000016961833682328217236_);" d="M570.03,648.1c0,0-11.26,9.28-24.08,2.72
			c-11.46-5.86-1.94-35.99,7.97-39.05c3.31-1.02,8.68,0.24,12.29,3.24c2.13,1.77,2.53,3.24,6.07,6.06c3.27,2.61,4.48,2.59,5.2,4.1
			c0.89,1.88,0.7,5.49-4.91,13.13c3.23-1.58,6.31-1.41,7.85,0.41c0.25,0.29,0.82,1.25,0.93,2.37
			C581.71,645.14,577.29,648.27,570.03,648.1z"/>
	</g>
	
		<linearGradient id="SVGID_00000144330562385952454790000008959331415507507618_" gradientUnits="userSpaceOnUse" x1="-496.9222" y1="792.3221" x2="-487.5374" y2="844.7803" gradientTransform="matrix(1 0 0 1 950.4685 0)">
		<stop  offset="0" style="stop-color:#CBAF85"/>
		<stop  offset="1" style="stop-color:#BA7C44"/>
	</linearGradient>
	<path style="fill:url(#SVGID_00000144330562385952454790000008959331415507507618_);" d="M454.56,792.51c0,0-4.44,10.39-6.46,14.16
		c-2.03,3.77,7.82,14.2,9.27,13.33c1.45-0.87-1.16-9.27,0-12.17c1.16-2.9,5.22-15.58,4.35-17.64
		C460.84,788.13,454.56,792.51,454.56,792.51z"/>
	
		<linearGradient id="SVGID_00000020361702148414171360000008072132653980349875_" gradientUnits="userSpaceOnUse" x1="-552.116" y1="939.7207" x2="-558.8051" y2="1017.1238" gradientTransform="matrix(-1 0 0 1 -46.6296 0)">
		<stop  offset="0" style="stop-color:#3B3138"/>
		<stop  offset="1" style="stop-color:#241F21"/>
	</linearGradient>
	<path style="fill:url(#SVGID_00000020361702148414171360000008072132653980349875_);" d="M519.27,966.84c0,0,3.38,9.89,1.6,11.16
		c-1.78,1.27-23.28,0.98-24.72,0.65c-1.43-0.34,14.71-11.62,17.44-11.8C516.32,966.66,519.27,966.84,519.27,966.84z"/>
	
		<linearGradient id="SVGID_00000111178911635775987020000009235469702332170132_" gradientUnits="userSpaceOnUse" x1="-636.963" y1="932.3875" x2="-643.6522" y2="1009.7917" gradientTransform="matrix(-1 0 0 1 -46.6296 0)">
		<stop  offset="0" style="stop-color:#3B3138"/>
		<stop  offset="1" style="stop-color:#241F21"/>
	</linearGradient>
	<path style="fill:url(#SVGID_00000111178911635775987020000009235469702332170132_);" d="M582.25,973.21c0,0-2.89,6.77-1.08,7.94
		c1.82,1.17,27.84,2.4,27.38,1.84c-0.46-0.56-19.18-9-19.18-9L582.25,973.21z"/>
	
		<linearGradient id="SVGID_00000135680518072666112060000002678662967585917074_" gradientUnits="userSpaceOnUse" x1="-649.2135" y1="901.7289" x2="-608.5956" y2="901.7289" gradientTransform="matrix(-1 0 0 1 -46.6296 0)">
		<stop  offset="0" style="stop-color:#3B3138"/>
		<stop  offset="1" style="stop-color:#241F21"/>
	</linearGradient>
	<path style="fill:url(#SVGID_00000135680518072666112060000002678662967585917074_);" d="M601.62,829.19
		c1.39,22.27,1.5,48.3-1.19,77.16c-2.37,25.32-6.44,48.01-11.06,67.64c-2.51,0.09-5.02,0.19-7.53,0.28
		c-3.98-8.35-8.95-21.32-9.97-37.58c-1-15.8,2.4-24.09,3.26-37.06c0.86-13.05-0.75-32.19-13.15-56.59
		C575.19,838.42,588.4,833.8,601.62,829.19z"/>
	
		<linearGradient id="SVGID_00000048471925349407361430000013053484452259720344_" gradientUnits="userSpaceOnUse" x1="-598.4559" y1="900.4229" x2="-554.7106" y2="900.4229" gradientTransform="matrix(-1 0 0 1 -46.6296 0)">
		<stop  offset="0" style="stop-color:#3B3138"/>
		<stop  offset="1" style="stop-color:#241F21"/>
	</linearGradient>
	<path style="fill:url(#SVGID_00000048471925349407361430000013053484452259720344_);" d="M551.58,832.58
		c1.1,15.83-1.56,28.37-5.49,38.22c-3.95,9.89-6.74,10.97-9.79,20.55c-4.93,15.47-1.21,23.85-2.51,38.45
		c-0.85,9.5-3.92,22.77-14.08,38.36c-2.6,0.04-5.19,0.07-7.79,0.11c-2.64-19.34-4.41-42.39-3.65-68.33
		c0.72-24.54,3.54-46.33,7.01-64.73C527.37,834.33,539.47,833.45,551.58,832.58z"/>
	
		<linearGradient id="SVGID_00000013876020710854811040000004091730788751789964_" gradientUnits="userSpaceOnUse" x1="528.5375" y1="413.2248" x2="532.5732" y2="544.3853">
		<stop  offset="0" style="stop-color:#95AFC7"/>
		<stop  offset="1" style="stop-color:#7595B6"/>
	</linearGradient>
	<path style="fill:url(#SVGID_00000013876020710854811040000004091730788751789964_);" d="M596.73,690.67
		c-1.21,31.38,5.34,53.25,12.9,82.66c19.69,76.53,15.13,82.95,12.42,85.53c-9.71,9.23-22.43-5.37-62.09-4.2
		c-32.29,0.95-42.39,11.17-69.3,4.68c-13.38-3.23-31.81-10.81-31.53-18.63c0.16-4.41,6.19-6.73,11.04-10.03
		c10.18-6.93,15.24-18.27,22.34-61.73c1.99-12.16,7.24-45.8,15.22-82.15c2.82-12.85,5.22-22.56,13.04-26.22
		c10.1-4.73,20.02,6.4,41.26,9.01c15.36,1.89,25.75,1.83,35.05,1.57C596.37,675.94,597.07,681.75,596.73,690.67z"/>
	
		<linearGradient id="SVGID_00000127039328765978263050000003214918913684331960_" gradientUnits="userSpaceOnUse" x1="560.1706" y1="489.8338" x2="554.1169" y2="673.4592">
		<stop  offset="0" style="stop-color:#A6B2C7"/>
		<stop  offset="1" style="stop-color:#7595B6"/>
	</linearGradient>
	<path style="opacity:0.3;fill:url(#SVGID_00000127039328765978263050000003214918913684331960_);" d="M485.88,850.73
		c14.4-4.92,15.27-14.79,30.58-25.8c34.13-24.55,68.33-3.19,80.37-20.67c13.6-19.76-25.63-53.45-12.05-88.26
		c2.68-6.86,6.92-12.5,11.81-17.14c0.11,27.16,6.15,47.69,13.04,74.47c19.69,76.53,15.13,82.95,12.42,85.53
		c-9.71,9.23-22.43-5.37-62.09-4.2c-32.29,0.95-42.39,11.17-69.3,4.68c-5.93-1.43-12.85-3.72-18.69-6.5
		C476.64,852.92,481.31,852.3,485.88,850.73z"/>
	
		<linearGradient id="SVGID_00000119819824053391992010000013816647435896364176_" gradientUnits="userSpaceOnUse" x1="637.451" y1="409.8741" x2="641.4868" y2="541.0347">
		<stop  offset="0" style="stop-color:#95AFC7"/>
		<stop  offset="1" style="stop-color:#7595B6"/>
	</linearGradient>
	<path style="fill:url(#SVGID_00000119819824053391992010000013816647435896364176_);" d="M597.06,671.15
		c0,0,58.68,19.05,98.88-15.13l10.59,12.09c0,0-48.12,74.35-121.27,32.54L597.06,671.15z"/>
	
		<linearGradient id="SVGID_00000106119123006607617590000008756640822454413752_" gradientUnits="userSpaceOnUse" x1="-610.5165" y1="635.7155" x2="-607.6497" y2="686.601" gradientTransform="matrix(-1 0 0 1 -46.6296 0)">
		<stop  offset="0" style="stop-color:#CBAF85"/>
		<stop  offset="1" style="stop-color:#BA7C44"/>
	</linearGradient>
	<path style="fill:url(#SVGID_00000106119123006607617590000008756640822454413752_);" d="M568.4,646.48l1.53,11.03
		c0.8,5.73,4.98,10.41,10.58,11.85l9.29,2.38c0,0-32.87,13.43-55.33-9.78l9.89,0.34c6.75,0.23,12.74-4.31,14.34-10.88l1.1-4.52
		L568.4,646.48z"/>
	
		<linearGradient id="SVGID_00000130644283636731652820000000983547644455305882_" gradientUnits="userSpaceOnUse" x1="-767.11" y1="668.7947" x2="-745.9586" y2="640.1465" gradientTransform="matrix(-1 0 0 1 -46.6296 0)">
		<stop  offset="0" style="stop-color:#CBAF85"/>
		<stop  offset="1" style="stop-color:#BA7C44"/>
	</linearGradient>
	<path style="fill:url(#SVGID_00000130644283636731652820000000983547644455305882_);" d="M695.95,656.02c0,0,1.5-13.95,19.17-9.54
		c17.68,4.4,3.82,1.68-1.91,9.97c-5.73,8.29-6.68,11.66-6.68,11.66S693.45,661.89,695.95,656.02z"/>
	
		<linearGradient id="SVGID_00000036965488518153688910000015648015915723997881_" gradientUnits="userSpaceOnUse" x1="479.6436" y1="414.7294" x2="483.6793" y2="545.8906">
		<stop  offset="0" style="stop-color:#95AFC7"/>
		<stop  offset="1" style="stop-color:#7595B6"/>
	</linearGradient>
	<path style="fill:url(#SVGID_00000036965488518153688910000015648015915723997881_);" d="M450.13,791.81c0,0,13-118.6,70.63-131.24
		l9.19,52.83c0,0-46.88,19.82-65.88,78.4H450.13z"/>
	
		<linearGradient id="SVGID_00000064336329430038399960000006215958738026333360_" gradientUnits="userSpaceOnUse" x1="-2112.2134" y1="510.8666" x2="-2157.8389" y2="637.097" gradientTransform="matrix(-0.8772 0.4802 0.4802 0.8772 -1554.0048 1115.8915)">
		<stop  offset="0" style="stop-color:#3B3138"/>
		<stop  offset="1" style="stop-color:#241F21"/>
	</linearGradient>
	<path style="fill:url(#SVGID_00000064336329430038399960000006215958738026333360_);" d="M563.3,652.14
		c-2.86-0.85-11.27-6.03-12.63-13.88c-0.93-5.35,2.3-7.75,0.89-13.27c-1.6-6.27-6.52-6.12-10.1-12.47
		c-4.18-7.41-3.6-18.46,1.4-25.04c4.03-5.3,7.65-3.39,14.81-10.32c6.33-6.13,5.09-9.16,9.35-12.15c8.3-5.81,16.82,3.02,30.4,1.82
		c18.86-1.66,21.07-20.34,35.64-19.51c13.4,0.76,27.73,17.47,28.24,31.67c0.21,5.69-1.78,8.43,0.22,13.67
		c3.06,8.05,10.6,7.08,15.44,15.33c3.66,6.24,4.72,15.99,0.35,21.1c-5.12,6-13.74,1.02-18.87,6.89c-5.53,6.33,1.74,15.22-3.65,21.96
		c-5.09,6.36-16.94,5.55-23.69,4.28c-8.13-1.54-15.76-5.01-23.67-7.45C592.74,650.26,577.74,656.44,563.3,652.14z"/>
</g>
</svg>
