<?xml version="1.0" encoding="utf-8"?>
<!-- Generator: Adobe Illustrator 26.0.2, SVG Export Plug-In . SVG Version: 6.00 Build 0)  -->
<svg version="1.1" id="Layer_1" xmlns="http://www.w3.org/2000/svg" xmlns:xlink="http://www.w3.org/1999/xlink" x="0px" y="0px"
	 viewBox="0 0 1000 1000" style="enable-background:new 0 0 1000 1000;" xml:space="preserve">
<style type="text/css">
	.st0{fill:url(#SVGID_1_);}
	.st1{fill:#DAEBE8;}
	.st2{fill:#EF8062;}
	.st3{fill:#66C1ED;}
	.st4{fill:#EC865C;}
	.st5{fill:url(#SVGID_00000016050384235460052170000017115720978789108380_);}
	.st6{fill:#B0742A;}
	.st7{fill:url(#SVGID_00000097469603493990911030000008342026202204680332_);}
	.st8{fill:url(#SVGID_00000127025233287214934540000002382079375094238085_);}
	.st9{fill:#FFFFFF;}
	.st10{fill:#080435;}
	.st11{fill:url(#SVGID_00000078757012670654129350000013515442782356822958_);}
	.st12{fill:#74C809;}
	.st13{fill:#006C26;}
	.st14{fill:#754C24;}
	.st15{fill:url(#SVGID_00000068677772640274748710000015023940736598129580_);}
	.st16{fill:url(#SVGID_00000145024224610428098250000003913622433089189527_);}
	.st17{fill:#603813;}
	.st18{fill:url(#SVGID_00000182499885593120429070000000541094537965978251_);}
	.st19{fill:url(#SVGID_00000111898472136753789160000008055299357658090685_);}
	.st20{fill:url(#SVGID_00000153693595714562243010000003851654458137669265_);}
	.st21{fill:#42210B;}
	.st22{fill:url(#SVGID_00000127756262338935652560000006763927232450188938_);}
	.st23{fill:url(#SVGID_00000055700946266290972080000006805501716227003552_);}
	.st24{fill:url(#SVGID_00000057848293656614727320000014917663454696629921_);}
	.st25{fill:url(#SVGID_00000068671544312312265340000012753226199685330588_);}
	.st26{fill:url(#SVGID_00000127731594463775395590000013621439531269184446_);}
	.st27{fill:url(#SVGID_00000067952772870836216080000005309231793717448322_);}
	.st28{fill:url(#SVGID_00000038413040064939243780000004865624809681523863_);}
	.st29{fill:url(#SVGID_00000175297974706622811150000009198836115178367131_);}
	.st30{fill:url(#SVGID_00000031916632112778919090000005759663462775807414_);}
	.st31{fill:url(#SVGID_00000056417943313812487560000016360492036346610857_);}
	.st32{fill:url(#SVGID_00000121267500539135557010000009075949867618810754_);}
	.st33{fill:url(#SVGID_00000096048097664050728660000008210018003126445703_);}
	.st34{fill:url(#SVGID_00000142175742268616920090000018233514881660647062_);}
	.st35{fill:url(#SVGID_00000130648113596819005830000004239924515008887175_);}
	.st36{fill:url(#SVGID_00000048485696375261935460000009612258931218571164_);}
	.st37{fill:url(#SVGID_00000158002936314829268390000002235281987593551748_);}
	.st38{fill:url(#SVGID_00000042704656335725983320000007212712423057349055_);}
	.st39{fill:url(#SVGID_00000024710063719495687450000003497718228583482011_);}
	.st40{fill:#FCF3CC;}
	.st41{fill:#E1B354;}
</style>
<g>
	<linearGradient id="SVGID_1_" gradientUnits="userSpaceOnUse" x1="-65.2513" y1="963.855" x2="1328.806" y2="713.6799">
		<stop  offset="0" style="stop-color:#A26B2E"/>
		<stop  offset="0.1" style="stop-color:#B6802E"/>
		<stop  offset="0.25" style="stop-color:#E3AB2C"/>
		<stop  offset="0.39" style="stop-color:#FFF6AF"/>
		<stop  offset="0.45" style="stop-color:#DDA62C"/>
		<stop  offset="0.65" style="stop-color:#B0742A"/>
		<stop  offset="0.75" style="stop-color:#9C5B27"/>
		<stop  offset="0.91" style="stop-color:#F2BA2D"/>
		<stop  offset="1" style="stop-color:#FFF1B5"/>
	</linearGradient>
	<ellipse class="st0" cx="500.26" cy="862.37" rx="479.58" ry="87.77"/>
</g>
<g>
	<path class="st1" d="M820.67,916.36c0.04-0.05,0.06-0.09,0.08-0.11c0.01-0.02,0.01-0.02,0.02-0.03l0.01,0.01v-0.01h0.2
		C824.52,916.31,824.62,916.36,820.67,916.36z"/>
</g>
<g>
	<g>
		<g>
			<g>
				<path d="M885.86,825.08c-2.04,1.4-4.16,2.81-6.37,4.23c-25.37,16.3-92.76,7.58-82.81,34.09l-93.75,5.58l-483.16-45.66
					c-76.77,0-142.77-43.41-94.26-102.92c9.56-11.73,10.48-23.02-2.59-33.91C42.9,619.77,41.34,536.1,215.48,527.93
					c51.87-2.44,28.96-46.66,8.97-67.23c-38.14-39.26,26.76-89.66,26.76-89.66s289-19.96,289-19.97
					c0.23,0.01,126.76,19.78,127.08,21.22c32.52,145.97,302,167.63,162.02,256.94C748.45,680.84,1030.61,725.74,885.86,825.08z"/>
			</g>
		</g>
		<g>
			<g>
				<path class="st2" d="M907.4,934.15c0.06-0.07,0.09-0.13,0.11-0.15c0.01-0.02,0.02-0.03,0.02-0.05l0.01,0.01v-0.02h0.28
					C912.77,934.08,912.92,934.15,907.4,934.15z"/>
			</g>
			<g>
				<path class="st3" d="M874,868.97H228.22c-19.47,0-29.62-23.22-16.36-37.47c43.21-46.43,117.76-98.25,244.09-123.33h0.01
					c92.84-4.45,161.02,8,161.04,8c134.88,21.17,218.02,65.63,268.87,108.9c1.18,1,2.34,2.01,3.49,3.01
					C905.56,842.28,895.55,868.97,874,868.97z"/>
			</g>
		</g>
		<g>
			<g>
				<path d="M628.57,437.54c0,0-5.34,22.83,7.86,69.57c19.32,68.39-58.83,97.09-78.87,77.6c-2.48-2.41,0.59-118.8,0.59-118.8
					l24.97-14.89L628.57,437.54z"/>
			</g>
		</g>
		<g>
			<g>
				<path d="M533.11,440.38c0,0,62.89,66.07,41.24,133.75c0,0,36.34-39.84,37.12-54.69c0.78-14.85-8.99-68.46-8.99-68.46
					L533.11,440.38z"/>
			</g>
		</g>
		<g>
			<g>
				<path class="st4" d="M553.08,519.78c-1.21-0.19-2.12-1.22-2.13-2.48c-0.01-1.38,1.11-2.52,2.5-2.52
					c0.16,0,15.86-0.22,22.97-9.28c0.85-1.1,2.43-1.28,3.53-0.43c1.09,0.86,1.28,2.44,0.42,3.54c-8.62,10.99-26.15,11.2-26.9,11.21
					C553.34,519.81,553.2,519.8,553.08,519.78z"/>
			</g>
		</g>
		<g>
			<g>
				
					<linearGradient id="SVGID_00000011023329354191315670000005558105601327137208_" gradientUnits="userSpaceOnUse" x1="198.516" y1="422.1606" x2="558.4902" y2="692.1413">
					<stop  offset="0" style="stop-color:#CBAF85"/>
					<stop  offset="1" style="stop-color:#BA7C44"/>
				</linearGradient>
				<path style="fill:url(#SVGID_00000011023329354191315670000005558105601327137208_);" d="M616.99,716.18
					c-21.04-5.82-38.39-10.84-49.24-35.91l-26.26-94.83l-12.03,9.32l-58-134.06l10.26,139.02l6.17,83.44c0,0,2.23,22.17-31.95,25.01
					c0,0-34.16,65.09,8.79,76.8C534.74,804.07,617.13,716.22,616.99,716.18z"/>
			</g>
		</g>
		<g>
			<g>
				<path class="st6" d="M539.47,615.26c-0.02,0.77-0.07,1.53-0.14,2.3c-3.23,44.83-51.14,65.85-51.14,65.85l-0.29-0.25l-6.17-83.44
					c14.65-5.4,35.51-10.95,47.74-4.96C535.85,597.9,539.88,604.17,539.47,615.26z"/>
			</g>
		</g>
		<g>
			<g>
				
					<linearGradient id="SVGID_00000165222122305317264500000006241244907217427861_" gradientUnits="userSpaceOnUse" x1="265.2368" y1="333.1995" x2="625.2111" y2="603.1801">
					<stop  offset="0" style="stop-color:#CBAF85"/>
					<stop  offset="1" style="stop-color:#BA7C44"/>
				</linearGradient>
				<path style="fill:url(#SVGID_00000165222122305317264500000006241244907217427861_);" d="M595.83,482.72
					c0.01,3.67-0.09,7.32-0.28,10.93c-0.12,2.29-0.27,4.56-0.47,6.82c-2.16,24.83-8.89,47.97-19.14,68.11c0,0,0,0.01-0.01,0.01
					c-3.6,7.08-7.63,13.78-12.06,20.06c-4.91,6.99-10.32,13.46-16.14,19.31c-2.67,2.69-5.43,5.25-8.27,7.67
					c-15.97,13.63-34.52,22.98-54.58,26.7c-6.32,1.17-12.8,1.78-19.39,1.8c-38.64,0.06-73.4-20.56-97.38-53.43
					c-7.76-10.63-14.39-22.54-19.66-35.46c-8.84-21.67-13.84-46.14-13.88-72.04c-0.06-30.39,6.71-58.84,18.53-83.12
					c1.35-2.76,2.76-5.48,4.23-8.12c8.78-15.83,19.79-29.62,32.49-40.69c24.16-0.97,50.13-1.5,77.18-1.5
					c14.36,0,28.42,0.15,42.06,0.43c10.67,0.22,21.09,0.53,31.2,0.91c14.96,13,27.62,29.76,37.06,49.19
					c7.1,14.61,12.38,30.73,15.45,47.87c0.09,0.46,0.17,0.91,0.24,1.37v0.01c0.04,0.22,0.08,0.44,0.12,0.65
					C594.87,460.7,595.81,471.57,595.83,482.72z"/>
			</g>
		</g>
		<g>
			<g>
				
					<linearGradient id="SVGID_00000047037168735835347890000012290269699591979709_" gradientUnits="userSpaceOnUse" x1="304.8704" y1="280.3548" x2="664.8446" y2="550.3354">
					<stop  offset="0" style="stop-color:#CBAF85"/>
					<stop  offset="1" style="stop-color:#BA7C44"/>
				</linearGradient>
				<path style="fill:url(#SVGID_00000047037168735835347890000012290269699591979709_);" d="M589.13,501.27
					c-14.77,14.16-35.46,15.64-46.21,3.32c-10.75-12.32-7.49-33.79,7.29-47.94c14.77-14.16,35.46-15.64,46.21-3.32
					C607.16,465.65,603.9,487.11,589.13,501.27z"/>
			</g>
		</g>
		<g>
			<g>
				<path class="st9" d="M398.09,579.5c0,0,42.17,8.32,89.22-14.8c0,0-5.34,38.66-43.24,41.37
					C411.87,608.36,398.09,579.5,398.09,579.5z"/>
			</g>
		</g>
		<g>
			<g>
				<g>
					<path class="st10" d="M468.54,484.53c-0.87-0.24-1.62-0.86-1.99-1.76c-0.61-1.52,0.12-3.25,1.64-3.86
						c0.89-0.36,20.82-10.65,38.4,8.42c1.06,1.15,1.19,2.97,0.13,4.13c-1.2,1.31-2.93,1.01-4.35,0.06
						c-13.66-9.15-31.21-7.39-31.96-7.1C469.8,484.67,469.14,484.69,468.54,484.53z"/>
				</g>
			</g>
		</g>
		<g>
			<g>
				<g>
					<path class="st10" d="M346.52,500.21c-0.89,0.11-1.83-0.18-2.51-0.87c-1.14-1.17-1.13-3.05,0.05-4.2
						c0.69-0.67,15.19-17.78,38.72-6.84c1.42,0.66,2.23,2.3,1.7,3.77c-0.6,1.67-2.32,2.05-4,1.71c-16.12-3.25-31.68,5.05-32.25,5.61
						C347.74,499.86,347.14,500.13,346.52,500.21z"/>
				</g>
			</g>
		</g>
		<g>
			<g>
				<path class="st10" d="M459.93,524.74c-7.17-1.11-11.01-4.2-11.32-4.47c-1.73-1.44-1.96-4.01-0.52-5.73
					c1.44-1.72,3.97-1.97,5.7-0.55c0.55,0.43,11.98,8.95,34.89-4.64c1.93-1.13,4.41-0.5,5.58,1.42c1.15,1.94,0.51,4.44-1.43,5.58
					C478.42,524.9,467.38,525.89,459.93,524.74z"/>
			</g>
		</g>
		<g>
			<g>
				<path class="st10" d="M369.38,535.71c-7.17-1.11-11.01-4.2-11.32-4.47c-1.73-1.44-1.96-4.01-0.52-5.73
					c1.43-1.72,3.96-1.99,5.7-0.54c0.58,0.45,12.02,8.93,34.89-4.64c1.92-1.13,4.41-0.5,5.58,1.42c1.15,1.94,0.51,4.44-1.43,5.58
					C387.87,535.87,376.83,536.86,369.38,535.71z"/>
			</g>
		</g>
	</g>
	<g>
		<path d="M404.27,411.37c0,0,19.7,54.77,87.24,49.33c67.54-5.44,113.4,15.43,101.42,56.26c-11.97,40.83,56.78-87.6,56.78-87.6
			l-38.21-46.77H330.23l-25.9,101.49c0,0,60.44-13.25,69.8-43.7C383.47,409.93,404.27,411.37,404.27,411.37z"/>
	</g>
	<g>
		
			<linearGradient id="SVGID_00000011715532981978325430000004570157521158018706_" gradientUnits="userSpaceOnUse" x1="206.6806" y1="397.6433" x2="664.6478" y2="351.6466">
			<stop  offset="0" style="stop-color:#A26B2E"/>
			<stop  offset="0.1" style="stop-color:#B6802E"/>
			<stop  offset="0.25" style="stop-color:#E3AB2C"/>
			<stop  offset="0.39" style="stop-color:#FFF6AF"/>
			<stop  offset="0.45" style="stop-color:#DDA62C"/>
			<stop  offset="0.65" style="stop-color:#B0742A"/>
			<stop  offset="0.75" style="stop-color:#9C5B27"/>
			<stop  offset="0.91" style="stop-color:#F2BA2D"/>
			<stop  offset="1" style="stop-color:#FFF1B5"/>
		</linearGradient>
		<path style="fill:url(#SVGID_00000011715532981978325430000004570157521158018706_);" d="M667.3,372.29L667.3,372.29
			c-0.02,10.25-44.52,19.15-109.95,23.68c-0.21,0.01-0.42,0.03-0.63,0.04c-29.1,1.99-62.3,3.13-97.58,3.13
			c-26.17,0-51.21-0.63-74.28-1.76c-0.1-0.01-0.2-0.01-0.29-0.01c-7.15-0.36-14.12-0.76-20.87-1.21c-0.08-0.01-0.15-0.01-0.23-0.01
			c-1.92-0.13-3.83-0.27-5.72-0.4c-0.07-0.01-0.15-0.01-0.22-0.01c-5.15-0.38-10.18-0.78-15.05-1.2c-0.05-0.01-0.1-0.01-0.15-0.01
			c-55.04-4.82-91.22-12.96-91.33-22.18v-0.04c0-0.23,0.03-0.46,0.07-0.69c0-0.01,0-0.01,0.01-0.02c0.04-0.18,0.08-0.36,0.15-0.53
			c0.06-0.18,0.14-0.35,0.23-0.53c0.09-0.17,0.19-0.35,0.31-0.53c0.06-0.09,0.12-0.18,0.19-0.27c0.13-0.17,0.27-0.35,0.43-0.53
			c0.38-0.43,0.85-0.86,1.4-1.3c0.22-0.17,0.44-0.34,0.68-0.51c0.01,0,0.01,0,0.01,0c0.24-0.17,0.5-0.34,0.76-0.51
			c0.01,0,0.01,0,0.01,0c14.74-9.29,66.7-16.84,134.91-19.93c0.1-0.01,0.2-0.01,0.31-0.01c16.13-0.73,33.17-1.21,50.84-1.4
			c5.89-0.06,11.84-0.09,17.87-0.09c4.63,0,9.24,0.02,13.79,0.06c8.02,0.06,15.9,0.19,23.64,0.37c9.29,0.22,18.36,0.52,27.17,0.89
			c0.2,0.01,0.4,0.01,0.61,0.02c72.74,3.09,127.74,11.22,140.25,21.18c0.14,0.12,0.27,0.22,0.4,0.35c1.39,1.19,2.15,2.41,2.26,3.66
			C667.29,372.07,667.3,372.18,667.3,372.29z"/>
	</g>
</g>
<g>
	<g>
		<path class="st12" d="M321.86,390.31c-0.41,0.37-0.85,0.72-1.31,1.04c-0.42,0.3-0.85,0.58-1.3,0.82
			c-3.64-0.43-7.17-0.87-10.57-1.33c-0.88-4.89-2.59-10.29-4.85-16.02c-0.46-1.15-0.93-2.31-1.43-3.49
			c-2.12-5-4.62-10.22-7.34-15.56c-4.19-8.25-8.91-16.78-13.58-25.23c-19.74-35.65-38.7-69.77-13.96-74.09
			c25.97-4.53,44.1,53.31,53.81,95.72c1.64,7.15,3.04,13.86,4.19,19.76c0.34,1.69,0.64,3.31,0.94,4.86
			C327.46,382.07,325.48,387.07,321.86,390.31z"/>
	</g>
</g>
<g>
	<g>
		<g>
			<path class="st13" d="M325.7,372.1c-0.05-0.06-0.11-0.11-0.17-0.17c-5.29-5.38-11.46-11.5-18.28-18
				c-7.86-7.49-16.56-15.48-25.76-23.4c-12.56-10.81-26.02-21.49-39.51-30.64h-0.01c-1.18-0.8-2.36-1.59-3.54-2.37h-0.01
				c-1.16-0.76-2.32-1.52-3.48-2.25c-29.79-18.95-58.8-29.03-77.04-14.67c-35.78,28.16,36.88,56.48,96.9,86.56
				c3.81,1.91,7.58,3.83,11.26,5.76c0.74,0.39,1.48,0.77,2.21,1.16c0.74,0.39,1.48,0.78,2.2,1.17c8.16,4.37,15.82,8.77,22.66,13.22
				c4.84,0.83,10.03,1.61,15.56,2.36c3.4,0.46,6.92,0.9,10.57,1.33c0.76,0.09,1.52,0.18,2.29,0.27h0.01
				c0.82,0.09,1.64,0.19,2.47,0.27c2.13,0.24,4.3,0.47,6.5,0.69C332.95,386.32,331.54,378.04,325.7,372.1z"/>
		</g>
	</g>
	<g>
		<g>
			<g>
				<path class="st12" d="M321.86,390.31c0.73,0.79,1.45,1.6,2.16,2.4c-0.83-0.09-1.65-0.18-2.47-0.27h-0.01
					c-0.33-0.37-0.66-0.72-0.99-1.09c-5.24-5.75-10.87-11.26-16.72-16.53c-6.63-5.97-13.56-11.62-20.54-16.9
					c-8.23-6.23-16.55-11.97-24.56-17.15c-7.95-5.14-15.61-9.74-22.61-13.72c-30.6-17.44-55.45-27.4-55.69-27.5l0.65-1.51
					c0.25,0.1,25.21,10.11,55.9,27.6c6.44,3.67,13.44,7.85,20.71,12.5c9.01,5.76,18.44,12.23,27.75,19.34
					c5.74,4.38,11.44,9.01,16.95,13.84v0.01l0.01,0.01C309.24,377.34,315.79,383.66,321.86,390.31z"/>
			</g>
		</g>
	</g>
</g>
<g>
	<g>
		<path class="st12" d="M248.28,283.36c-2.71-3.71-4.84-3.9-6.47-2.77c-1.63,1.13-2.15,3.15,0.56,6.86
			c4.94,6.76,10.28,7.98,10.28,7.98S253.29,290.22,248.28,283.36z"/>
	</g>
</g>
<g>
	<g>
		<path class="st12" d="M345.03,345.64c1.77-10.58-0.96-14.31-4.97-15.02c-4.01-0.72-7.8,1.85-9.57,12.43
			c-3.22,19.27,2.49,29.89,2.49,29.89S341.76,365.19,345.03,345.64z"/>
	</g>
</g>
<g>
	<g>
		<g>
			<path class="st13" d="M244.01,252.62c3.74-10.26,1.56-14.61-2.5-16.21s-8.47,0.15-12.21,10.42c-6.82,18.69-2.76,30.63-2.76,30.63
				S237.1,271.58,244.01,252.62z"/>
		</g>
	</g>
	<g>
		<g>
			<path class="st12" d="M271.12,381.65c0.05,0.8-0.39,1.52-1.05,1.88c-0.92-0.26-1.82-0.52-2.68-0.78
				c-0.14-0.25-0.23-0.54-0.25-0.84c-0.18-2.82-0.54-5.82-1.08-8.98c-0.55-3.15-1.27-6.47-2.17-9.96c-1.9-7.32-4.6-15.37-8.06-24.06
				c-0.35-0.87-0.7-1.74-1.06-2.63c-5.1-12.43-11.73-26.16-19.82-41.02c-4.77-8.76-10.05-17.91-15.82-27.43
				c-14.06-23.2-28.05-43.57-36.66-55.71c-5.21-7.36-8.45-11.69-8.54-11.8c-0.06-0.08-0.11-0.16-0.15-0.24
				c-0.44-0.78-0.29-1.78,0.37-2.4c0.06-0.05,0.12-0.11,0.18-0.15c0.88-0.66,2.13-0.48,2.79,0.4c0.08,0.1,2.72,3.63,7.06,9.72
				c0.39,0.54,0.79,1.11,1.21,1.7c2.78,3.93,6.15,8.74,9.93,14.26c7.9,11.55,17.54,26.19,27.21,42.15c0.98,1.62,1.95,3.23,2.9,4.82
				c1.08,1.81,2.14,3.6,3.18,5.38c4.86,8.31,9.32,16.28,13.35,23.91h0.01c7.74,14.63,13.96,28.03,18.64,40.14
				c0.35,0.88,0.68,1.76,1,2.63c2.54,6.77,4.57,13.13,6.1,19.07c1.24,4.78,2.16,9.3,2.75,13.53
				C270.77,377.46,270.98,379.6,271.12,381.65z"/>
		</g>
	</g>
	<g>
		<g>
			<g>
				<path class="st9" d="M159.58,239.73c-3.97,12.24-1.22,17.27,3.63,18.98c4.85,1.71,9.96-0.54,13.94-12.77
					c7.24-22.29,1.95-36.17,1.95-36.17S166.93,217.11,159.58,239.73z"/>
			</g>
		</g>
		<g>
			<g>
				<path class="st9" d="M140.4,192.14c-11.41-5.95-12.97-11.46-10.71-16.08c2.26-4.62,7.49-6.6,18.89-0.65
					c20.78,10.83,26.73,24.44,26.73,24.44S161.48,203.13,140.4,192.14z"/>
			</g>
		</g>
		<g>
			<g>
				<path class="st9" d="M170.17,164.33c0.32-12.86,4.59-16.69,9.73-16.69c5.14,0,9.22,3.82,8.89,16.68
					c-0.59,23.43-10.19,34.76-10.19,34.76S169.57,188.1,170.17,164.33z"/>
			</g>
		</g>
		<g>
			<g>
				<path class="st9" d="M207.16,175.64c11.03-6.62,16.55-5.07,19.31-0.73c2.76,4.34,1.72,9.83-9.32,16.45
					c-20.1,12.06-34.8,10.03-34.8,10.03S186.77,187.87,207.16,175.64z"/>
			</g>
		</g>
		<g>
			<g>
				<path class="st9" d="M216.81,215.48c11.45,5.87,13.05,11.38,10.82,16.01c-2.23,4.64-7.44,6.65-18.89,0.78
					c-20.85-10.7-26.9-24.26-26.9-24.26S195.65,204.62,216.81,215.48z"/>
			</g>
		</g>
		<g>
			<g>
				<path class="st9" d="M139.49,209.66c-11.86,4.98-13.88,10.34-12.01,15.13c1.87,4.79,6.91,7.2,18.77,2.22
					c21.61-9.06,28.68-22.12,28.68-22.12S161.41,200.46,139.49,209.66z"/>
			</g>
		</g>
		<g>
			<g>
				
					<ellipse transform="matrix(0.8215 -0.5701 0.5701 0.8215 -84.8838 138.0892)" class="st14" cx="178.15" cy="204.64" rx="8.64" ry="8.64"/>
			</g>
		</g>
	</g>
</g>
<g>
	<g>
		<g>
			<path class="st13" d="M715.43,240.38c8.84-13.49,15.91-14.75,21.39-11.35c5.48,3.39,7.3,10.16-1.54,23.64
				c-16.1,24.57-33.81,30.3-33.81,30.3S699.09,265.31,715.43,240.38z"/>
		</g>
	</g>
	<g>
		<g>
			<path class="st13" d="M726.13,307.13c6.78,10.94,5.31,16.48,1,19.3c-4.3,2.82-9.8,1.86-16.58-9.08
				c-12.35-19.92-10.52-34.66-10.52-34.66S713.6,286.92,726.13,307.13z"/>
		</g>
	</g>
	<g>
		<g>
			<path class="st12" d="M753.57,293.87c-0.65,0.88-1.9,1.07-2.78,0.42c-0.07-0.05-1.97-1.41-5.3-3.17
				c-6.23-3.28-17.47-7.92-31.22-7.92c-3.48,0-7.11,0.3-10.87,1c-1.14,0.21-2.3,0.45-3.46,0.74c-1.47,0.35-2.94,0.77-4.44,1.26
				c-14.49,4.75-28.04,15.08-40.27,30.69c-8.52,10.88-16.43,24.37-23.68,40.34c-4.45,9.82-8.65,20.59-12.58,32.26
				c-0.73,0.11-1.47,0.22-2.21,0.33h-0.01c-0.72,0.11-1.46,0.22-2.2,0.32c4.03-12.17,8.37-23.4,12.97-33.65
				c7.49-16.69,15.72-30.77,24.6-42.1c12.73-16.24,26.94-27.01,42.2-32c2.39-0.78,4.73-1.4,7.03-1.87c2.49-0.52,4.92-0.88,7.3-1.1
				c17.47-1.6,31.69,4.31,39.05,8.3c3.25,1.76,5.16,3.14,5.44,3.35C754.04,291.73,754.22,292.98,753.57,293.87z"/>
		</g>
	</g>
</g>
<g>
	<g>
		<g>
			<path class="st13" d="M366.92,281.01c9.72-12.87,8.52-19.95,3.48-23.97c-5.04-4.02-12.02-3.45-21.74,9.42
				c-17.7,23.44-17.13,42.04-17.13,42.04S348.96,304.79,366.92,281.01z"/>
		</g>
	</g>
	<g>
		<g>
			<path class="st13" d="M289.28,231.06c-12.51-3.02-17.31,0.11-18.64,5.08c-1.34,4.97,1.3,9.89,13.81,12.91
				c22.78,5.5,36.21-0.83,36.21-0.83S312.39,236.64,289.28,231.06z"/>
		</g>
	</g>
	<g>
		<g>
			<path class="st12" d="M331.46,391.27c-0.68-0.05-1.36-0.11-2.03-0.16c-0.66-0.05-1.32-0.11-1.98-0.16
				c0.01-0.13,0.03-0.27,0.07-0.41c3.58-12.07,5.23-27.31,4.93-45.31v-0.12c-0.19-11.08-1.12-23.33-2.77-36.39l-0.11-0.89
				c-2.35-18.26-6.04-38.06-10.99-58.84c-0.01-0.08-0.03-0.16-0.05-0.24l-0.1-0.45c-0.27-1.13-0.54-2.23-0.8-3.32
				c-2.41-9.82-4.59-17.82-6.07-22.98c-0.01-0.05-0.03-0.09-0.04-0.14c-1.07-3.75-1.73-5.87-1.74-5.9
				c-0.33-1.05,0.25-2.17,1.31-2.49c1.05-0.33,2.17,0.25,2.49,1.31c0.03,0.09,0.7,2.24,1.81,6.13c0,0.01,0.01,0.02,0.01,0.03
				c1.65,5.77,4.19,15.04,6.92,26.44l0.1,0.44c4.36,18.29,7.76,35.83,10.13,52.26c0.35,2.44,0.68,4.85,0.99,7.24l0.07,0.56
				l0.04,0.32c1.67,13.18,2.61,25.53,2.8,36.72v0.12C336.74,363.31,335.08,378.86,331.46,391.27z"/>
		</g>
	</g>
</g>
<g>
	<g>
		<g>
			<path class="st13" d="M410.09,398.46c-0.21,0.01-0.41,0.01-0.62,0.02c-2.55,0.07-5.12,0.14-7.7,0.2
				c-0.47,0.01-0.95,0.03-1.42,0.04h-0.01c-0.21,0.01-0.43,0.01-0.64,0.01c-0.22,0.01-0.43,0.01-0.65,0.01
				c-1.52,0.03-3.03,0.07-4.55,0.09c-4.57,0.09-9.18,0.16-13.85,0.21c-3.66-12.01-9.11-22.74-15.33-32.35
				c-0.63-0.99-1.28-1.97-1.93-2.93v-0.01c-0.64-0.95-1.3-1.89-1.95-2.81v-0.01c-3.91-5.53-8.02-10.66-12.11-15.45
				c-16.4-19.21-32.44-32.77-33.73-43.24c-1.99-16.24,16.6-21.71,42.47-2.07c0.74,0.55,1.48,1.13,2.22,1.73
				c0.73,0.58,1.47,1.19,2.21,1.82c4.84,4.09,9.92,9.04,15.11,14.94c7.28,8.25,13,17.56,17.5,27.07
				c8.78,18.56,12.91,37.88,14.83,51.52C409.98,397.67,410.03,398.07,410.09,398.46z"/>
		</g>
	</g>
	<g>
		<g>
			<path class="st12" d="M400.33,398.72c-0.21,0.01-0.43,0.01-0.64,0.01c-0.22,0.01-0.43,0.01-0.65,0.01
				c-5.18-18.33-13.68-36.1-25.25-52.85c-0.02-0.02-0.03-0.04-0.05-0.06c-0.09-0.12-0.17-0.25-0.25-0.37h-0.01
				c-2.71-3.91-5.61-7.78-8.65-11.54c0-0.01,0-0.01,0-0.01c-0.9-1.12-1.81-2.22-2.72-3.31c-0.55-0.65-1.1-1.3-1.64-1.93
				c-15.44-17.92-29.18-27.66-29.32-27.76c-0.29-0.2-0.35-0.59-0.15-0.87c0.2-0.29,0.58-0.35,0.87-0.15
				c0.14,0.1,13.36,9.46,28.47,26.72c0.9,1.03,1.81,2.09,2.73,3.18c0.56,0.66,1.11,1.33,1.65,2c3.54,4.31,6.89,8.76,10,13.26
				c0.02,0.02,0.03,0.04,0.05,0.06c0.09,0.12,0.17,0.25,0.25,0.37c11.58,16.82,20.08,34.68,25.27,53.07
				C400.3,398.61,400.32,398.66,400.33,398.72z"/>
		</g>
	</g>
</g>
<g>
	<g>
		
			<radialGradient id="SVGID_00000032639202736011380090000015796931043191870644_" cx="496.0745" cy="75.5785" r="13.3761" gradientUnits="userSpaceOnUse">
			<stop  offset="0" style="stop-color:#EF9F8E"/>
			<stop  offset="0.0341" style="stop-color:#F2BA2D"/>
			<stop  offset="1" style="stop-color:#FF8C00"/>
		</radialGradient>
		<path style="fill:url(#SVGID_00000032639202736011380090000015796931043191870644_);" d="M492.32,67.37
			c4.35-7.8,8.13-8.73,11.18-7.03s4.24,5.41-0.12,13.21c-7.93,14.21-17.3,17.98-17.3,17.98S484.27,81.78,492.32,67.37z"/>
	</g>
</g>
<g>
	<g>
		
			<linearGradient id="SVGID_00000051384825802283635100000001925514343324978879_" gradientUnits="userSpaceOnUse" x1="604.5814" y1="80.203" x2="635.1505" y2="80.203">
			<stop  offset="0" style="stop-color:#EF9F8E"/>
			<stop  offset="1" style="stop-color:#ED1E79"/>
		</linearGradient>
		<path style="fill:url(#SVGID_00000051384825802283635100000001925514343324978879_);" d="M620.39,72.08
			c7.34-5.68,11.33-5.04,13.56-2.16c2.23,2.88,1.85,6.9-5.49,12.59c-13.38,10.36-23.88,10.15-23.88,10.15S606.82,82.58,620.39,72.08
			z"/>
	</g>
</g>
<g>
	<g>
		<path class="st13" d="M728.43,370.87c10.13,9.65,10.08,15.73,6.3,19.7c-3.78,3.97-9.86,4.32-19.99-5.33
			c-18.45-17.57-20.53-33.25-20.53-33.25S709.7,353.04,728.43,370.87z"/>
	</g>
</g>
<g>
	<g>
		<path class="st12" d="M180.95,103.88c-8.3-6.78-8.62-11.44-5.96-14.69c2.66-3.25,7.28-3.87,15.58,2.91
			c15.12,12.35,17.62,24.22,17.62,24.22S196.29,116.42,180.95,103.88z"/>
	</g>
</g>
<g>
	<g>
		<path class="st9" d="M236.72,118.87c2.9-10.32,7.05-12.47,11.09-11.33c4.04,1.14,6.46,5.13,3.56,15.45
			c-5.29,18.8-15.17,25.82-15.17,25.82S231.36,137.94,236.72,118.87z"/>
	</g>
</g>
<g>
	<path class="st17" d="M295.84,470.65c-6.99,0-14.38-1.14-22.02-3.77c-0.52-0.18-0.8-0.75-0.62-1.27c0.18-0.52,0.76-0.8,1.27-0.62
		c36.03,12.43,66.25-9.34,73.06-25.02c7.16-16.49,22.12-31.5,22.27-31.65c0.39-0.38,1.02-0.38,1.41,0c0.39,0.39,0.39,1.02,0,1.41
		c-0.15,0.15-14.84,14.9-21.86,31.04C343.73,453.71,322.82,470.65,295.84,470.65z"/>
</g>
<g>
	<path class="st17" d="M845.72,747.84c-0.34,0-0.68-0.21-0.81-0.55c-12.81-31.35-33.82-38.91-60.41-48.48
		c-11.7-4.2-24.95-8.97-39.11-16.33c-13.23-6.87-19.32-15.45-18.1-25.5c2.57-21.23,38.71-43.83,70.84-51.64
		c14.88-3.61,23.37-12.09,23.27-23.27c-0.16-18.76-24.35-44.35-77.09-56.23c-23.02-5.19-40.41-28.89-50.94-47.87
		c-11.36-20.47-17.41-39.98-17.47-40.17c-0.14-0.47,0.12-0.96,0.58-1.1c0.45-0.15,0.95,0.11,1.1,0.58
		c0.24,0.78,24.16,77.18,67.1,86.85c53.68,12.08,78.3,38.5,78.46,57.93c0.1,12.06-8.87,21.17-24.61,25
		c-31.57,7.67-67.04,29.64-69.52,50.14c-1.12,9.26,4.66,17.24,17.17,23.74c14.06,7.3,27.25,12.04,38.89,16.23
		c27.01,9.71,48.34,17.38,61.44,49.46c0.19,0.45-0.03,0.96-0.48,1.14C845.94,747.81,845.83,747.84,845.72,747.84z"/>
</g>
<g>
	<path class="st17" d="M173.53,779.45c-0.4,0-0.77-0.24-0.93-0.63c-12.94-32.74,16.02-48.6,41.58-62.59
		c16.55-9.05,32.17-17.61,34.25-29.45c1.14-6.52-1.85-13.72-9.14-21.97c-14.42-16.34-19.82-26.79-17.5-33.88
		c2.71-8.26,15.08-10.95,32.19-14.66c12.69-2.76,28.47-6.18,43.69-12.97c9.48-4.23,15.47-11,17.8-20.13
		c8.31-32.48-31.34-85.11-31.74-85.64c-0.33-0.44-0.25-1.07,0.19-1.4c0.44-0.33,1.07-0.24,1.4,0.19
		c1.66,2.18,40.64,53.92,32.09,87.34c-2.5,9.75-8.86,16.97-18.93,21.45c-15.4,6.87-31.3,10.32-44.08,13.1
		c-15.85,3.44-28.36,6.16-30.72,13.33c-2.05,6.26,3.38,16.41,17.1,31.93c7.72,8.75,10.87,16.48,9.61,23.64
		c-2.24,12.79-18.28,21.57-35.25,30.87c-26.04,14.25-52.97,29-40.68,60.1c0.21,0.52-0.05,1.09-0.56,1.29
		C173.77,779.44,173.65,779.45,173.53,779.45z"/>
</g>
<g>
	<path class="st17" d="M719.22,673.9c-0.01,0-0.02,0-0.03,0c-4.3-0.12-105.61-3.55-124.64-43.57
		c-10.77-22.65,16.73-37.84,36.8-48.93c10.58-5.84,20.58-11.36,20.36-15.64c-0.1-1.94-2.41-3.89-6.88-5.78
		c-18.79-7.96-26.1-19.25-28.93-27.31c-3.09-8.8-1.69-15.62-1.63-15.91c0.12-0.54,0.66-0.89,1.2-0.78c0.54,0.11,0.89,0.65,0.78,1.2
		c-0.01,0.06-1.34,6.64,1.6,14.92c3.89,10.97,13.49,19.97,27.78,26.03c5.31,2.25,7.96,4.72,8.11,7.53
		c0.28,5.54-9.28,10.82-21.4,17.51c-20.45,11.3-45.91,25.37-35.96,46.29c18.5,38.92,121.84,42.4,122.88,42.44
		c0.55,0.02,0.99,0.48,0.98,1.03C720.21,673.47,719.76,673.9,719.22,673.9z"/>
</g>
<linearGradient id="SVGID_00000087405791504719221950000010406502627045148309_" gradientUnits="userSpaceOnUse" x1="270.0237" y1="287.9512" x2="185.885" y2="293.4147" gradientTransform="matrix(0.0999 0.995 0.995 -0.0999 -11.2663 -26.3066)">
	<stop  offset="0" style="stop-color:#EF9F8E"/>
	<stop  offset="1" style="stop-color:#FF0000"/>
</linearGradient>
<path style="fill:url(#SVGID_00000087405791504719221950000010406502627045148309_);" d="M315.54,135.85
	c4.95-0.72,18.84,28.38,12.86,58.2c-1.62,8.06-4.77,23.79-14.48,26.59c-12.05,3.48-27.41-14.94-34.34-28.37
	c-11.2-21.7-9.15-47.35-4.14-48.65c4.09-1.06,10.71,13.91,13.46,12.64c1.57-0.72,0.41-6.04,0.24-21.06c-0.06-5.36,0.05-7.6,1.25-8.1
	c2.92-1.21,9.71,9.03,10.1,9.62c5.96,9.09,6.37,16.04,8.43,16.02C312.08,152.74,311.95,136.37,315.54,135.85z"/>
<g>
	
		<linearGradient id="SVGID_00000031920421588228527230000010696251144040972473_" gradientUnits="userSpaceOnUse" x1="196.1347" y1="336.1346" x2="295.5712" y2="274.9428" gradientTransform="matrix(0.0999 0.995 0.995 -0.0999 -11.2663 -26.3066)">
		<stop  offset="0" style="stop-color:#EF9F8E"/>
		<stop  offset="1" style="stop-color:#FF0000"/>
	</linearGradient>
	<path style="fill:url(#SVGID_00000031920421588228527230000010696251144040972473_);" d="M306.74,208.16
		c2.57-5.69-4.08-10.39-4.22-20.51c-0.18-13.35,11.17-19.12,16.55-30.4c1.69-3.54,2.98-8.02,3.09-13.73
		c5.23,10.5,10.28,30.34,6.23,50.53c-1.62,8.06-4.77,23.79-14.48,26.59c-5.45,1.57-11.57-1.34-17.29-6.23
		C302.47,213.13,305.5,210.89,306.74,208.16z"/>
</g>
<g>
	<g>
		<path class="st12" d="M719.55,155.92c10.07-4.41,14.58-2.49,16.45,1.49c1.86,3.98,0.38,8.52-9.69,12.93
			c-18.35,8.03-30.6,4.7-30.6,4.7S700.93,164.07,719.55,155.92z"/>
	</g>
</g>
<g>
	<g>
		<path class="st13" d="M664.65,312.91c10.96-6.74,16.49-5.25,19.3-0.94c2.81,4.31,1.82,9.81-9.13,16.55
			c-19.96,12.28-34.69,10.41-34.69,10.41S644.39,325.37,664.65,312.91z"/>
	</g>
</g>
<g>
	<path class="st13" d="M532.82,390.54l-0.65,0.08c-3.91-36.21-2.51-72.68,4.15-108.4c6.62-35.47,18.28-69.4,34.66-100.83l0.57,0.36
		c-16.35,31.37-27.98,65.22-34.59,100.62C530.32,318.01,528.92,354.41,532.82,390.54z"/>
	<path class="st13" d="M530.38,356.03c0.09-0.13-4.86-11.07-12.98-26.69c-8.23-15.57-19.63-35.83-34.95-53.51
		c0.06-0.22,0.93,18.06,8.27,36.92C497.8,331.72,511.33,351.28,530.38,356.03z"/>
	<path class="st13" d="M531.19,325.43c0.09-0.11-3.64-10.65-10.07-25.72c-6.52-15.04-15.75-34.61-28.87-52.02
		c0.06-0.19-0.22,16.61,5.3,34.52C502.83,300.19,513.91,319.29,531.19,325.43z"/>
	<path class="st13" d="M534.48,295.17c0.08-0.09-2.54-10.11-7.41-24.48c-4.96-14.35-12.17-33.04-23.21-49.96
		c0.06-0.15-1.19,15.13,2.69,31.95C510.23,269.55,519.04,287.95,534.48,295.17z"/>
	<path class="st13" d="M540.2,265.43c0.07-0.07-1.56-9.47-5.02-22.99c-3.54-13.51-8.91-31.14-18.01-47.36
		c0.06-0.12-1.98,13.64,0.45,29.24C519.89,239.96,526.63,257.43,540.2,265.43z"/>
	<path class="st13" d="M548.31,236.4c0.07-0.05-0.7-8.74-2.91-21.28c-2.28-12.54-6-28.95-13.3-44.29c0.06-0.1-2.6,12.15-1.42,26.44
		C531.72,211.56,536.6,227.92,548.31,236.4z"/>
	<path class="st13" d="M558.76,208.24c0.06-0.04,0.03-7.93-1.1-19.4c-1.18-11.47-3.46-26.5-9.11-40.8
		c0.06-0.07-3.04,10.66-2.92,23.56C545.64,184.5,548.87,199.56,558.76,208.24z"/>
	<g>
		<path class="st13" d="M530.38,356.03c0.05,0.17,4.18-11.85,14.02-24.92c9.71-13.14,25.14-27.32,44.76-33.08
			c0.06,0.21-6.24,10.59-16.19,23.59C562.86,334.44,549.09,349.87,530.38,356.03z"/>
		<path class="st13" d="M531.19,325.43c0.04,0.15,4.77-10.5,14.82-21.77c9.94-11.33,25.19-23.27,43.77-27.25
			c0.03,0.18-6.48,9.52-16.62,20.83C562.88,308.38,548.99,321.49,531.19,325.43z"/>
		<path class="st13" d="M534.48,295.17c0.02,0.13,5.18-9.18,15.24-18.72c9.97-9.6,24.82-19.45,42.24-21.84
			c0.01,0.15-6.62,8.46-16.76,18.14C564.93,282.29,551.16,293.2,534.48,295.17z"/>
		<path class="st13" d="M540.2,265.43c0.01,0.11,5.42-7.89,15.3-15.81c9.8-7.98,24.07-15.87,40.22-16.89
			c0,0.13-6.64,7.42-16.63,15.56C569.02,256.29,555.61,265.15,540.2,265.43z"/>
		<path class="st13" d="M548.31,236.4c0,0.09,5.51-6.66,15.03-13.07c9.48-6.46,22.98-12.58,37.76-12.42
			c-0.01,0.11-6.56,6.4-16.23,13.09C575.15,230.56,562.32,237.53,548.31,236.4z"/>
		<path class="st13" d="M558.76,208.24c0,0.07,5.44-5.5,14.47-10.53c8.99-5.07,21.58-9.6,34.93-8.47
			c-0.01,0.09-6.38,5.42-15.58,10.76C583.35,205.24,571.27,210.5,558.76,208.24z"/>
	</g>
	<path class="st13" d="M603.31,131.18c0.06,0.06-8.04,4.99-16.52,14.95c-8.48,9.83-17.35,24.69-18.6,41.42
		c11.93-10.21,20.12-23.95,25.98-35.52C599.93,140.53,603.37,131.19,603.31,131.18z"/>
</g>
<g>
	<g>
		<path class="st12" d="M614.91,316.88c0,0,28.82-62.95,51.66-42.63C683.18,289.03,614.91,316.88,614.91,316.88z"/>
		<path class="st12" d="M601.95,284.54c0,0,4.75-42.31-18.15-42.25C565.21,242.34,584.92,267.01,601.95,284.54z"/>
		<path class="st13" d="M586.79,393.97c0,0,2.22-16.77,3.81-26.28c3.59-21.44,8.2-41.91,13.72-60.84c6.9-23.68,15.23-45,24.76-63.38
			l1.07,0.55c-9.5,18.31-17.8,39.56-24.67,63.15c-5.5,18.88-10.11,39.31-13.68,60.7c-1.57,9.39-3.77,26-3.77,26L586.79,393.97z"/>
		<path class="st13" d="M594.62,342.6c1.24-1.65,30.5-40.47,42.59-47.23l0.59,1.05c-4.89,2.73-13.73,11.7-25.57,25.93
			c-8.97,10.78-16.57,20.87-16.64,20.97L594.62,342.6z"/>
		<path class="st13" d="M605.55,300.21c-0.06-0.27-6.17-27.02-13.15-36.17l0.96-0.73c3.01,3.94,6.17,11.31,9.41,21.9
			c2.4,7.86,3.95,14.66,3.96,14.73L605.55,300.21z"/>
	</g>
	<g>
		<g>
			
				<radialGradient id="SVGID_00000072273994576635971360000006490624285751865988_" cx="636.6279" cy="224.2898" r="37.486" gradientUnits="userSpaceOnUse">
				<stop  offset="0" style="stop-color:#FFF1B5"/>
				<stop  offset="0.0351" style="stop-color:#FFEBAA"/>
				<stop  offset="0.2141" style="stop-color:#FFCE77"/>
				<stop  offset="0.3904" style="stop-color:#FFB64C"/>
				<stop  offset="0.5602" style="stop-color:#FFA42B"/>
				<stop  offset="0.722" style="stop-color:#FF9713"/>
				<stop  offset="0.8723" style="stop-color:#FF8F05"/>
				<stop  offset="1" style="stop-color:#FF8C00"/>
			</radialGradient>
			<path style="fill:url(#SVGID_00000072273994576635971360000006490624285751865988_);" d="M667.29,246.15
				c1.78-2.56-2.74-8.77-10.08-13.87c-0.08-0.06-0.17-0.11-0.25-0.17c0.18,0.02,0.36,0.04,0.55,0.05c8.91,0.74,16.34-1.17,16.6-4.27
				c0.26-3.1-6.75-6.22-15.66-6.97c-0.1-0.01-0.2-0.01-0.3-0.02c0.17-0.08,0.33-0.15,0.5-0.23c8.09-3.81,13.57-9.18,12.24-12
				c-1.33-2.82-8.96-2.01-17.05,1.8c-0.09,0.04-0.18,0.09-0.27,0.13c0.11-0.15,0.21-0.3,0.32-0.45c5.1-7.34,7.16-14.74,4.6-16.51
				c-2.56-1.78-8.77,2.74-13.87,10.08c-0.06,0.08-0.11,0.17-0.17,0.25c0.02-0.18,0.04-0.36,0.05-0.55
				c0.74-8.91-1.17-16.34-4.27-16.6c-3.1-0.26-6.22,6.75-6.97,15.66c-0.01,0.1-0.01,0.2-0.02,0.3c-0.08-0.17-0.15-0.33-0.23-0.5
				c-3.81-8.09-9.18-13.57-12-12.24c-2.82,1.33-2.01,8.96,1.8,17.05c0.04,0.09,0.09,0.18,0.13,0.27c-0.15-0.11-0.3-0.21-0.45-0.32
				c-7.34-5.1-14.74-7.16-16.51-4.6c-1.78,2.56,2.74,8.77,10.08,13.87c0.08,0.06,0.17,0.11,0.25,0.17
				c-0.18-0.02-0.36-0.04-0.55-0.05c-8.91-0.74-16.34,1.17-16.6,4.27c-0.26,3.1,6.75,6.22,15.66,6.97c0.1,0.01,0.2,0.01,0.3,0.02
				c-0.17,0.08-0.33,0.15-0.5,0.23c-8.09,3.81-13.57,9.18-12.24,12c1.33,2.82,8.96,2.01,17.05-1.8c0.09-0.04,0.18-0.09,0.27-0.13
				c-0.11,0.15-0.21,0.3-0.32,0.45c-5.1,7.34-7.16,14.74-4.6,16.51c2.56,1.78,8.77-2.74,13.87-10.08c0.06-0.08,0.11-0.17,0.17-0.25
				c-0.02,0.18-0.04,0.36-0.05,0.55c-0.74,8.91,1.17,16.34,4.27,16.6c3.1,0.26,6.22-6.75,6.97-15.66c0.01-0.1,0.01-0.2,0.02-0.3
				c0.08,0.17,0.15,0.33,0.23,0.5c3.81,8.09,9.18,13.57,12,12.24c2.82-1.33,2.01-8.96-1.8-17.05c-0.04-0.09-0.09-0.18-0.13-0.27
				c0.15,0.11,0.3,0.21,0.45,0.32C658.12,246.64,665.51,248.7,667.29,246.15z"/>
			
				<ellipse transform="matrix(0.8001 -0.5998 0.5998 0.8001 -7.2975 426.6783)" class="st21" cx="636.63" cy="224.29" rx="7.23" ry="7.23"/>
		</g>
	</g>
</g>
<g>
	<path class="st13" d="M454.83,309.72c0,0-31.2-28.04-30.24-79.54C424.59,230.18,456.43,261.49,454.83,309.72z"/>
	<path class="st13" d="M454.84,322.46c0,0,4.42-36.79,42.13-62.25C496.97,260.21,490.51,299.13,454.84,322.46z"/>
	<path class="st13" d="M460.97,398.07l-1.01,0.13c-0.05-0.32-5.11-32.91-5.16-76.06c-0.03-25.35,1.64-49.33,4.97-71.29
		c4.16-27.46,10.95-51.81,20.16-72.37l0.93,0.45c-9.18,20.47-15.94,44.73-20.09,72.1c-3.32,21.9-4.99,45.83-4.96,71.13
		C455.87,365.23,460.92,397.75,460.97,398.07z"/>
	<g>
		
			<radialGradient id="SVGID_00000132048297487773225330000006340303516563097217_" cx="481.1426" cy="164.0796" r="70.3621" gradientUnits="userSpaceOnUse">
			<stop  offset="0" style="stop-color:#EF9F8E"/>
			<stop  offset="1" style="stop-color:#ED1E79"/>
		</radialGradient>
		<path style="fill:url(#SVGID_00000132048297487773225330000006340303516563097217_);" d="M508.08,155.95
			c8.97-7.7,13.13-17.58,9.28-22.07c-3.85-4.49-14.25-1.88-23.22,5.82c-3.2,2.75-5.79,5.78-7.62,8.74
			c-0.17-3.77-1.14-8.09-2.96-12.45c-4.55-10.91-12.66-17.92-18.12-15.64c-5.46,2.28-6.19,12.97-1.64,23.88
			c2.06,4.93,4.84,9.07,7.78,11.91c-3.63-1-8.04-1.41-12.74-1.03c-11.79,0.95-20.95,6.51-20.48,12.4c0.48,5.89,10.42,9.9,22.21,8.94
			c5.02-0.41,9.57-1.65,13.1-3.4c-2.06,3.14-3.8,7.18-4.89,11.75c-2.73,11.5-0.29,21.94,5.46,23.31
			c5.75,1.37,12.63-6.85,15.37-18.36c0.92-3.88,1.25-7.63,1.07-10.96c2.24,2.49,5.15,4.91,8.58,6.99c10.1,6.16,20.78,7.05,23.85,2
			s-2.61-14.13-12.71-20.29c-4.43-2.7-8.97-4.39-12.94-5.01C500.91,161.15,504.6,158.93,508.08,155.95z"/>
		<g>
			
				<radialGradient id="SVGID_00000096058597331028825680000015145516913462309760_" cx="486.4328" cy="164.0072" r="43.2378" gradientUnits="userSpaceOnUse">
				<stop  offset="0" style="stop-color:#EF9F8E"/>
				<stop  offset="1" style="stop-color:#FF7BAC"/>
			</radialGradient>
			<path style="fill:url(#SVGID_00000096058597331028825680000015145516913462309760_);" d="M507.17,174.09
				c11.82-0.37,21.25-5.45,21.07-11.36s-9.91-10.4-21.73-10.04c-4.22,0.13-8.14,0.86-11.42,2.02c2.23-3.04,4.19-7.02,5.51-11.55
				c3.3-11.35,1.38-21.9-4.29-23.55c-5.68-1.65-12.96,6.21-16.26,17.57c-1.49,5.13-1.92,10.1-1.41,14.15
				c-2.2-3.06-5.37-6.14-9.27-8.79c-9.78-6.65-20.4-8.08-23.72-3.19c-3.33,4.89,1.9,14.24,11.68,20.9
				c4.17,2.84,8.49,4.72,12.33,5.57c-3.57,1.15-7.47,3.21-11.18,6.08c-9.35,7.24-13.99,16.9-10.37,21.58
				c3.62,4.67,14.13,2.59,23.48-4.65c3.15-2.44,5.76-5.16,7.71-7.86c0.18,3.34,0.93,7.06,2.29,10.83
				c4,11.13,11.75,18.53,17.32,16.53c5.56-2,6.83-12.64,2.83-23.77c-1.76-4.88-4.23-9.05-6.93-12.02
				C498.31,173.64,502.58,174.23,507.17,174.09z"/>
			<path class="st9" d="M491.26,164.78c3.65-0.11,10.7-2.18,10.65-4c-0.06-1.83-7.2-2.72-10.85-2.61c-1.3,0.04-2.51,0.27-3.53,0.62
				c0.69-0.94,1.29-2.17,1.7-3.57c1.02-3.51,1.35-9.93-0.41-10.44c-1.75-0.51-4.92,5.08-5.95,8.59c-0.46,1.59-0.59,3.12-0.44,4.37
				c-0.68-0.94-1.66-1.9-2.87-2.72c-3.02-2.06-8.12-3.32-9.15-1.81c-1.03,1.51,2.41,5.22,5.43,7.28c1.29,0.88,2.62,1.46,3.81,1.72
				c-1.1,0.36-2.31,0.99-3.45,1.88c-2.89,2.24-8.44,6.77-7.32,8.22c1.12,1.44,8.48-0.75,11.37-2.99c0.97-0.75,1.78-1.59,2.38-2.43
				c0.06,1.03,0.29,2.18,0.71,3.35c1.24,3.44,4.52,7.79,6.24,7.18c1.72-0.62,1.22-5.98-0.01-9.41c-0.54-1.51-1.31-2.8-2.14-3.71
				C488.52,164.64,489.84,164.82,491.26,164.78z"/>
		</g>
	</g>
</g>
<g>
	<path class="st12" d="M404.21,398.61l-2.88-0.29c0.16-1.81,15.39-181.92-9.09-263.28l2.71-1.49
		c7.14,23.75,15.38,71.45,14.02,163.83C408.15,352.52,404.25,398.15,404.21,398.61z"/>
	<g>
		
			<radialGradient id="SVGID_00000176736806366238901500000008151454741032680633_" cx="358.8623" cy="120.2113" r="30.2558" gradientUnits="userSpaceOnUse">
			<stop  offset="0" style="stop-color:#EF9F8E"/>
			<stop  offset="0.0341" style="stop-color:#F2BA2D"/>
			<stop  offset="1" style="stop-color:#FF8C00"/>
		</radialGradient>
		<path style="fill:url(#SVGID_00000176736806366238901500000008151454741032680633_);" d="M396.8,139.99
			c0,0-86.58,1.25-74.77-31.05C331.33,83.5,381.23,121.43,396.8,139.99z"/>
		
			<radialGradient id="SVGID_00000109721714852590028620000012858033264700410537_" cx="366.8428" cy="98.7461" r="35.3836" gradientUnits="userSpaceOnUse">
			<stop  offset="0" style="stop-color:#EF9F8E"/>
			<stop  offset="0.0341" style="stop-color:#F2BA2D"/>
			<stop  offset="1" style="stop-color:#FF8C00"/>
		</radialGradient>
		<path style="fill:url(#SVGID_00000109721714852590028620000012858033264700410537_);" d="M396.2,139.27
			c0,0-84.54-54.6-50.74-78.68C366.72,45.45,393.49,106.66,396.2,139.27z"/>
		
			<radialGradient id="SVGID_00000151509435862376552250000015245215364032058039_" cx="423.828" cy="106.7944" r="31.1983" gradientUnits="userSpaceOnUse">
			<stop  offset="0" style="stop-color:#EF9F8E"/>
			<stop  offset="0.0341" style="stop-color:#F2BA2D"/>
			<stop  offset="1" style="stop-color:#FF8C00"/>
		</radialGradient>
		<path style="fill:url(#SVGID_00000151509435862376552250000015245215364032058039_);" d="M395.35,140.49
			c0,0,78.61-43.82,51.13-64.51C424.84,59.7,398.32,116.45,395.35,140.49z"/>
		
			<radialGradient id="SVGID_00000045590308181045190520000001699775652804885128_" cx="401.748" cy="91.4969" r="36.288" gradientUnits="userSpaceOnUse">
			<stop  offset="0" style="stop-color:#EF9F8E"/>
			<stop  offset="0.0341" style="stop-color:#F2BA2D"/>
			<stop  offset="1" style="stop-color:#FF8C00"/>
		</radialGradient>
		<path style="fill:url(#SVGID_00000045590308181045190520000001699775652804885128_);" d="M395.85,139.2c0,0,49.8-94.79,8.3-95.41
			C373.85,43.34,380.39,110.37,395.85,139.2z"/>
		<path class="st12" d="M395.35,140.49c-0.97-0.58-31.51-4.65-29.44-9.51c2.08-4.88,16.1,0.78,16.1,0.78s-13.18-17.13-9.46-19.53
			c3.72-2.39,17.48,14.2,17.48,14.2s2.41-23.04,5.33-23.16c5.71-0.24,4.42,23.05,4.42,23.05s11.23-15.68,17.25-13.4
			C423.05,115.2,395.35,140.49,395.35,140.49z"/>
	</g>
	<path class="st13" d="M402.91,224.82c0,0,2.1-37.47,34.59-55.8C437.5,169.03,437.77,204.42,402.91,224.82z"/>
	<path class="st13" d="M404.65,191.5c0,0-37.47-2.1-55.8-34.59C348.85,156.9,384.24,156.64,404.65,191.5z"/>
</g>
<g>
	<g>
		<g>
			
				<radialGradient id="SVGID_00000011723266863992727700000017412523632169710208_" cx="771.332" cy="271.9774" r="15.1193" gradientUnits="userSpaceOnUse">
				<stop  offset="0" style="stop-color:#B6C5DF"/>
				<stop  offset="1" style="stop-color:#877AA5"/>
			</radialGradient>
			<path style="fill:url(#SVGID_00000011723266863992727700000017412523632169710208_);" d="M780.93,274.47
				c-0.13,9.25-4.54,16.69-9.84,16.61s-9.49-7.64-9.35-16.89c0.13-9.25,9.91-21.32,9.91-21.32S781.07,265.22,780.93,274.47z"/>
			
				<radialGradient id="SVGID_00000049902105370598106450000012162001129815951279_" cx="751.2096" cy="284.7007" r="14.4694" gradientUnits="userSpaceOnUse">
				<stop  offset="0" style="stop-color:#B6C5DF"/>
				<stop  offset="1" style="stop-color:#877AA5"/>
			</radialGradient>
			<path style="fill:url(#SVGID_00000049902105370598106450000012162001129815951279_);" d="M757.74,276.21
				c7.94,4.74,12.18,12.28,9.46,16.83c-2.72,4.55-11.36,4.4-19.3-0.34c-7.94-4.74-13.51-19.24-13.51-19.24
				S749.8,271.47,757.74,276.21z"/>
			
				<radialGradient id="SVGID_00000178914724007010375430000010470475759177147265_" cx="750.6426" cy="305.2567" r="14.5067" gradientUnits="userSpaceOnUse">
				<stop  offset="0" style="stop-color:#B6C5DF"/>
				<stop  offset="1" style="stop-color:#877AA5"/>
			</radialGradient>
			<path style="fill:url(#SVGID_00000178914724007010375430000010470475759177147265_);" d="M747.65,297.17
				c8.08-4.51,16.72-4.41,19.31,0.22c2.58,4.63-1.87,12.04-9.95,16.55c-8.08,4.51-23.42,2.08-23.42,2.08
				S739.57,301.68,747.65,297.17z"/>
			
				<radialGradient id="SVGID_00000026146724447184609520000002315364017931230112_" cx="770.3567" cy="318.8745" r="15.1193" gradientUnits="userSpaceOnUse">
				<stop  offset="0" style="stop-color:#B6C5DF"/>
				<stop  offset="1" style="stop-color:#877AA5"/>
			</radialGradient>
			<path style="fill:url(#SVGID_00000026146724447184609520000002315364017931230112_);" d="M760.76,316.38
				c0.13-9.25,4.54-16.69,9.84-16.61s9.49,7.64,9.35,16.89s-9.91,21.32-9.91,21.32S760.62,325.63,760.76,316.38z"/>
			
				<radialGradient id="SVGID_00000003787198995580782180000002720356337036414643_" cx="790.4791" cy="306.1512" r="14.4694" gradientUnits="userSpaceOnUse">
				<stop  offset="0" style="stop-color:#B6C5DF"/>
				<stop  offset="1" style="stop-color:#877AA5"/>
			</radialGradient>
			<path style="fill:url(#SVGID_00000003787198995580782180000002720356337036414643_);" d="M783.95,314.64
				c-7.94-4.74-12.18-12.28-9.46-16.83c2.72-4.55,11.36-4.4,19.3,0.34c7.94,4.74,13.51,19.24,13.51,19.24
				S791.89,319.38,783.95,314.64z"/>
			
				<radialGradient id="SVGID_00000056391675934422746660000003041014181998236048_" cx="791.0461" cy="285.5952" r="14.5067" gradientUnits="userSpaceOnUse">
				<stop  offset="0" style="stop-color:#B6C5DF"/>
				<stop  offset="1" style="stop-color:#877AA5"/>
			</radialGradient>
			<path style="fill:url(#SVGID_00000056391675934422746660000003041014181998236048_);" d="M794.03,293.68
				c-8.08,4.51-16.72,4.41-19.31-0.22c-2.58-4.63,1.87-12.04,9.95-16.55c8.08-4.51,23.42-2.08,23.42-2.08
				S802.11,289.17,794.03,293.68z"/>
		</g>
		<g>
			
				<radialGradient id="SVGID_00000154413953885944515070000012816346209556001972_" cx="782.0437" cy="274.4781" r="15.3585" gradientUnits="userSpaceOnUse">
				<stop  offset="0" style="stop-color:#B6C5DF"/>
				<stop  offset="1" style="stop-color:#877AA5"/>
			</radialGradient>
			<path style="fill:url(#SVGID_00000154413953885944515070000012816346209556001972_);" d="M791.11,281.36
				c-4.96,8.47-12.91,13.03-17.77,10.19c-4.85-2.84-4.77-12.01,0.19-20.48s20.29-14.5,20.29-14.5S796.07,272.89,791.11,281.36z"/>
			
				<radialGradient id="SVGID_00000155109387805589183210000003068312874550178996_" cx="760.2404" cy="274.1114" r="15.3754" gradientUnits="userSpaceOnUse">
				<stop  offset="0" style="stop-color:#B6C5DF"/>
				<stop  offset="1" style="stop-color:#877AA5"/>
			</radialGradient>
			<path style="fill:url(#SVGID_00000155109387805589183210000003068312874550178996_);" d="M768.79,270.84
				c4.85,8.53,4.83,17.7-0.06,20.48c-4.89,2.78-12.78-1.88-17.64-10.41c-4.85-8.53-2.41-24.82-2.41-24.82
				S763.94,262.31,768.79,270.84z"/>
			
				<radialGradient id="SVGID_00000080905708393694828550000002479948222721767833_" cx="745.9681" cy="295.0949" r="16.0379" gradientUnits="userSpaceOnUse">
				<stop  offset="0" style="stop-color:#B6C5DF"/>
				<stop  offset="1" style="stop-color:#877AA5"/>
			</radialGradient>
			<path style="fill:url(#SVGID_00000080905708393694828550000002479948222721767833_);" d="M748.53,284.91
				c9.81,0.06,17.74,4.67,17.71,10.29c-0.03,5.62-8.02,10.13-17.83,10.07c-9.81-0.06-22.7-10.32-22.7-10.32
				S738.71,284.85,748.53,284.91z"/>
			
				<radialGradient id="SVGID_00000075132043051785966780000000740482038147836084_" cx="759.645" cy="316.3738" r="15.3585" gradientUnits="userSpaceOnUse">
				<stop  offset="0" style="stop-color:#B6C5DF"/>
				<stop  offset="1" style="stop-color:#877AA5"/>
			</radialGradient>
			<path style="fill:url(#SVGID_00000075132043051785966780000000740482038147836084_);" d="M750.58,309.5
				c4.96-8.47,12.91-13.03,17.77-10.19c4.85,2.84,4.77,12.01-0.19,20.48c-4.96,8.47-20.29,14.5-20.29,14.5
				S745.62,317.96,750.58,309.5z"/>
			
				<radialGradient id="SVGID_00000052099002094045401520000011270320858370924678_" cx="781.4482" cy="316.7405" r="15.3754" gradientUnits="userSpaceOnUse">
				<stop  offset="0" style="stop-color:#B6C5DF"/>
				<stop  offset="1" style="stop-color:#877AA5"/>
			</radialGradient>
			<path style="fill:url(#SVGID_00000052099002094045401520000011270320858370924678_);" d="M772.9,320.01
				c-4.85-8.53-4.83-17.7,0.06-20.48s12.78,1.88,17.64,10.41c4.85,8.53,2.41,24.82,2.41,24.82S777.75,328.54,772.9,320.01z"/>
			
				<radialGradient id="SVGID_00000137125371576530264340000010215056059422596796_" cx="795.7206" cy="295.757" r="16.0379" gradientUnits="userSpaceOnUse">
				<stop  offset="0" style="stop-color:#B6C5DF"/>
				<stop  offset="1" style="stop-color:#877AA5"/>
			</radialGradient>
			<path style="fill:url(#SVGID_00000137125371576530264340000010215056059422596796_);" d="M793.16,305.94
				c-9.81-0.06-17.74-4.67-17.71-10.29c0.03-5.62,8.02-10.13,17.83-10.07s22.7,10.32,22.7,10.32S802.97,306,793.16,305.94z"/>
		</g>
		<g>
			<path class="st40" d="M779.45,289.45c-2.11,3.6-5.48,5.53-7.54,4.33c-2.06-1.21-2.02-5.1,0.08-8.7c2.11-3.6,8.62-6.16,8.62-6.16
				S781.55,285.85,779.45,289.45z"/>
			<path class="st40" d="M769.97,284.99c2.06,3.62,2.05,7.52-0.03,8.7c-2.08,1.18-5.43-0.8-7.49-4.42s-1.02-10.54-1.02-10.54
				S767.91,281.36,769.97,284.99z"/>
			<path class="st40" d="M761.37,290.96c4.17,0.03,7.53,1.98,7.52,4.37c-0.01,2.39-3.41,4.3-7.57,4.28
				c-4.17-0.03-9.64-4.38-9.64-4.38S757.2,290.94,761.37,290.96z"/>
			<path class="st40" d="M762.24,301.4c2.11-3.6,5.48-5.53,7.54-4.33c2.06,1.21,2.02,5.1-0.08,8.7c-2.11,3.6-8.62,6.16-8.62,6.16
				S760.13,305,762.24,301.4z"/>
			<path class="st40" d="M771.72,305.87c-2.06-3.62-2.05-7.52,0.03-8.7c2.08-1.18,5.43,0.8,7.49,4.42
				c2.06,3.62,1.02,10.54,1.02,10.54S773.78,309.49,771.72,305.87z"/>
			<path class="st40" d="M780.32,299.89c-4.17-0.03-7.53-1.98-7.52-4.37c0.01-2.39,3.41-4.3,7.57-4.28
				c4.17,0.03,9.64,4.38,9.64,4.38S784.49,299.92,780.32,299.89z"/>
		</g>
		
			<ellipse transform="matrix(0.2882 -0.9576 0.9576 0.2882 265.8116 948.4339)" class="st41" cx="770.84" cy="295.43" rx="10.1" ry="10.1"/>
		
			<ellipse transform="matrix(0.0407 -0.9992 0.9992 0.0407 444.3023 1053.6132)" class="st9" cx="770.84" cy="295.43" rx="5.86" ry="5.86"/>
	</g>
</g>
</svg>
