<?xml version="1.0" encoding="utf-8"?>
<!-- Generator: Adobe Illustrator 26.0.2, SVG Export Plug-In . SVG Version: 6.00 Build 0)  -->
<svg version="1.1" id="Layer_1" xmlns="http://www.w3.org/2000/svg" xmlns:xlink="http://www.w3.org/1999/xlink" x="0px" y="0px"
	 viewBox="0 0 1000 1000" style="enable-background:new 0 0 1000 1000;" xml:space="preserve">
<style type="text/css">
	.st0{fill:#D3E7F1;}
	.st1{clip-path:url(#SVGID_00000021077177672857943000000012840170131528049317_);fill:none;}
	.st2{clip-path:url(#SVGID_00000021077177672857943000000012840170131528049317_);fill:#BC9461;}
	
		.st3{clip-path:url(#SVGID_00000021077177672857943000000012840170131528049317_);fill:url(#SVGID_00000134222418183850379420000007998427843829239937_);}
	
		.st4{clip-path:url(#SVGID_00000021077177672857943000000012840170131528049317_);fill:url(#SVGID_00000107555296650258278620000005605357050368033416_);}
	.st5{clip-path:url(#SVGID_00000021077177672857943000000012840170131528049317_);}
	.st6{fill:url(#SVGID_00000062153495105175079410000002797116927672608389_);}
	.st7{fill:url(#SVGID_00000101783133003486321930000008490154299546444716_);}
	
		.st8{clip-path:url(#SVGID_00000021077177672857943000000012840170131528049317_);fill:url(#SVGID_00000008828313999883561900000000449679472879767486_);}
	
		.st9{clip-path:url(#SVGID_00000021077177672857943000000012840170131528049317_);fill:url(#SVGID_00000120520603790494453270000001152892791559274158_);}
	
		.st10{clip-path:url(#SVGID_00000021077177672857943000000012840170131528049317_);fill:url(#SVGID_00000074406727372930947750000005295055094771784888_);}
	
		.st11{clip-path:url(#SVGID_00000021077177672857943000000012840170131528049317_);fill:url(#SVGID_00000099648069612991123780000010198693975850559386_);}
	
		.st12{clip-path:url(#SVGID_00000021077177672857943000000012840170131528049317_);fill:url(#SVGID_00000152951444127794970560000015935411719965874561_);}
	
		.st13{clip-path:url(#SVGID_00000021077177672857943000000012840170131528049317_);fill:url(#SVGID_00000076573430302670750480000013252517046103242381_);}
	
		.st14{clip-path:url(#SVGID_00000021077177672857943000000012840170131528049317_);fill:url(#SVGID_00000170258944868421565740000006247687457435740051_);}
	
		.st15{clip-path:url(#SVGID_00000021077177672857943000000012840170131528049317_);fill:url(#SVGID_00000036966781388485424170000008719867803285827739_);}
	
		.st16{clip-path:url(#SVGID_00000021077177672857943000000012840170131528049317_);fill:url(#SVGID_00000119101526183362048410000014060440763653267884_);}
	
		.st17{clip-path:url(#SVGID_00000021077177672857943000000012840170131528049317_);fill:url(#SVGID_00000103226700835447426880000005533686457059707533_);}
	
		.st18{clip-path:url(#SVGID_00000021077177672857943000000012840170131528049317_);fill:url(#SVGID_00000105396836000971485190000004270779771739833998_);}
	
		.st19{clip-path:url(#SVGID_00000021077177672857943000000012840170131528049317_);fill:url(#SVGID_00000136401461303054270220000015992935607803893644_);}
	
		.st20{clip-path:url(#SVGID_00000021077177672857943000000012840170131528049317_);fill:url(#SVGID_00000066485328765384106290000017608897077148826772_);}
	
		.st21{clip-path:url(#SVGID_00000021077177672857943000000012840170131528049317_);fill:url(#SVGID_00000080899800487561432530000016683386976098075059_);}
	
		.st22{clip-path:url(#SVGID_00000021077177672857943000000012840170131528049317_);fill:url(#SVGID_00000014615600458867149530000005405969435674138553_);}
	
		.st23{clip-path:url(#SVGID_00000021077177672857943000000012840170131528049317_);fill:url(#SVGID_00000107547807825042043650000003211414888427978157_);}
	
		.st24{clip-path:url(#SVGID_00000021077177672857943000000012840170131528049317_);fill:url(#SVGID_00000150797632853932913660000008664481904325503370_);}
	
		.st25{clip-path:url(#SVGID_00000021077177672857943000000012840170131528049317_);fill:url(#SVGID_00000053539289226850006240000005388519739652726454_);}
	
		.st26{clip-path:url(#SVGID_00000021077177672857943000000012840170131528049317_);fill:url(#SVGID_00000052793517373934640340000012738799137682154385_);}
	
		.st27{clip-path:url(#SVGID_00000021077177672857943000000012840170131528049317_);fill:url(#SVGID_00000003809359383272201890000009009294098136559264_);}
	
		.st28{clip-path:url(#SVGID_00000021077177672857943000000012840170131528049317_);fill:url(#SVGID_00000165218445885285347020000009666268844798479017_);}
	
		.st29{clip-path:url(#SVGID_00000021077177672857943000000012840170131528049317_);fill:url(#SVGID_00000177447928698810640400000014551158661759523262_);}
	
		.st30{clip-path:url(#SVGID_00000021077177672857943000000012840170131528049317_);fill:url(#SVGID_00000070814256393013785530000004690473154088503466_);}
	
		.st31{clip-path:url(#SVGID_00000021077177672857943000000012840170131528049317_);fill:url(#SVGID_00000101794966710289931530000005390497257674686904_);}
	
		.st32{clip-path:url(#SVGID_00000021077177672857943000000012840170131528049317_);fill:url(#SVGID_00000142175831833884234650000010974684011695892654_);}
	
		.st33{clip-path:url(#SVGID_00000021077177672857943000000012840170131528049317_);fill:url(#SVGID_00000146488508438427262500000009680395764616100509_);}
	
		.st34{clip-path:url(#SVGID_00000021077177672857943000000012840170131528049317_);fill:url(#SVGID_00000098907779889592495930000001501258715345363114_);}
	
		.st35{clip-path:url(#SVGID_00000021077177672857943000000012840170131528049317_);fill:url(#SVGID_00000127748997111996760960000010636474646699297716_);}
	
		.st36{clip-path:url(#SVGID_00000021077177672857943000000012840170131528049317_);fill:url(#SVGID_00000063596366593206760070000006688438626075410105_);}
	
		.st37{clip-path:url(#SVGID_00000021077177672857943000000012840170131528049317_);fill:url(#SVGID_00000029757109667130230180000016486539406208108427_);}
	
		.st38{clip-path:url(#SVGID_00000021077177672857943000000012840170131528049317_);fill:url(#SVGID_00000016054891325716115500000017171846627068297875_);}
</style>
<path class="st0" d="M766.6,146.4c-41.5-37.8-73-30.5-124.4-38.6c-40.7-6.5-60.7-25-95.1-44.8c-95.6-55.2-231.9-52.3-331.4-2.5
	C143.2,96.7,93.9,169.7,68.4,246.7c-38.3,115.6,57.9,226,36.8,345.7c-26,147.6-18.1,234.5,103.1,322.1c73.3,53,163.3,74,253.4,59.7
	c67.6-10.8,113.1-57.3,175.7-81.3c40.5-15.5,130.2-25.4,189.8-43.2c72.9-21.8,121.5-148.5,144.5-256.6c9-42.2,13.4-85.9,6.8-128.3
	C967.4,392.5,912.6,350.6,870,297C830.2,246.9,813.4,189.1,766.6,146.4z"/>
<g>
	<defs>
		<path id="SVGID_1_" d="M719.6-42.2C574.8-103.9,388.5-86,263.5,1.6c-50.4,35.3-90.5,80.2-125.8,127
			c-87.5,116.1-202,324.1-121.9,461C37,626,69.3,656.5,98.3,688.8c73.3,81.6,121.5,159.1,217.8,210.3c18.8,10,39.7,14.7,62.7,22.5
			c38.5,13.1,90.7,24.6,134.3,20.1C644,928.3,847.5,791.8,902.7,652.4c56.9-143.7,54.7-238.3,60.2-348.5
			C969.8,165.8,864.3,19.6,719.6-42.2z"/>
	</defs>
	<clipPath id="SVGID_00000093884648376729023400000015014763760535399822_">
		<use xlink:href="#SVGID_1_"  style="overflow:visible;"/>
	</clipPath>
	<path style="clip-path:url(#SVGID_00000093884648376729023400000015014763760535399822_);fill:none;" d="M511.8,1005.3
		c1.2-1.5,2.5-2.9,3.6-4.3C515.4,1001,514.1,1002.4,511.8,1005.3z"/>
	<path style="clip-path:url(#SVGID_00000093884648376729023400000015014763760535399822_);fill:none;" d="M198,1184.6
		c0,0,0-0.7,0-2.2C198,1183.9,198,1184.6,198,1184.6z"/>
	<path style="clip-path:url(#SVGID_00000093884648376729023400000015014763760535399822_);fill:#BC9461;" d="M2842.5,3385.3
		c-2.4,16.2,9.9,18,12.3,1.7C2857.2,3370.9,2844.8,3369.1,2842.5,3385.3z M2851.4,3214.3c2.7,11.9,13.1,1.2,10.7-11.7
		C2859.3,3190.8,2848.9,3201.3,2851.4,3214.3z M2851,3280.7c-11.2-0.4-14,29.7-4.4,31.1C2857.9,3312.2,2860.6,3282.1,2851,3280.7z
		 M2793.7,3693.1c3.3,14.4,15.8,1.3,12.8-14C2803.2,3665,2790.7,3677.5,2793.7,3693.1z M2801.3,3605.6c-3.1,19.8,12.1,22.2,15,2.1
		C2819.3,3587.9,2804.1,3585.6,2801.3,3605.6z M2777.2,3635.8c-8.7,8.9-3,31.5,4.7,22C2790.6,3648.8,2784.9,3626.2,2777.2,3635.8z
		 M2772.1,3597.5c-2.9-12.4-13.6-1.2-11,12.1C2764,3621.9,2774.7,3610.7,2772.1,3597.5z M2826.5,3467.4c2.7-17.8-11.1-20.6-13.8-1.9
		C2810,3483.3,2823.8,3486,2826.5,3467.4z M2798.5,3546.2c-8.6-0.3-10.7,22.9-3.4,23.9C2803.8,3570.4,2805.9,3547.2,2798.5,3546.2z
		 M2881.3,3445.2c-2.9-12.7-14-1.2-11.3,12.4C2872.9,3470.3,2884,3458.8,2881.3,3445.2z M2925.6,3047.6c2.3-15.5-9.7-18-12-1.7
		C2911.2,3061.7,2923.3,3063.5,2925.6,3047.6z M2884.1,3364.8c-1.5-0.1-2.8,0.5-3.8,1.7c-7.9,8.3-2.6,28.3,4.2,19.8
		C2889.9,3380.8,2889.8,3365.6,2884.1,3364.8z M2790.3,3511.9c3.4-21.6-13.2-24-16.3-2.3C2770.8,3530.5,2787.1,3534.4,2790.3,3511.9
		z M2830.9,3646.7c-3,19.8,12.1,21.9,14.9,2.1C2848.8,3628.9,2833.7,3627,2830.9,3646.7z M2896.7,3268.4c-7.7,8-2.4,27.4,4.1,19.2
		C2908.5,3279.7,2903.3,3260.1,2896.7,3268.4z M2810.8,3765c15.2,0.6,18.9-40.3,6-42.1C2801.5,3722.4,2797.8,3763.2,2810.8,3765z
		 M2840,3566.4c-2.5,16.6,12.5,11.2,9.5-4.4C2847.6,3554.1,2841.4,3557.2,2840,3566.4z M2891.9,3233.4c2.5,10.9,12,0.8,9.7-10.6
		C2899.1,3212.1,2889.6,3221.8,2891.9,3233.4z M2854.2,3504c-2.6,17.5,10.7,19.4,13.2,1.9C2869.9,3488.8,2856.7,3486.2,2854.2,3504z
		 M2776.2,3131.6c-2.2,14.6,9.1,17.1,11.3,1.6C2789.9,3118.1,2778.4,3116.5,2776.2,3131.6z M2757.7,3447.3
		c3.7,16.4,18.2,1.7,14.7-16.2C2768.7,3414.7,2754.2,3429.3,2757.7,3447.3z M2757.7,3322.8c9.3,0.2,11.7-24.8,3.7-26
		C2752.1,3296.6,2749.7,3321.7,2757.7,3322.8z M2750.2,3365.5c-2.2,14.8,9.2,17,11.4,1.6C2763.9,3352.3,2752.4,3350.1,2750.2,3365.5
		z M2835.2,3773.4c-2.4,16,9.8,17.8,12.1,1.7C2849.6,3759.6,2837.5,3757,2835.2,3773.4z M2730.1,3573.9c-8.6,8.9-2.8,30.5,4.5,21.3
		C2743.2,3586.4,2737.4,3564.8,2730.1,3573.9z M2680.3,3524.3c2.3-15.5-9.7-18-12-1.7C2665.9,3538.3,2678,3540.5,2680.3,3524.3z
		 M2770.8,3202.5c-3.9-16.9-18.6-1.7-15.1,16.6C2759.6,3236,2774.3,3220.8,2770.8,3202.5z M2717.4,3774.7c-7.6-0.2-9.5,20.4-3,21.3
		c5.6,0.2,7.8-10.6,6.7-16.3C2720.6,3777.8,2719.7,3775.1,2717.4,3774.7z M2650.5,3743.3c2.8,11.9,13.2,1.2,10.7-11.7
		C2658.6,3719.8,2648,3730,2650.5,3743.3z M2711.2,3482.7c10.4,0.3,13-27.7,4.1-28.9C2704.8,3453.5,2702.3,3481.5,2711.2,3482.7z
		 M2758.6,3524.4c-2.2-9.3-9.4-5.2-10.9,5.1C2744.9,3548.5,2762,3542.6,2758.6,3524.4z M2770.8,3784.7c-1.3,9.4,3.7,12.8,6.7,9
		c2.9-3,3.8-9.4,3-13.6C2778.6,3772,2772.1,3775.4,2770.8,3784.7z M2731.2,3686.5c-0.8,5.1,0.1,14.6,5.1,15.3
		c7,0.2,10.7-13.1,9-21.9C2742.6,3668.1,2733.1,3672.9,2731.2,3686.5z M2714,3639c-2.6,17.7,10.8,19.6,13.3,1.9
		C2729.9,3623.7,2716.6,3620.8,2714,3639z M2756.4,3718c-13.8-0.4-17.2,36.6-5.4,38.3C2764.8,3756.6,2768.1,3719.6,2756.4,3718z
		 M2692.5,3743.1c-2.8,18.1,11.4,21.2,14.1,2C2709.4,3727.2,2695.2,3723.7,2692.5,3743.1z M2697.2,3564.4
		c9.3,0.3,11.6-24.7,3.7-25.8C2691.6,3538.2,2689.2,3563.2,2697.2,3564.4z M2676.4,3612.4c-2.5,15.8,9.9,18.4,12.3,1.7
		C2691.1,3598.6,2678.8,3595.4,2676.4,3612.4z M2682.7,3684.8c-3.2,21.5,13.3,24.4,16.4,2.3
		C2702.4,3665.3,2685.7,3663.1,2682.7,3684.8z M2876.5,3750.4c-1.8,11.7,9,8.2,6.8-3.2C2882,3741.6,2877.5,3743.8,2876.5,3750.4z
		 M2959.6,3619.5c1.6,6.7,6.9,3.9,7.9-3.7c0.5-2.9-0.1-8.2-2.9-8.6C2960.4,3607,2958.8,3615.1,2959.6,3619.5z M3020.8,3334.4
		c-3.1-13.9-15.3-1.4-12.3,13.6C3011.6,3361.8,3023.8,3349.3,3020.8,3334.4z M2941.7,3748.5c3.7,16.1,18,1.6,14.5-16
		C2952.5,3716.2,2938.3,3731,2941.7,3748.5z M2980.4,3546.2c-8.2-0.2-10.2,21.6-3.2,22.6C2985.4,3569,2987.3,3547.1,2980.4,3546.2z
		 M2952,3679.8c-2.6,17.1,10.6,19.6,13.2,1.9C2967.7,3664.7,2954.5,3662,2952,3679.8z M2982.1,3399.4c-2.8,17.8,11.2,21,13.9,2
		C2998.7,3383.6,2984.8,3380.3,2982.1,3399.4z M2977.3,3451c-7.4-0.2-9.3,19.9-2.9,20.8C2981.8,3472,2983.7,3451.9,2977.3,3451z
		 M3027.8,3108.2c-1,6.5,0.3,16.6,5.8,17.4c8.1,0.2,12.2-14.9,10.2-25C3040.8,3087.2,3030,3092.8,3027.8,3108.2z M3018.3,3204
		c-3.4,23,14.4,26.4,17.7,2.5C3039.4,3183.6,3021.7,3179.8,3018.3,3204z M3074.9,3284.6c-3.8,3.9-4.2,15.9,0.3,16.6
		C3084.2,3301.5,3081.7,3276.1,3074.9,3284.6z M3058.6,3158c4.2,18.3,20.1,1.7,16.3-17.8C3070.7,3121.9,3054.7,3138.3,3058.6,3158z
		 M3000,3638c3.2,13.7,15,1.3,12.2-13.4C3009.2,3611.2,2997.2,3623.2,3000,3638z M2994.7,3498.8c-2.5,16.4,10.3,19.1,12.7,1.8
		C3009.9,3484.1,2997.2,3481.4,2994.7,3498.8z M3021.8,3431.2c-8.4-0.2-10.3,22.2-3.3,23.2
		C3026.9,3454.6,3028.8,3432.2,3021.8,3431.2z M3013.8,3407.4c-2.7,17.9,11.1,20.4,13.7,1.9
		C3030.2,3391.5,3016.4,3388.9,3013.8,3407.4z M3070.5,3375.1c-8.3-0.2-10.4,22.1-3.3,23.1
		C3075.6,3398.3,3077.6,3376.1,3070.5,3375.1z M3111.2,3111.2c3.3,14.7,16.5,1.7,13.3-14.6C3121.1,3081.5,3108,3095.2,3111.2,3111.2
		z M2980.2,3335.9c-4.9-0.1-7.4,6.9-8.1,11.8c-1.8,12.1,4.8,16.5,8.6,11.7C2986.5,3353.4,2986.4,3336.8,2980.2,3335.9z
		 M3034.4,3496.2c-2.5,16.4,10.3,19,12.7,1.8C3049.5,3481.6,3036.8,3478.9,3034.4,3496.2z M2931.9,3571.2
		c-6.3,6.5-6.2,24.5,0.5,25.5c7,0.1,10.3-13,8.6-21.1C2939.4,3568,2934.8,3567.6,2931.9,3571.2z M2924.1,3385.4
		c7,0.2,10.5-12.9,8.8-21.4c-2.6-11.5-11.8-7.1-13.8,6.5C2918.4,3375.4,2919.2,3384.7,2924.1,3385.4z M2918.8,3432.1
		c1.9-12.4-7.7-14.5-9.6-1.4C2907.2,3443.2,2916.9,3445.1,2918.8,3432.1z M2901.1,3486.4c-2.6,17,10.6,20,13.2,1.9
		C2917,3470.7,2903.6,3468.9,2901.1,3486.4z M2942.9,3292.9c-0.5,3.4,0,9.5,3.3,10c4.9,0.2,6.8-9.3,5.8-14.3
		C2950.3,3280.9,2944.1,3283.9,2942.9,3292.9z M2701.2,3237.4c4.1,18.3,20.2,1.7,16.4-18C2713.5,3201.4,2697.2,3217.3,2701.2,3237.4
		z M2894.2,3529.7c-7-0.1-8.7,18.6-2.8,19.5C2898.4,3549.3,2900.1,3530.5,2894.2,3529.7z M2923.3,3167.2c-10-0.3-12.6,26.8-4,28
		C2929.4,3195.5,2931.9,3168.4,2923.3,3167.2z M2869,3683.1c-13.9-0.5-17.3,36.9-5.5,38.5C2877.5,3722.2,2880.9,3684.8,2869,3683.1z
		 M2878.1,3623.8c7.8,0.2,11.7-14.4,9.8-24c-2-8.5-7.3-8.9-10.4-4.9C2870.3,3602.2,2870.4,3622.7,2878.1,3623.8z M3000.3,3160.7
		c2.8-18.4-11.4-21-14.1-2C2983.4,3177.2,2997.6,3179.7,3000.3,3160.7z M2946.1,3492.5c-15-0.4-18.8,39.8-5.9,41.7
		C2955.1,3534.6,2959,3494.4,2946.1,3492.5z M2903.6,3323c-3.3-13.8-15.1-1.4-12.3,13.5C2894.5,3350.2,2906.5,3338,2903.6,3323z
		 M2943.4,3258.1c3.8,16.7,18.4,1.6,14.8-16.3C2954.5,3225.4,2939.9,3240.1,2943.4,3258.1z M2957.6,3431.9c2-13-8.1-15.1-10-1.4
		C2945.6,3443.5,2955.7,3445.7,2957.6,3431.9z M2914.4,3710.1c-5.6-0.2-8.5,10.4-7.1,17.3c1.4,6.1,5.2,6.5,7.5,3.6
		C2920,3725.7,2920,3710.9,2914.4,3710.1z M2957.9,3155.2c2.7,11.6,13.1,1.4,10.6-11.6C2965.7,3131.7,2955.4,3142.5,2957.9,3155.2z
		 M2988.9,3051.6c9.9,0.3,12.5-26.5,3.9-27.7c-1.8-0.1-3.3,0.6-4.5,2.1C2982.1,3032.4,2982.1,3050.6,2988.9,3051.6z M2968.9,3197.1
		c-1.5-6.4-6.6-4-7.7,3.6C2959.1,3214,2971.4,3210,2968.9,3197.1z M2920.5,3642.8c-3.9-16.6-18.2-1.4-14.7,16.1
		C2909.6,3675.5,2924,3660.6,2920.5,3642.8z M3043,3353.7c3.7,16.3,17.9,1.5,14.4-15.9C3053.8,3321.6,3039.6,3336.3,3043,3353.7z
		 M2423.9,3376.6c4.7-31.2-19.5-36.6-24.2-3.4C2395.1,3404.1,2419.2,3409.9,2423.9,3376.6z M2455.1,3315.1c-2.1-8.8-9.5-0.8-7.8,8.5
		C2449.4,3332.4,2456.8,3324.5,2455.1,3315.1z M2441.6,3425.6c-2.3-9.7-10.6-0.8-8.6,9.4C2435.3,3444.7,2443.6,3435.8,2441.6,3425.6
		z M2390.8,3558.8c2.4,11,12.1,1.1,9.8-10.7C2398.1,3537,2388.4,3546.9,2390.8,3558.8z M2404.7,3456.2c-3.8-16.4-18.2-1.8-14.8,16.2
		C2393.8,3489,2408.1,3473.8,2404.7,3456.2z M2435.6,3152.9c-2.7-12.4-13.7-1.3-11,12.1C2427.3,3177.1,2438.3,3166.5,2435.6,3152.9z
		 M2494.2,3296c-1.7-7.5-8.2-0.7-6.7,7.3C2489.3,3310.8,2495.8,3304,2494.2,3296z M2445.1,3652.1c2.2,9.7,10.5,0.8,8.5-9.3
		C2451.4,3633.1,2443.1,3642,2445.1,3652.1z M2459.4,3606.4c1.9-11.8-8.9-8.1-6.8,3.2C2454,3615.4,2458.5,3612.6,2459.4,3606.4z
		 M2454.5,3550.5c-7.4-0.2-9.2,19.7-2.9,20.6C2459,3571.3,2460.7,3551.4,2454.5,3550.5z M2431.5,3506c-4-17.3-18.9-1.6-15.4,16.8
		C2420.2,3540,2435.1,3524.6,2431.5,3506z M2463.8,3227.7c-8.9-0.3-10.9,23.4-3.5,24.5C2469.1,3252.5,2471.4,3228.8,2463.8,3227.7z
		 M2468.5,3442.6c3,13.2,14.9,1.5,12-13.2C2477.5,3415.9,2465.7,3428.1,2468.5,3442.6z M2415.7,3589.6c-7,7.2-7.2,27.8,0.6,28.9
		c7.7,0.3,11.7-14.2,9.8-23.9C2424.1,3586.1,2418.9,3585.6,2415.7,3589.6z M2357.3,3399.4c-1.7,11.4,4.5,15.7,8.2,11.1
		c3.6-3.7,4.7-11.5,3.7-16.6C2367,3384.1,2359,3387.7,2357.3,3399.4z M2308.7,3336c9,0.3,13.8-16.6,11.5-28.1
		c-3.5-15-15.5-9.4-18.1,8.5C2300.9,3324.3,2302.8,3335.2,2308.7,3336z M2367.2,3507c-8.2-0.2-10.2,21.6-3.2,22.6
		C2372.2,3529.9,2374.1,3508,2367.2,3507z M2347.9,3358.2c1.3,5.8,5.9,3.1,6.8-3.2C2356.5,3343.2,2345.7,3347,2347.9,3358.2z
		 M2340.1,3445.6c-2.5,16.4,10,18,12.3,1.7C2354.7,3431.5,2342.4,3428.8,2340.1,3445.6z M2467.2,3503.2c-1.2,7.6,3,11.7,5.9,8
		c2.6-2.7,3.4-8.3,2.7-12.1C2474.2,3492.1,2468.5,3494.6,2467.2,3503.2z M2370,3323.9c10,0.3,12.5-26.6,3.9-27.8
		C2363.9,3295.8,2361.4,3322.7,2370,3323.9z M2525.7,3639.7c-3.6,23.2,14.6,27.3,18.1,2.6C2547.3,3619,2529.2,3614.9,2525.7,3639.7z
		 M2554.6,3725.5c-4,26.1,16.6,31.5,20.6,2.9C2579.2,3701.8,2558.5,3697.5,2554.6,3725.5z M2614.4,3505.6
		c-2.1,14.1,8.6,15.7,10.6,1.5C2627.1,3493.1,2616.4,3491.5,2614.4,3505.6z M2582.4,3610.7c6.5,0.2,8.1-17.4,2.6-18.2
		C2578.4,3592.4,2576.9,3610,2582.4,3610.7z M2593.1,3538.9c-6,6.1-2.1,21.8,3.2,15.2C2602.4,3547.8,2598.4,3532.3,2593.1,3538.9z
		 M2574.1,3664.1c-3.6,23.3,14.6,27.2,18.1,2.6C2595.8,3642.8,2577.5,3639.9,2574.1,3664.1z M2602.2,3441
		c-2.9-12.3-13.5-1.3-11,12.1C2594.1,3465.3,2604.8,3454.3,2602.2,3441z M2633.7,3343.2c3-19.2-12.1-22.4-14.9-2.1
		C2615.8,3360.3,2630.8,3363.6,2633.7,3343.2z M2653.2,3386.2c2.6-17.1-10.5-19-12.9-1.8C2637.7,3401.5,2650.8,3403.4,2653.2,3386.2
		z M2692,3325.7c-3.5,23.6,14.8,27.4,18.3,2.6C2713.8,3304.5,2695.5,3301.2,2692,3325.7z M2627.8,3642.5c4.9,20.9,23,2.2,18.7-20.4
		C2641.6,3601.1,2623.4,3619.9,2627.8,3642.5z M2624.3,3210.9c2.5-16.7-10.3-18.6-12.6-1.8
		C2609.2,3225.5,2621.9,3228.1,2624.3,3210.9z M2644.6,3566.3c-3.5,22.6,14.1,26.5,17.5,2.5
		C2665.6,3546.2,2647.9,3542.4,2644.6,3566.3z M2656,3669c-4.7,4.8-1.5,16.7,2.5,11.6C2663.2,3675.8,2659.9,3663.9,2656,3669z
		 M2665,3771.9c-4.7,4.8-1.5,16.7,2.5,11.6C2672.2,3778.7,2668.9,3766.8,2665,3771.9z M2609.8,3759.1c-2.7,19.1,14.4,12.8,10.9-5.1
		C2618.6,3745,2611.3,3748.4,2609.8,3759.1z M2611.9,3595c3.5,15.2,16.8,1.3,13.6-14.9C2622.1,3565.1,2608.7,3578.4,2611.9,3595z
		 M2659.5,3465.2c5.4-5.6,5.3-21-0.5-21.8c-4.6-0.1-6.9,6.4-7.6,11C2649.9,3465.1,2655.7,3469.9,2659.5,3465.2z M2662.3,3309.2
		c1.6,7,7.2,4.1,8.3-3.9C2672.7,3290.6,2659.6,3295.5,2662.3,3309.2z M2626.6,3701.1c-3.7-16.4-18-1.6-14.6,16
		C2615.7,3733.5,2630,3718.6,2626.6,3701.1z M2504.6,3572.4c-5.4-23.2-25.7-2.4-20.8,22.8
		C2489.1,3618.2,2509.5,3597.9,2504.6,3572.4z M2558.1,3256.2c-3.7,24.8,15.4,28.3,19,2.7C2580.8,3233.6,2561.7,3231,2558.1,3256.2z
		 M2541,3320.7c8.7,0.3,10.9-23.1,3.4-24.2C2535.7,3296.3,2533.5,3319.7,2541,3320.7z M2519.4,3377.1c-3.9,25.3,15.9,30,19.8,2.8
		C2543.2,3353.7,2523.2,3350.6,2519.4,3377.1z M2490.1,3640.1c-12.8-0.4-16,34-5,35.6C2497.8,3676,2501,3641.7,2490.1,3640.1z
		 M2520.2,3449.9c2.2,9.5,10.5,1,8.5-9.4C2526.5,3430.9,2518.2,3439.7,2520.2,3449.9z M2513.4,3235.8c-10.4-0.3-13,27.6-4.1,28.9
		C2519.8,3264.9,2522.3,3237,2513.4,3235.8z M2513.6,3532.6c2.5-16.4-10.2-19-12.7-1.8C2498.4,3547.3,2511.1,3549.7,2513.6,3532.6z
		 M2557,3485.7c-4.3-18.5-20.6-2-16.7,18.3C2544.6,3522.5,2560.9,3506.1,2557,3485.7z M2519.1,3692.7c-2.4,15.9,9.7,17.7,12,1.7
		C2533.4,3679,2521.4,3676.3,2519.1,3692.7z M2732.7,3114.1c-11.9-0.3-14.7,31.4-4.7,32.9
		C2739.9,3147.3,2742.7,3115.5,2732.7,3114.1z M2592.8,3165.2c11.3,0.3,14.1-30,4.4-31.3C2585.9,3133.6,2583.2,3163.8,2592.8,3165.2
		z M2630.2,2854c2-13.2-8.3-15.3-10.2-1.4C2617.9,2866.1,2628.2,2867.6,2630.2,2854z M3189.1,2926.3c2-13.2-8.3-15.3-10.2-1.4
		C3176.9,2938.4,3187.2,2939.9,3189.1,2926.3z M2534.6,3596.6c1.9,7.9,8.5,0.5,6.9-7.6C2539.7,3581.1,2533,3588.6,2534.6,3596.6z
		 M2614.4,3279.6c-3.1-13.2-14.8-1.5-12,13.2C2605.5,3306,2617.2,3294.3,2614.4,3279.6z M2730.4,3075.9c3.9,16.9,18.6,1.7,15.1-16.5
		C2741.6,3042.5,2726.9,3057.7,2730.4,3075.9z M2674.2,3175.9c-2.9,19.3,11.8,21.3,14.5,2.1
		C2691.6,3158.7,2676.9,3156.6,2674.2,3175.9z M2749.9,2802.8c5.3-5.4,5.2-20.4-0.4-21.2c-5.8-0.1-8.5,10.7-7.2,17.6
		C2743.8,2805.4,2747.6,2805.7,2749.9,2802.8z M2730.2,2847.6c-3-13.1-14.6-1.4-11.8,12.9C2721.4,2873.5,2733,2862.1,2730.2,2847.6z
		 M2753.2,2889.2c-3.2-13.8-15.5-1.5-12.5,13.7C2743.9,2916.9,2756,2904.3,2753.2,2889.2z M2745.2,3278.5
		c3.1-20.1-12.3-22.4-15.2-2.1C2727,3295.9,2742.3,3299.2,2745.2,3278.5z M2701.8,3398.6c3.8,16.2,17.8,1.7,14.5-15.9
		C2712.5,3366.5,2698.5,3381.2,2701.8,3398.6z M2734.6,2966.8c-2.8,18.7,11.7,21.9,14.5,2.1C2752,2950,2737.4,2947.1,2734.6,2966.8z
		 M2792.2,2770.4c6.4,0.2,9.6-11.9,8.1-19.7c-1.6-7-5.9-7.4-8.6-4C2785.8,2752.6,2785.9,2769.5,2792.2,2770.4z M2785.6,2852.8
		c7.3-7.6,7.2-28.3-0.6-29.4c-7.9-0.2-11.9,14.6-10,24.4C2777,2856.4,2782.4,2856.9,2785.6,2852.8z M2706.4,3006.2
		c2.7-18.3-11.2-20.3-13.8-2C2689.9,3022.1,2703.7,3024.9,2706.4,3006.2z M2643.4,3012.4c-2.6,17.3,10.6,19.2,13,1.8
		C2658.9,2997.5,2645.9,2994.6,2643.4,3012.4z M2673.1,2875.8c2.9,12.4,13.6,1.2,11.1-12.1
		C2681.3,2851.2,2670.6,2862.5,2673.1,2875.8z M2585.5,3396.5c9.1,0.3,11.4-24.2,3.6-25.3C2580,3370.9,2577.8,3395.4,2585.5,3396.5z
		 M2689.7,3098.5c2.2-14.6-9-16.2-11-1.6C2676.5,3111.2,2687.6,3113.5,2689.7,3098.5z M2640.8,3072.2c-3.2-13.8-15.4-1.6-12.5,13.7
		C2631.5,3099.9,2643.7,3087.1,2640.8,3072.2z M2648,3232c-3,20,12.2,22.1,15.1,2.1C2666,3214.6,2650.9,3211.6,2648,3232z
		 M2639.3,3149.2c-9.7-0.3-12.2,25.9-3.8,27.1C2645.2,3176.5,2647.6,3150.3,2639.3,3149.2z M2996.5,3688.7
		c-4.7,4.8-1.5,16.7,2.5,11.6C3003.7,3695.5,3000.4,3683.6,2996.5,3688.7z M2685.3,2949.5c12.1,0.4,15-32,4.7-33.5
		c-8.4-0.3-12.5,15.7-10.5,25.7C2680.2,2944.7,2681.7,2949,2685.3,2949.5z M2672.5,2824.3c11.7,0.3,14.5-31,4.6-32.4
		C2665.5,2791.6,2662.5,2822.9,2672.5,2824.3z M2832.5,3049.9c-7.8-0.3-9.6,20.7-3.1,21.6
		C2837.1,3071.7,2839.1,3050.8,2832.5,3049.9z M2808.2,3439.5c9.7,0.3,12.1-25.8,3.8-26.9C2802.3,3412.3,2800,3438.3,2808.2,3439.5z
		 M2798.1,2912c2.3-15.1-9.4-17.3-11.6-1.6C2784.2,2925.3,2795.8,2927.9,2798.1,2912z M2874,2814.8c2.3-15.1-9.4-17.3-11.6-1.6
		C2860.1,2828,2871.7,2830.6,2874,2814.8z M2909.9,2772.3c-2.1-10-11.1-1.2-8.9,9.8C2903.2,2791.9,2912,2783.1,2909.9,2772.3z
		 M2796.6,3357.1c-3.5,22.7,14.3,26.8,17.7,2.5C2817.9,3336.7,2800,3333.2,2796.6,3357.1z M2884.5,3121.8c-2.1-9.2-9.4-5.4-10.9,5.1
		C2870.7,3146,2888,3139.9,2884.5,3121.8z M2923.3,2933.9c2.9-18.1-11.1-20.1-13.6-1.9C2906.8,2950.1,2920.7,2952,2923.3,2933.9z
		 M2875.2,3076.4c10.6,0.3,13.2-28,4.1-29.3C2868.7,3046.8,2866.3,3075.1,2875.2,3076.4z M2878,3001.9c9.5,0.2,11.7-25,3.7-26.1
		C2872.3,2975.6,2869.9,3000.8,2878,3001.9z M2812.2,3211.5c12.1,0.4,15-32.1,4.7-33.5c-6.5-0.2-9.8,9-10.7,15.6
		C2805.2,3200.6,2806.7,3210.7,2812.2,3211.5z M2838.1,2854.2c-3.6-15.5-16.9-1.4-13.7,15C2828,2884.5,2841.3,2870.6,2838.1,2854.2z
		 M2864.3,2749.3c-0.6-2.6-1.9-6.5-5.2-7c-2-0.1-3.6,0.7-4.8,2.3c-4.5,4.6-5.8,14.2-4.6,20.6
		C2853.5,2781.4,2867.8,2767,2864.3,2749.3z M2779.2,3056.5c3.8,16.8,18.5,1.5,15-16.4c-0.6-2.7-2-6.7-5.3-7.2c-2-0.1-3.7,0.7-5,2.3
		C2779.3,3039.9,2777.9,3049.9,2779.2,3056.5z M2787.6,2959.4c-6.3-0.2-9.7,11.8-8.1,19.7c2.3,10.4,10.9,6.7,12.7-5.9
		C2792.9,2968.6,2792.2,2960.1,2787.6,2959.4z M2844.5,2988.5c-2.6-11.1-12.2-1-9.9,10.9C2837.1,3010.5,2846.8,3000.4,2844.5,2988.5
		z M2831.4,3132.5c8.3,0.3,10.4-22.1,3.3-23.1C2826.3,3109.1,2824.3,3131.5,2831.4,3132.5z M2854.5,2912.8c-5.8,6-5.8,22.8,0.5,23.6
		c6.4,0.1,9.6-11.8,8-19.6C2861.4,2909.8,2857.1,2909.5,2854.5,2912.8z M2887.9,2868c-1.7-7.5-8.2-0.7-6.7,7.3
		C2883.1,2882.9,2889.5,2875.9,2887.9,2868z M2799,3289.3c11.2,0.3,14-29.8,4.4-31.1C2792.1,3257.9,2789.5,3287.9,2799,3289.3z
		 M2576.8,2987.5c2.8,12.6,14.2,1.6,11.5-12.6C2585.4,2962.1,2574.1,2973.6,2576.8,2987.5z M2386.2,3128.5
		c-3.1-13.3-14.8-1.6-12.1,13.2C2377.3,3155.2,2388.9,3143.2,2386.2,3128.5z M2392.7,3026.9c-2.4,16,9.7,17.6,12,1.7
		C2407,3013.3,2395,3010.5,2392.7,3026.9z M2410.4,2953.4c-3.9-17.3-19-1.6-15.3,16.8C2398.9,2987.2,2414.1,2972,2410.4,2953.4z
		 M2366.4,3265.9c2.9,12.6,13.9,1.3,11.3-12.4C2374.8,3240.9,2363.8,3252.2,2366.4,3265.9z M2438.8,3018.3
		c-4.3,28.2,17.3,31.3,21.3,3C2464.3,2993.6,2442.8,2989.5,2438.8,3018.3z M2418.4,3081.9c-4.2-17.8-19.8-1.8-16,17.5
		C2406.5,3117.1,2422.2,3101.1,2418.4,3081.9z M2417.2,3209.3c-16.6-0.5-20.6,43.9-6.5,45.9
		C2427.2,3255.8,2431.4,3211.3,2417.2,3209.3z M2362,3185.4c-3.6-16.1-17.7-1.7-14.4,15.8C2351.2,3217,2365.5,3203.2,2362,3185.4z
		 M2446.4,2966.3c10.3,0.3,15.8-19,13.3-32.4c-2.7-11.9-10-11.7-14.1-6.7C2435.9,2937.2,2436,2964.8,2446.4,2966.3z M2298.2,3204.5
		c2,9,9.8,0.8,7.9-8.7C2304,3186.8,2296.3,3195,2298.2,3204.5z M2337.9,3382.6c3.4-21.9-13.8-25.9-17.1-2.4
		C2317.3,3402.2,2334.6,3405.8,2337.9,3382.6z M2415.1,3315.4c10.8,0.3,13.3-28.4,4.2-29.7
		C2408.6,3285.4,2405.9,3314.1,2415.1,3315.4z M2325.6,3156.1c7.8-8,7.7-30.2-0.7-31.3c-8.4-0.2-12.7,15.4-10.6,26
		C2316.4,3160,2322.1,3160.5,2325.6,3156.1z M2335.1,3238.1c-4.6-19.5-21.4-1.9-17.4,19C2322.3,3276.6,2339.1,3259,2335.1,3238.1z
		 M2359.6,3035.8c8.8-9.1,3-32-4.7-22.3C2346,3022.5,2351.8,3045.4,2359.6,3035.8z M2348.7,3089.4c2,8.7,9.7,1.1,7.9-8.7
		C2354.6,3072,2346.9,3079.6,2348.7,3089.4z M3115.1,2848.3c-2-8.7-9.7-1.1-7.9,8.7C3109.2,2865.8,3116.9,2858.1,3115.1,2848.3z
		 M2546.3,2947.9c-3-13.1-14.3-1.1-11.6,12.7C2537.8,2973.7,2549.1,2961.5,2546.3,2947.9z M2569.9,2857c3.3-21.5-13.2-24-16.2-2.3
		C2550.4,2875.6,2566.8,2879.1,2569.9,2857z M2535.2,3207.3c13.2,0.4,16.3-34.9,5.2-36.5C2527.2,3170.5,2523.9,3205.7,2535.2,3207.3
		z M2598.5,2810.3c1.8-12.1-4.8-16.8-8.7-11.8c-3.8,3.9-5,12.3-3.9,17.8C2588.1,2826.8,2596.7,2822.7,2598.5,2810.3z M2531.6,3116.7
		c8.8,0.3,10.9-23.3,3.4-24.4C2526.3,3092.1,2524.2,3115.7,2531.6,3116.7z M2576,2904.6c-0.7,5,0.1,14,4.9,14.6
		c6.7,0.2,10.3-12.4,8.6-21C2587,2887.1,2577.9,2891.2,2576,2904.6z M2635,2935.9c7-7.2,7-27.4-0.6-28.5
		c-7.6-0.2-11.5,14.1-9.7,23.6C2626.7,2939.4,2631.9,2939.8,2635,2935.9z M2643,2766c-5-21.5-24.1-2.5-19.5,21.4
		C2628.5,2809.3,2647.5,2789.4,2643,2766z M2566.3,3070.4c-3.5,24,14.9,27.6,18.5,2.6C2588.3,3048.9,2569.8,3045.7,2566.3,3070.4z
		 M2490.9,2890.2c2.6-17.7-11-20.4-13.6-1.9C2474.6,2906,2488.3,2908.6,2490.9,2890.2z M2937.6,2832.2c-2.1-9.1-9.5-5.8-11.1,5.2
		C2923.6,2856.8,2941.2,2850.6,2937.6,2832.2z M2516.5,2891.2c2,9,9.9,0.9,8-8.8C2522.3,2873.3,2514.6,2881.8,2516.5,2891.2z
		 M2523.6,2841.2c4.9,0.2,7.3-6.7,8-11.6c1.6-10.8-4.2-16.7-8.5-11.4C2517.5,2824,2517.5,2840.4,2523.6,2841.2z M2505.2,2949.5
		c-3.5-15.6-17.2-1.7-14,15.3C2494.8,2980.4,2508.5,2966.6,2505.2,2949.5z M2481.2,3087.2c3.6-23.7-14.8-27.5-18.4-2.6
		C2459.2,3108.4,2477.7,3112,2481.2,3087.2z M2483.1,3177.4c7.8,0.2,9.6-20.6,3-21.5C2478.3,3155.6,2476.5,3176.4,2483.1,3177.4z
		 M3302.9,3167c7.8,0.2,9.6-20.6,3-21.5C3298.2,3145.2,3296.3,3166.1,3302.9,3167z M2483.2,3355c-3.9-16.9-18.6-1.7-15.1,16.5
		C2472.1,3388.3,2486.7,3373.1,2483.2,3355z M2549.4,3561.9c3.4,14.9,16.4,1.4,13.3-14.6C2559.3,3532.4,2546.2,3545.9,2549.4,3561.9
		z M2527.8,3020.7c1.4-9.7-6.1-11.1-7.5-1.1C2518.9,3029.7,2526.4,3030.6,2527.8,3020.7z M2951.3,2871.9c-1.4,10,6.1,10.9,7.5,1.1
		C2960.1,2863.3,2952.7,2861.9,2951.3,2871.9z M2720,2746.5c-3.5-15.3-16.8-1.4-13.6,14.9C2709.9,2776.7,2723.2,2762.8,2720,2746.5z
		 M3237.3,3364.7c-2.3-9.8-10.7-1-8.7,9.6C3230.9,3384.1,3239.3,3375.2,3237.3,3364.7z M3299.5,3363.5c4.4-29.2-18.2-33.5-22.5-3.2
		C3272.7,3389,3295.1,3394.5,3299.5,3363.5z M3267.5,3145.3c-3.4,3.5-3.7,14.3,0.3,14.9C3276,3160.3,3273.4,3137.7,3267.5,3145.3z
		 M3309.7,3246.5c-2.7-11.8-13.2-1.3-10.6,11.7C3301.8,3270.1,3312.2,3259.2,3309.7,3246.5z M3200.2,3334.1
		c0.7-4.7-0.1-13.1-4.6-13.8c-6.3-0.2-9.6,11.8-8.1,19.7C3189.9,3350.5,3198.4,3346.7,3200.2,3334.1z M3188,3545.8
		c5.3,23,25.4,2.1,20.5-22.6C3203.4,3500.6,3183.1,3520.7,3188,3545.8z M3194.8,3386.8c-1.8-7.7-8-4.7-9.3,4.3
		C3183.2,3407.5,3197.7,3402.1,3194.8,3386.8z M3192.7,3467.9c7.8,0.2,9.5-20.5,3-21.5C3188,3446.2,3186.1,3467,3192.7,3467.9z
		 M3277,3286c-6.8,7-2.2,24.3,3.6,16.9C3287.3,3295.9,3282.8,3278.6,3277,3286z M3241.7,3302c1-6.6-0.3-16.7-5.8-17.5
		c-8.1-0.2-12.2,15.1-10.3,25C3228.7,3323,3239.5,3317.7,3241.7,3302z M3256.4,3229.7c3.6-23.4-14.7-27.4-18.2-2.6
		C3234.6,3250.7,3252.9,3254.3,3256.4,3229.7z M3228.1,3112.9c3.6,15.3,16.8,1.5,13.6-14.9
		C3238.1,3082.7,3224.9,3096.3,3228.1,3112.9z M3288.8,3099c3.4-22-13.8-26-17.1-2.4C3268.3,3118.7,3285.5,3122.3,3288.8,3099z
		 M3159.7,3574.3c-9.6-0.3-14.6,17.8-12.3,29.9c3.6,15.8,16.5,10.1,19.2-9C3168,3586.4,3165.9,3575.2,3159.7,3574.3z M3272.9,3420.4
		c-4.2-0.2-5.9,7.9-5,12.2c1.4,6.5,6.7,4.1,7.9-3.7C3276.2,3426,3275.8,3420.8,3272.9,3420.4z M3284.8,3220c6.5,0.2,9.8-12.1,8.2-20
		c-1.6-7.1-6-7.5-8.7-4.1C3278.4,3201.9,3278.4,3219.1,3284.8,3220z M3227.1,3427.8c-3,19.9,12.5,23.7,15.6,2.2
		C3245.7,3409.8,3230.1,3406.8,3227.1,3427.8z M3231.3,3493c2.9,12.4,13.6,1.3,11.1-12.1C3239.5,3468.5,3228.7,3479.5,3231.3,3493z
		 M3029.5,3548.9c-15.7-0.5-19.7,41.8-6.2,43.7C3039,3593.1,3043.1,3550.8,3029.5,3548.9z M3077.9,3529.2c5.3,0.1,7.3-10,6.3-15.3
		c-1.2-5.5-4.6-5.7-6.7-3.2C3073.1,3515.3,3072.9,3528.5,3077.9,3529.2z M3133.3,3149.2c-3.5,22.7,14.3,26.8,17.7,2.5
		C3154.5,3129.1,3136.7,3124.8,3133.3,3149.2z M3095,3373.1c-5.5,5.6-5.6,21.7,0.5,22.6c4.8,0.1,7.1-6.6,7.8-11.3
		C3104.9,3373.8,3099.2,3367.9,3095,3373.1z M3035.2,3695.4c-7.5-0.2-5.2,20.6,0.3,13.6C3038.7,3705.8,3038.9,3696,3035.2,3695.4z
		 M3067.6,3436.9c-3.2-13.8-15.1-1.2-12.2,13.4C3058.6,3464.2,3070.5,3451.4,3067.6,3436.9z M3037.6,3657.5c4,17.4,19.1,1.7,15.5-17
		C3049.1,3623.1,3034,3638.8,3037.6,3657.5z M3216.7,3169.6c-2.3,15.1,9.4,17.3,11.6,1.6C3230.5,3156.4,3218.9,3153.9,3216.7,3169.6
		z M3111.6,3188.2c1.9-13.8-8.4-15.1-10.3-1.5C3099.2,3200,3109.6,3202.2,3111.6,3188.2z M3091.6,3317.8c4,17,19,1.8,15.4-16.8
		C3103,3283.9,3088,3299.1,3091.6,3317.8z M3182.5,3178.1c1.8-11.6-9-8.2-6.8,3.2C3177.1,3187.1,3181.6,3184.4,3182.5,3178.1z
		 M3206.6,3065c3.9-25.2-15.8-29.5-19.6-2.8C3183.1,3087.4,3202.8,3091.9,3206.6,3065z M3174.7,3218.1c2.5-16.7-10.4-19.1-12.9-1.8
		C3159.4,3232.9,3172.2,3235.6,3174.7,3218.1z M3153.4,3289.7c-3.9,25.7,16.2,30.6,20.1,2.9
		C3177.5,3266.7,3157.3,3262.1,3153.4,3289.7z M3153,3374.9c-1.8-7.8-6.7-8.2-9.6-4.5c-6.4,6.5-6.6,25.5,0.6,26.5
		C3151.1,3397,3154.6,3383.7,3153,3374.9z M3105.7,3636.6c-2.8,18,11.3,21,14,2C3122.5,3620.7,3108.4,3617.6,3105.7,3636.6z
		 M3127.4,3562c3.1-20.7-12.9-23.8-15.9-2.3C3108.4,3580.5,3124.3,3583.6,3127.4,3562z M3115.7,3428.2c-5.3-23.1-25.9-2.6-20.9,22.9
		C3100.1,3474.2,3120.7,3453.7,3115.7,3428.2z M3076.2,3559.5c-7.2-0.2-8.9,19.1-2.8,20C3080.4,3579.7,3082.2,3560.4,3076.2,3559.5z
		 M3193.6,3124.7c-2.9-12.8-14.3-1.4-11.6,12.7C3185,3150.5,3196.3,3138.7,3193.6,3124.7z M2993.1,2841.4
		c-2.2,14.6,9.3,17.5,11.5,1.6C3006.9,2828.2,2995.3,2825.8,2993.1,2841.4z M2995.7,3279.7c9.5,0.4,11.8-25.2,3.7-26.3
		C2990,3253,2987.6,3278.6,2995.7,3279.7z M3029.8,2933.4c-8.3,8.6-2.7,29.5,4.4,20.7C3042.5,2945.4,3036.9,2924.5,3029.8,2933.4z
		 M3045,3042.1c-3.4-14.5-16.1-1.4-13.1,14.3C3035.3,3070.9,3048,3057.9,3045,3042.1z M3027.6,2979.5c-4.6,4.8-5.3,19.4,0.4,20.2
		c1.4,0,2.6-0.5,3.5-1.6C3038.9,2990.4,3034,2971.6,3027.6,2979.5z M3043.8,2832c5.9-6.1,2.1-21.4-3.2-14.9
		C3034.7,2823.1,3038.5,2838.5,3043.8,2832z M3042.1,3286.1c0.5-3.2,0.4-6.4-0.2-9.6c-3-13.1-13.5-7.8-15.6,7.3
		C3023.2,3304.2,3039.1,3307.7,3042.1,3286.1z M3086.7,2997.7c-3.7-16.3-17.9-1.5-14.4,15.9
		C3075.9,3029.8,3090.1,3014.9,3086.7,2997.7z M3084.6,2872.8c2.6-17.6-10.9-20.1-13.5-1.9C3068.5,2888.4,3082,2891.1,3084.6,2872.8
		z M3060.7,2924.3c3.6,0.2,5-6.8,4.3-10.5c-0.9-3.8-3.2-3.9-4.6-2.2C3057.5,2914.7,3057.2,2923.8,3060.7,2924.3z M2941.7,2981.5
		c-3.1-13.4-14.9-1.4-12.1,13.2C2932.8,3008.3,2944.5,2996,2941.7,2981.5z M2964.5,3083.9c2.6-17.2-10.8-20.2-13.4-1.9
		C2948.5,3099.8,2962,3101.6,2964.5,3083.9z M2962.3,2933.2c5.7,0.1,8.6-10.6,7.3-17.7c-1.4-6.3-5.3-6.6-7.7-3.6
		C2956.6,2917.3,2956.6,2932.4,2962.3,2933.2z M3092.4,2954.8c1.7-11.1-6.8-12.5-8.4-1.2C3082.3,2964.7,3090.9,2966,3092.4,2954.8z
		 M3231.8,3061.5c9.6,0.3,11.9-25.3,3.8-26.5C3226,3034.8,3223.7,3060.4,3231.8,3061.5z M3021.2,2884.8
		c-3.4-14.8-16.5-1.5-13.4,14.6C3011.3,2914.6,3024.3,2900.9,3021.2,2884.8z M3004.7,3092.2c2.3-15.2-9.5-17.4-11.7-1.7
		C2990.7,3105.7,3002.4,3108.1,3004.7,3092.2z M2999.3,2799.4c4.9,0.2,6.3-13.1,1.9-13.7C2996.4,2785.5,2995,2798.8,2999.3,2799.4z
		 M2982.7,2983.9c9.7,0.3,12.1-25.9,3.8-27.1C2976.8,2956.5,2974.4,2982.7,2982.7,2983.9z M2966,2775.8c-0.6-2.6-1.9-6.6-5.2-7
		c-7.4-0.2-11.3,13.6-9.5,23.1C2955,2808,2969.6,2793.8,2966,2775.8z M2919.5,3111.7c-2.3,15.2,9.5,17.5,11.7,1.7
		C2933.5,3098.4,2921.8,3095.7,2919.5,3111.7z M3111,2910.1c2.9-18.3-11.5-21.4-14.2-2C3094,2926.2,3108.2,2929.7,3111,2910.1z
		 M3119.3,3499.6c3.6,0.2,5-6.8,4.3-10.5c-1.3-5.6-5.8-3.6-6.8,3.2C3116.4,3494.7,3116.9,3499.2,3119.3,3499.6z M3119.7,3335.7
		c-2.5,16.7,10.4,19.2,12.9,1.8C3135,3321,3122.2,3318.1,3119.7,3335.7z M3079.8,3624.6c3.8,16.3,17.9,1.5,14.5-15.9
		C3090.5,3592.4,3076.5,3607.4,3079.8,3624.6z M3141.5,3510.7c-4.7,31.1,19.4,36.2,24.1,3.4
		C3170.2,3483,3146.1,3477.9,3141.5,3510.7z M3212.2,3240.9c-3.7-16.2-18.1-1.8-14.6,16C3201.3,3272.9,3215.7,3258.6,3212.2,3240.9z
		 M3150.7,3437.1c2.4,10.4,11.4,1.1,9.3-10.2C3157.7,3416.7,3148.5,3425.7,3150.7,3437.1z M3211.9,3003.9c12.7,0.5,15.8-33.6,5-35.2
		C3204.3,2968.3,3201,3002.4,3211.9,3003.9z M3137.9,3247.5c8,0.2,10-21.3,3.2-22.3C3133,3225.1,3131.1,3246.5,3137.9,3247.5z
		 M3097.4,3075.2c7-7.2,7.2-27.8-0.6-28.9c-6.1-0.2-9.1,8.4-10,14.5C3084.6,3075.3,3092.4,3081.5,3097.4,3075.2z M3071,3244.4
		c5.1,22,24.1,2,19.5-21.4C3085.5,3201.3,3066.5,3220.8,3071,3244.4z M3128.7,2996.6c2.3-15.2-9.3-16.9-11.5-1.6
		C3115,3009.8,3126.5,3012.1,3128.7,2996.6z M3144.1,2943.7c-3-12.9-14.1-1.1-11.4,12.5C3135.6,2969.1,3146.7,2957.3,3144.1,2943.7z
		 M3156.9,3044.6c3.2-21.9-13.6-25.2-16.8-2.4C3136.8,3064,3153.6,3067.3,3156.9,3044.6z M3153.8,2881.8c-1.7-7.7-8.4-0.6-6.8,7.5
		C3148.7,2897,3155.4,2889.9,3153.8,2881.8z M3167.7,2990.7c9.6,0.3,11.9-25.3,3.8-26.5C3161.9,2963.9,3159.6,2989.5,3167.7,2990.7z
		"/>
	
		<radialGradient id="SVGID_00000166671212984007531580000004224142564425411468_" cx="490.7736" cy="489.4942" r="448.1891" gradientTransform="matrix(1.0821 0 0 0.9629 -35.8886 23.4255)" gradientUnits="userSpaceOnUse">
		<stop  offset="0" style="stop-color:#FFFFFF"/>
		<stop  offset="1.154247e-03" style="stop-color:#FEFDFD"/>
		<stop  offset="1.569918e-03" style="stop-color:#FCF7F6"/>
		<stop  offset="1.866271e-03" style="stop-color:#F7EBEB"/>
		<stop  offset="2.105806e-03" style="stop-color:#F1DADA"/>
		<stop  offset="2.308476e-03" style="stop-color:#E8C5C4"/>
		<stop  offset="2.487274e-03" style="stop-color:#DEABA9"/>
		<stop  offset="2.501311e-03" style="stop-color:#DDA9A7"/>
		<stop  offset="0.6706" style="stop-color:#C3B1C3"/>
		<stop  offset="1" style="stop-color:#B4B5D2"/>
	</radialGradient>
	
		<path style="clip-path:url(#SVGID_00000093884648376729023400000015014763760535399822_);fill:url(#SVGID_00000166671212984007531580000004224142564425411468_);" d="
		M791.7,72.2c-134.3-61.4-381-2.8-500.2,71.7c-48.1,30-86.3,68.1-120,107.9c-83.4,98.6-192.5,275.3-116,391.4
		c20.3,30.8,51.2,56.7,78.8,84.1c70,69.3,116,135,208,178.4c17.9,8.5,37.6,16.1,59.5,22.7c36.7,11.1,77.2,18.8,115.7,11.8
		C675.2,911.6,841.7,811.6,901.8,696c45.3-87.1,52.1-197.9,57.8-291.4C969.7,240.1,909.2,125.9,791.7,72.2z"/>
	
		<linearGradient id="SVGID_00000064327069772917343910000003153442799850971821_" gradientUnits="userSpaceOnUse" x1="194.6479" y1="340.9069" x2="271.3253" y2="224.1076">
		<stop  offset="0" style="stop-color:#A26B2E"/>
		<stop  offset="0.1" style="stop-color:#B6802E"/>
		<stop  offset="0.25" style="stop-color:#E3AB2C"/>
		<stop  offset="0.39" style="stop-color:#FFF6AF"/>
		<stop  offset="0.45" style="stop-color:#DDA62C"/>
		<stop  offset="0.65" style="stop-color:#B0742A"/>
		<stop  offset="0.75" style="stop-color:#9C5B27"/>
		<stop  offset="0.91" style="stop-color:#F2BA2D"/>
		<stop  offset="1" style="stop-color:#FFF1B5"/>
	</linearGradient>
	
		<path style="clip-path:url(#SVGID_00000093884648376729023400000015014763760535399822_);fill:url(#SVGID_00000064327069772917343910000003153442799850971821_);" d="
		M233.2,343.6c0,0-30.7-17.8-29.1-55.9c1.6-38.1,14.5-43.3,26.2-50.7c11.6-7.4,44-5.5,44-5.5s-46.2,8.7-51.1,49.1
		C218.4,320.9,233.2,343.6,233.2,343.6z"/>
	<g style="clip-path:url(#SVGID_00000093884648376729023400000015014763760535399822_);">
		
			<linearGradient id="SVGID_00000007417257243781882420000013932118583824567993_" gradientUnits="userSpaceOnUse" x1="-13.655" y1="121.4969" x2="528.3297" y2="378.71">
			<stop  offset="0" style="stop-color:#A26B2E"/>
			<stop  offset="0.1" style="stop-color:#B6802E"/>
			<stop  offset="0.25" style="stop-color:#E3AB2C"/>
			<stop  offset="0.39" style="stop-color:#FFF6AF"/>
			<stop  offset="0.45" style="stop-color:#DDA62C"/>
			<stop  offset="0.65" style="stop-color:#B0742A"/>
			<stop  offset="0.75" style="stop-color:#9C5B27"/>
			<stop  offset="0.91" style="stop-color:#F2BA2D"/>
			<stop  offset="1" style="stop-color:#FFF1B5"/>
		</linearGradient>
		<path style="fill:url(#SVGID_00000007417257243781882420000013932118583824567993_);" d="M357,238.8c-57-38-112.5-17-113-16.8
			c-21.7,13.3-30.7,28-30.7,28s36.8-25.2,89.7,0c52.8,25.2,79.5,119.8,79.5,119.8l55.9-18.1c-1.1-5.8-2.6-13.2-4.8-20.1
			C429.1,317.4,414.2,277,357,238.8z"/>
		
			<linearGradient id="SVGID_00000097458736688022483670000016353346402255754942_" gradientUnits="userSpaceOnUse" x1="244.063" y1="283.7129" x2="480.0261" y2="283.7129">
			<stop  offset="0" style="stop-color:#A26B2E"/>
			<stop  offset="0.1" style="stop-color:#B6802E"/>
			<stop  offset="0.25" style="stop-color:#E3AB2C"/>
			<stop  offset="0.39" style="stop-color:#FFF6AF"/>
			<stop  offset="0.45" style="stop-color:#DDA62C"/>
			<stop  offset="0.65" style="stop-color:#B0742A"/>
			<stop  offset="0.75" style="stop-color:#9C5B27"/>
			<stop  offset="0.91" style="stop-color:#F2BA2D"/>
			<stop  offset="1" style="stop-color:#FFF1B5"/>
		</linearGradient>
		<path style="fill:url(#SVGID_00000097458736688022483670000016353346402255754942_);" d="M445.1,269.9
			c-34.9-39.8-93.6-76.1-151.7-65.9c-20.9,3.7-37.1,10.6-49.3,18.1c0.5-0.2,56-21.1,113,16.8c57.2,38.1,72.1,78.5,76.6,92.8
			c2.2,6.9,3.8,14.3,4.8,20.1l19.1,13.5l22.4-27C480,338.2,480,309.6,445.1,269.9z"/>
	</g>
	
		<radialGradient id="SVGID_00000176022870037324647820000004070419739956705436_" cx="459.1783" cy="352.2997" r="126.9898" gradientUnits="userSpaceOnUse">
		<stop  offset="0" style="stop-color:#A67C52"/>
		<stop  offset="1" style="stop-color:#FFFFFF"/>
	</radialGradient>
	
		<path style="clip-path:url(#SVGID_00000093884648376729023400000015014763760535399822_);fill:url(#SVGID_00000176022870037324647820000004070419739956705436_);" d="
		M445.1,269.9c-6.1-7-13-13.8-20.4-20.4c-8.6,7.5-16,17.2-21.3,27.1c-0.2,0.4-0.6,0.6-1,0.5c-0.2-0.1-0.5-0.1-0.7-0.2
		c-16.9-3.8-34.4-7.1-51.8-5.5c-5.6,0.5-11.2,1.3-16.7,2.3c32.9,37.2,49.5,96,49.5,96l55.9-18.1l19.1,13.5l22.4-27
		C480,338.2,480,309.6,445.1,269.9z"/>
	
		<linearGradient id="SVGID_00000103981187137709967480000008874290005961771686_" gradientUnits="userSpaceOnUse" x1="582.1024" y1="97.1275" x2="432.3139" y2="427.0188">
		<stop  offset="0" style="stop-color:#A26B2E"/>
		<stop  offset="0.1" style="stop-color:#B6802E"/>
		<stop  offset="0.25" style="stop-color:#E3AB2C"/>
		<stop  offset="0.39" style="stop-color:#FFF6AF"/>
		<stop  offset="0.45" style="stop-color:#DDA62C"/>
		<stop  offset="0.65" style="stop-color:#B0742A"/>
		<stop  offset="0.75" style="stop-color:#9C5B27"/>
		<stop  offset="0.91" style="stop-color:#F2BA2D"/>
		<stop  offset="1" style="stop-color:#FFF1B5"/>
	</linearGradient>
	
		<path style="clip-path:url(#SVGID_00000093884648376729023400000015014763760535399822_);fill:url(#SVGID_00000103981187137709967480000008874290005961771686_);" d="
		M500.9,250.5c16-70.3,69.3-86.7,89.4-90.6c5-1,10.8-1.1,16.7-0.8c-7.2-1.4-15.4-2-24.7-1.6c-63,2.4-106.7,42.2-125.1,101.3
		c-18.4,59.1,3.9,121.7,3.9,121.7l28.1,17.5c0,0,4.6-4,11.6-10.4C496.1,358.1,489.4,300.7,500.9,250.5z"/>
	
		<linearGradient id="SVGID_00000057848797731542321450000015474967337369949845_" gradientUnits="userSpaceOnUse" x1="678.5052" y1="259.9063" x2="183.6683" y2="310.7274">
		<stop  offset="0" style="stop-color:#A26B2E"/>
		<stop  offset="0.1" style="stop-color:#B6802E"/>
		<stop  offset="0.25" style="stop-color:#E3AB2C"/>
		<stop  offset="0.39" style="stop-color:#FFF6AF"/>
		<stop  offset="0.45" style="stop-color:#DDA62C"/>
		<stop  offset="0.65" style="stop-color:#B0742A"/>
		<stop  offset="0.75" style="stop-color:#9C5B27"/>
		<stop  offset="0.91" style="stop-color:#F2BA2D"/>
		<stop  offset="1" style="stop-color:#FFF1B5"/>
	</linearGradient>
	
		<path style="clip-path:url(#SVGID_00000093884648376729023400000015014763760535399822_);fill:url(#SVGID_00000057848797731542321450000015474967337369949845_);" d="
		M633.7,177.1c7.7,2.3,14,8.3,19,14.7c-7.8-14.6-21-28.1-45.6-32.8c-5.9-0.3-11.8-0.1-16.7,0.8c-20.1,3.9-73.4,20.3-89.4,90.6
		c-11.4,50.2-4.8,107.6-0.1,137c20.9-19.4,62.6-60.6,59.7-78.8c-3.9-24.2-7.3-55.8,7.3-88.7s34.9-38.3,34.9-38.3
		S617.2,172.3,633.7,177.1z"/>
	
		<radialGradient id="SVGID_00000104693420992409779220000003816551625253387967_" cx="493.1155" cy="374.6007" r="146.7566" gradientUnits="userSpaceOnUse">
		<stop  offset="0" style="stop-color:#A67C52"/>
		<stop  offset="1" style="stop-color:#FFFFFF"/>
	</radialGradient>
	
		<path style="clip-path:url(#SVGID_00000093884648376729023400000015014763760535399822_);fill:url(#SVGID_00000104693420992409779220000003816551625253387967_);" d="
		M565.9,224.5c-9.4-2.8-19.1-4.6-28.4-6.3c-14.8-2.8-29.9-4.9-45-5.4c-4.4-0.1-8.7-0.1-13.1,0c-9.4,13.4-16.8,28.9-22.2,46
		c-18.4,59.1,3.9,121.7,3.9,121.7l28.1,17.5c0,0,4.6-4,11.6-10.4c20.9-19.4,62.6-60.6,59.7-78.8
		C556.8,285.5,553.6,255.8,565.9,224.5z"/>
	
		<linearGradient id="SVGID_00000148647903948190007380000001831006135263593653_" gradientUnits="userSpaceOnUse" x1="544.5044" y1="117.8246" x2="694.2928" y2="243.5399">
		<stop  offset="0" style="stop-color:#A26B2E"/>
		<stop  offset="0.1" style="stop-color:#B6802E"/>
		<stop  offset="0.25" style="stop-color:#E3AB2C"/>
		<stop  offset="0.39" style="stop-color:#FFF6AF"/>
		<stop  offset="0.45" style="stop-color:#DDA62C"/>
		<stop  offset="0.65" style="stop-color:#B0742A"/>
		<stop  offset="0.75" style="stop-color:#9C5B27"/>
		<stop  offset="0.91" style="stop-color:#F2BA2D"/>
		<stop  offset="1" style="stop-color:#FFF1B5"/>
	</linearGradient>
	
		<path style="clip-path:url(#SVGID_00000093884648376729023400000015014763760535399822_);fill:url(#SVGID_00000148647903948190007380000001831006135263593653_);" d="
		M709.8,251c-18.4,6.3-39.8-5.3-46.5-30.1c-2.3-8.6-5.2-19.1-10.6-29.1c-5-6.4-11.3-12.4-19-14.7c-16.5-4.9-31,4.5-31,4.5
		s4.4,16,18.4,47c14.1,31,46.1,39.3,78.1,31c32-8.2,39.8-33,39.8-33S728.3,244.7,709.8,251z"/>
	
		<linearGradient id="SVGID_00000129178442096613995340000004541700669141118111_" gradientUnits="userSpaceOnUse" x1="446.3102" y1="400.6485" x2="49.0079" y2="343.2349">
		<stop  offset="0" style="stop-color:#A26B2E"/>
		<stop  offset="0.1" style="stop-color:#B6802E"/>
		<stop  offset="0.25" style="stop-color:#E3AB2C"/>
		<stop  offset="0.39" style="stop-color:#FFF6AF"/>
		<stop  offset="0.45" style="stop-color:#DDA62C"/>
		<stop  offset="0.65" style="stop-color:#B0742A"/>
		<stop  offset="0.75" style="stop-color:#9C5B27"/>
		<stop  offset="0.91" style="stop-color:#F2BA2D"/>
		<stop  offset="1" style="stop-color:#FFF1B5"/>
	</linearGradient>
	
		<path style="clip-path:url(#SVGID_00000093884648376729023400000015014763760535399822_);fill:url(#SVGID_00000129178442096613995340000004541700669141118111_);" d="
		M173.1,407.1c20.4,33,78.4,23.3,122.8-10.7c44.4-33.9,108.3-50.4,138.5-36.8c13.1,5.9,22.2,10.8,28.3,14.4c2.8-1.2,4.3-1.9,4.3-1.9
		s-21.5-36.4-67.6-38.8c-46.1-2.4-78.1,10.7-119.8,40.2c-41.7,29.6-67.4,41.2-94.5,24.2c-27.1-17-21.3-54.3-21.3-54.3
		S152.8,374.1,173.1,407.1z"/>
	
		<linearGradient id="SVGID_00000011744459715658634090000001193297529513147817_" gradientUnits="userSpaceOnUse" x1="368.0241" y1="424.2115" x2="-93.5815" y2="256.5636">
		<stop  offset="0" style="stop-color:#A26B2E"/>
		<stop  offset="0.1" style="stop-color:#B6802E"/>
		<stop  offset="0.25" style="stop-color:#E3AB2C"/>
		<stop  offset="0.39" style="stop-color:#FFF6AF"/>
		<stop  offset="0.45" style="stop-color:#DDA62C"/>
		<stop  offset="0.65" style="stop-color:#B0742A"/>
		<stop  offset="0.75" style="stop-color:#9C5B27"/>
		<stop  offset="0.91" style="stop-color:#F2BA2D"/>
		<stop  offset="1" style="stop-color:#FFF1B5"/>
	</linearGradient>
	
		<path style="clip-path:url(#SVGID_00000093884648376729023400000015014763760535399822_);fill:url(#SVGID_00000011744459715658634090000001193297529513147817_);" d="
		M434.5,359.6c-30.2-13.6-94.1,2.8-138.5,36.8c-44.4,33.9-102.5,43.6-122.8,10.7c-20.4-33-9.2-63.5-9.2-63.5s-28.6,56.7,20.8,98.4
		c49.5,41.7,151.1,2.1,187.9-21.7c30.8-19.9,76-40.1,90.1-46.2C456.7,370.4,447.5,365.5,434.5,359.6z"/>
	
		<radialGradient id="SVGID_00000120517868622174421990000017301010489010951582_" cx="460.1497" cy="367.4895" r="156.4462" gradientUnits="userSpaceOnUse">
		<stop  offset="0" style="stop-color:#A67C52"/>
		<stop  offset="1" style="stop-color:#FFFFFF"/>
	</radialGradient>
	
		<path style="clip-path:url(#SVGID_00000093884648376729023400000015014763760535399822_);fill:url(#SVGID_00000120517868622174421990000017301010489010951582_);" d="
		M399.5,333.4c-37.9-2-66.3,6.6-98.5,26.2c-2,19.1-2,38.4-0.8,57.6c0.7,10.9,1.5,22.3,3.8,33.3c28.3-8.4,53.8-20.6,68.6-30.2
		c30.8-19.9,76-40.1,90.1-46.2c2.8-1.2,4.3-1.9,4.3-1.9S445.6,335.8,399.5,333.4z"/>
	
		<linearGradient id="SVGID_00000004504559132095639830000015714457196223130759_" gradientUnits="userSpaceOnUse" x1="343.78" y1="284.057" x2="1012.0748" y2="325.3948">
		<stop  offset="0" style="stop-color:#A26B2E"/>
		<stop  offset="0.1" style="stop-color:#B6802E"/>
		<stop  offset="0.25" style="stop-color:#E3AB2C"/>
		<stop  offset="0.39" style="stop-color:#FFF6AF"/>
		<stop  offset="0.45" style="stop-color:#DDA62C"/>
		<stop  offset="0.65" style="stop-color:#B0742A"/>
		<stop  offset="0.75" style="stop-color:#9C5B27"/>
		<stop  offset="0.91" style="stop-color:#F2BA2D"/>
		<stop  offset="1" style="stop-color:#FFF1B5"/>
	</linearGradient>
	
		<path style="clip-path:url(#SVGID_00000093884648376729023400000015014763760535399822_);fill:url(#SVGID_00000004504559132095639830000015714457196223130759_);" d="
		M625,330c61.6,35.4,127.5,49,159.5,19.9c32-29.1,32.5-63.5,18.4-95c0,0,2.4,9.7,3.4,18.4c1,8.7,1.5,51.9-55.3,67.9
		c-56.7,16-83.9-54.3-150.8-60.6c-40.5-3.8-68.3,17.1-84,34.1C536.9,309.8,580.4,304.4,625,330z"/>
	
		<linearGradient id="SVGID_00000080901787447881070560000013589390290226549693_" gradientUnits="userSpaceOnUse" x1="503.53" y1="310.7699" x2="848.0118" y2="347.5146">
		<stop  offset="0" style="stop-color:#A26B2E"/>
		<stop  offset="0.1" style="stop-color:#B6802E"/>
		<stop  offset="0.25" style="stop-color:#E3AB2C"/>
		<stop  offset="0.39" style="stop-color:#FFF6AF"/>
		<stop  offset="0.45" style="stop-color:#DDA62C"/>
		<stop  offset="0.65" style="stop-color:#B0742A"/>
		<stop  offset="0.75" style="stop-color:#9C5B27"/>
		<stop  offset="0.91" style="stop-color:#F2BA2D"/>
		<stop  offset="1" style="stop-color:#FFF1B5"/>
	</linearGradient>
	
		<path style="clip-path:url(#SVGID_00000093884648376729023400000015014763760535399822_);fill:url(#SVGID_00000080901787447881070560000013589390290226549693_);" d="
		M802.9,254.8c14.1,31.5,13.6,65.9-18.4,95c-32,29.1-97.9,15.5-159.5-19.9c-44.6-25.6-88.1-20.2-108.8-15.3
		c-10.2,11.1-15.3,20.7-15.3,20.7l48,49c0,0,81.5,33,145.5,33.7c64,0.7,102.3-23.5,120.2-76.4C832.5,288.8,802.9,254.8,802.9,254.8z
		"/>
	
		<radialGradient id="SVGID_00000012463499179544631390000014714135549383575696_" cx="440.8001" cy="255.2589" r="141.4918" gradientTransform="matrix(1.0439 -0.2782 0.2746 1.0302 -149.1055 122.2421)" gradientUnits="userSpaceOnUse">
		<stop  offset="2.424240e-02" style="stop-color:#C27D13"/>
		<stop  offset="0.9758" style="stop-color:#360000"/>
	</radialGradient>
	
		<path style="clip-path:url(#SVGID_00000093884648376729023400000015014763760535399822_);fill:url(#SVGID_00000012463499179544631390000014714135549383575696_);" d="
		M490.9,442.5c-1.9-9.8-25.4-108-28.1-118.5c-15.3-59.5-74.9-215.9-90.6-231.6c-20.1-20.1-43-24.3-56.9-22.8
		c-15.7,1.7-29.5,10.7-37.8,20.8c-9.2,11.3-3,31.3,27.5,35.6c26.6,3.7,43.8-6.5,66.3,40.5C419.1,266.9,495.6,466.4,490.9,442.5z"/>
	
		<radialGradient id="SVGID_00000027588913367772678400000014150322380290590358_" cx="521.7984" cy="361.0934" r="83.1449" gradientTransform="matrix(-1.6747 -0.5822 -0.3536 1.0171 1478.0867 275.2014)" gradientUnits="userSpaceOnUse">
		<stop  offset="2.424240e-02" style="stop-color:#C27D13"/>
		<stop  offset="0.9758" style="stop-color:#360000"/>
	</radialGradient>
	
		<path style="clip-path:url(#SVGID_00000093884648376729023400000015014763760535399822_);fill:url(#SVGID_00000027588913367772678400000014150322380290590358_);" d="
		M485.3,212.9c30.3,6.5,21.1,44,0.6,52.8c-23.2,10-16.4,48.2-12.1,76.2c1.8,8,3.6,15.9,5.2,23.7c3.8,18,11.7,36.6,14.7,54.5
		c3.2,19.5-4.4,74-6.6,42.4c-2.7-39.3-12.9-79-22.9-119.2c-3.5-13.9-25-96.5-5.5-119.8C464.7,216.3,470.3,209.7,485.3,212.9z"/>
	
		<radialGradient id="SVGID_00000031182599099610699420000013492266630466834325_" cx="525.5556" cy="388.059" r="83.9305" gradientTransform="matrix(0.7796 -1.5925 0.9672 0.4735 -340.4209 1006.9836)" gradientUnits="userSpaceOnUse">
		<stop  offset="2.424240e-02" style="stop-color:#C27D13"/>
		<stop  offset="0.9758" style="stop-color:#360000"/>
	</radialGradient>
	
		<path style="clip-path:url(#SVGID_00000093884648376729023400000015014763760535399822_);fill:url(#SVGID_00000031182599099610699420000013492266630466834325_);" d="
		M348.6,270.3c-16.9,26,18.6,46.7,39.4,38.5c23.6-9.2,45.6,22.7,62.2,45.6c4.4,6.9,8.6,13.8,12.9,20.5c10,15.5,17.4,34.2,27.9,49
		c11.4,16.1,55.3,49.4,34.5,25.5c-25.7-29.8-46.4-65.2-67.6-100.8c-7.4-12.3-49-81.7-80.5-89C368.4,257.5,357,257.5,348.6,270.3z"/>
	
		<radialGradient id="SVGID_00000132064538071085947500000007930576027536191405_" cx="569.9636" cy="1072.7792" r="195.1476" gradientUnits="userSpaceOnUse">
		<stop  offset="0" style="stop-color:#336B2C"/>
		<stop  offset="0.9818" style="stop-color:#0F310B"/>
	</radialGradient>
	
		<path style="clip-path:url(#SVGID_00000093884648376729023400000015014763760535399822_);fill:url(#SVGID_00000132064538071085947500000007930576027536191405_);" d="
		M579.7,1093c-21.8-66.7-54.5-107.8-56.5-177.1c-1.9-69.3,17.3-111.7,17.3-111.7s-53.9,100.1-26.3,204.7
		c27.6,104.6,49.4,117.4,64.2,188c14.8,70.6,23.1,89.2,32.1,111c9,21.8,23.1,33.4,23.1,33.4s-17.3-21.7-24.9-62.2
		C601,1238.6,601.5,1159.7,579.7,1093z"/>
	
		<radialGradient id="SVGID_00000047028671372288910630000004888850128702416051_" cx="578.3193" cy="1072.7792" r="193.8711" gradientUnits="userSpaceOnUse">
		<stop  offset="0" style="stop-color:#448630"/>
		<stop  offset="0.9939" style="stop-color:#0C3D11"/>
	</radialGradient>
	
		<path style="clip-path:url(#SVGID_00000093884648376729023400000015014763760535399822_);fill:url(#SVGID_00000047028671372288910630000004888850128702416051_);" d="
		M618.8,1261.8c0.6-57.8,14.1-100.1-11.6-197.6c-25.7-97.5-54.2-123.6-66.7-177.3c-12.6-53.8,0-82.6,0-82.6s-19.2,42.4-17.3,111.7
		c1.9,69.3,34.7,110.4,56.5,177.1c21.8,66.7,21.3,145.6,29,186.1c7.6,40.5,24.9,62.2,24.9,62.2S618.2,1319.5,618.8,1261.8z"/>
	
		<radialGradient id="SVGID_00000062910267942393619910000003444600646729173694_" cx="498.6745" cy="1086.2529" r="193.2825" gradientUnits="userSpaceOnUse">
		<stop  offset="0" style="stop-color:#448630"/>
		<stop  offset="0.9939" style="stop-color:#0C3D11"/>
	</radialGradient>
	
		<path style="clip-path:url(#SVGID_00000093884648376729023400000015014763760535399822_);fill:url(#SVGID_00000062910267942393619910000003444600646729173694_);" d="
		M494.3,956.3c4.5-91.8,31.4-141.2,31.4-141.2c-0.8,0.9-1.6,1.9-2.4,2.9c-8.6,10.7-38.3,52.5-54.1,136.4
		c-18.6,98.8,14.8,184.2,34,246.4c19.2,62.2,17.7,98.5,12.2,119.4c-5.6,20.9-17.3,37.2-17.3,37.2s15.4-18,24.9-41.7
		c9.5-23.7,16.2-72.5,3.3-130.3C513.6,1127.6,489.8,1048.1,494.3,956.3z"/>
	
		<radialGradient id="SVGID_00000165220461495227878640000001915559135506075066_" cx="484.3499" cy="1087.6801" r="192.6814" gradientUnits="userSpaceOnUse">
		<stop  offset="0" style="stop-color:#336B2C"/>
		<stop  offset="0.9818" style="stop-color:#0F310B"/>
	</radialGradient>
	
		<path style="clip-path:url(#SVGID_00000093884648376729023400000015014763760535399822_);fill:url(#SVGID_00000165220461495227878640000001915559135506075066_);" d="
		M503.3,1200.8c-19.3-62.2-52.6-147.6-34-246.4c15.8-83.8,45.4-125.6,54.1-136.4c-28.5,33.7-74.7,90.5-77.8,189.7
		c-3.2,102,30.8,172.6,54.5,241.9c23.7,69.3-1.9,107.8-1.9,107.8s11.8-16.4,17.3-37.2C521.1,1299.3,522.6,1263,503.3,1200.8z"/>
	
		<radialGradient id="SVGID_00000030474000914039636720000014433059151980754310_" cx="528.1553" cy="556.0667" r="226.9743" gradientUnits="userSpaceOnUse">
		<stop  offset="0" style="stop-color:#336B2C"/>
		<stop  offset="0.9818" style="stop-color:#0F310B"/>
	</radialGradient>
	
		<path style="clip-path:url(#SVGID_00000093884648376729023400000015014763760535399822_);fill:url(#SVGID_00000030474000914039636720000014433059151980754310_);" d="
		M557.2,537.7c-21-24.4-47.3-27.5-55.8-38.3c-8.5-10.9,1.3-21.1,4.5-24.1c0,0-49.1,33.2-21.7,72.3c27.4,39.1,66.2,54.6,75.3,124.8
		c7.1,54.2,6,94.8-15.1,127.6c0,0,42.2-41.5,45.9-121.5C594,598.4,578.2,562.1,557.2,537.7z"/>
	
		<radialGradient id="SVGID_00000037663811960035035560000009469520535960786109_" cx="600.3198" cy="550.9331" r="214.6682" gradientUnits="userSpaceOnUse">
		<stop  offset="0" style="stop-color:#448630"/>
		<stop  offset="0.9939" style="stop-color:#0C3D11"/>
	</radialGradient>
	
		<path style="clip-path:url(#SVGID_00000093884648376729023400000015014763760535399822_);fill:url(#SVGID_00000037663811960035035560000009469520535960786109_);" d="
		M599.6,528.7C579,505,541,502.2,517.7,498.3c-23.3-3.9-11.8-23.1-11.8-23.1c-3.2,3-13,13.3-4.5,24.1c8.5,10.9,25.4,19.1,46.4,43.5
		c21,24.4,46.3,55.6,42.5,135.6c-3.7,80-45.9,121.5-45.9,121.5s51.2-45.6,64.1-123.2C621.4,599.1,620.1,552.4,599.6,528.7z"/>
	
		<radialGradient id="SVGID_00000176037219429298018380000006723292446161656245_" cx="607.8582" cy="568.457" r="264.6441" gradientUnits="userSpaceOnUse">
		<stop  offset="0" style="stop-color:#858D6D"/>
		<stop  offset="1" style="stop-color:#FFFFFF"/>
	</radialGradient>
	
		<path style="clip-path:url(#SVGID_00000093884648376729023400000015014763760535399822_);fill:url(#SVGID_00000176037219429298018380000006723292446161656245_);" d="
		M532.6,500.8c-0.3,0.2-0.7,0.1-0.9-0.2c-4.6-0.8-9.3-1.5-14-2.3c-23.3-3.9-11.8-23.1-11.8-23.1s-38.2,29.9-9.9,58.2
		c21.2,25.9,84.8-9.4,89.5-16.5C566.6,505.2,548.7,503.6,532.6,500.8z"/>
	
		<radialGradient id="SVGID_00000070819122101826243640000009251549028442569397_" cx="845.0596" cy="607.6974" r="252.7605" gradientTransform="matrix(0.9777 -0.2099 0.2099 0.9777 -94.2944 123.5741)" gradientUnits="userSpaceOnUse">
		<stop  offset="0" style="stop-color:#448630"/>
		<stop  offset="0.9939" style="stop-color:#0C3D11"/>
	</radialGradient>
	
		<path style="clip-path:url(#SVGID_00000093884648376729023400000015014763760535399822_);fill:url(#SVGID_00000070819122101826243640000009251549028442569397_);" d="
		M665.1,579.5c-39.7-24.6-58.2-66.5-58.2-66.5s24.4,68.7,86.3,98.5c62,29.8,136.3-15,163.5-65.9c27.1-50.9,64.2-65.8,64.2-65.8
		c-40.4,12.4-56.5,42.2-103,87C771.4,611.4,704.8,604.1,665.1,579.5z"/>
	
		<radialGradient id="SVGID_00000072962711807361079670000017083313273513255560_" cx="836.076" cy="560.2119" r="215.0843" gradientTransform="matrix(0.9777 -0.2099 0.2099 0.9777 -94.2944 123.5741)" gradientUnits="userSpaceOnUse">
		<stop  offset="0" style="stop-color:#336B2C"/>
		<stop  offset="0.9818" style="stop-color:#0F310B"/>
	</radialGradient>
	
		<path style="clip-path:url(#SVGID_00000093884648376729023400000015014763760535399822_);fill:url(#SVGID_00000072962711807361079670000017083313273513255560_);" d="
		M836.1,533.3c-45.7,50.1-108.3,58.3-159.1,37.7c-50.7-20.6-70.2-58-70.2-58s18.5,41.9,58.2,66.5c39.7,24.6,106.3,32,152.8-12.8
		c46.5-44.8,62.5-74.6,103-87C920.9,479.7,881.8,483.2,836.1,533.3z"/>
	<path style="clip-path:url(#SVGID_00000093884648376729023400000015014763760535399822_);fill:none;" d="M427.6,578.6
		c-6.1-9.2-11.4-12.6-11.4-12.6S421,570.4,427.6,578.6z"/>
	
		<radialGradient id="SVGID_00000025423817871389714410000011570387918073569168_" cx="411.3842" cy="708.3718" r="134.9589" gradientUnits="userSpaceOnUse">
		<stop  offset="0" style="stop-color:#448630"/>
		<stop  offset="0.9939" style="stop-color:#0C3D11"/>
	</radialGradient>
	
		<path style="clip-path:url(#SVGID_00000093884648376729023400000015014763760535399822_);fill:url(#SVGID_00000025423817871389714410000011570387918073569168_);" d="
		M471.3,536.7c4.5,6.8,9.6,18.9,10.2,39.1c0.9,36.4-10.1,76.7-37.3,101.8c-27.2,25.2-74.3,65.1-96,108.8
		c-19.7,39.6-20.2,85.3-20.2,93.6c0-5.9,0.8-31.3,13.9-62.3c15-35.5,33.6-58.6,79.5-97.2c45.9-38.6,69.4-69.4,73.3-114.5
		C497.3,573.9,481,548.7,471.3,536.7z"/>
	
		<radialGradient id="SVGID_00000033352480978509158750000015701770681863963319_" cx="403.1969" cy="705.2492" r="136.2514" gradientUnits="userSpaceOnUse">
		<stop  offset="0" style="stop-color:#336B2C"/>
		<stop  offset="0.9818" style="stop-color:#0F310B"/>
	</radialGradient>
	
		<path style="clip-path:url(#SVGID_00000093884648376729023400000015014763760535399822_);fill:url(#SVGID_00000033352480978509158750000015701770681863963319_);" d="
		M348.1,786.4c21.7-43.7,68.8-83.6,96-108.8c27.2-25.2,38.3-65.4,37.3-101.8c-0.5-20.2-5.7-32.3-10.2-39.1c-4-4.9-6.8-7.5-6.8-7.5
		c10.8,17,13.9,48.6-3.1,90.6c-17,42-84.1,77.5-115.7,140.8c-31.6,63.3-17.7,120.7-17.7,120.7s0-0.4,0-1.3
		C327.9,871.8,328.4,826,348.1,786.4z"/>
	
		<linearGradient id="SVGID_00000023273019912044596320000007411467608811344269_" gradientUnits="userSpaceOnUse" x1="507.5967" y1="504.2719" x2="430.9193" y2="126.2343">
		<stop  offset="0" style="stop-color:#A26B2E"/>
		<stop  offset="0.1" style="stop-color:#B6802E"/>
		<stop  offset="0.25" style="stop-color:#E3AB2C"/>
		<stop  offset="0.39" style="stop-color:#FFF6AF"/>
		<stop  offset="0.45" style="stop-color:#DDA62C"/>
		<stop  offset="0.65" style="stop-color:#B0742A"/>
		<stop  offset="0.75" style="stop-color:#9C5B27"/>
		<stop  offset="0.91" style="stop-color:#F2BA2D"/>
		<stop  offset="1" style="stop-color:#FFF1B5"/>
	</linearGradient>
	
		<path style="clip-path:url(#SVGID_00000093884648376729023400000015014763760535399822_);fill:url(#SVGID_00000023273019912044596320000007411467608811344269_);" d="
		M526.1,331.5c-8.8-2.8-21.1-3.9-34.1-3.3c-1,1.2-2,2.4-2.9,3.7c-2.9,4.2-4,8.8-6,13.4c-2.3,5.3-4.9,10.7-5.4,16.6
		c-0.5,6.1,0,12.2,1.7,18.1c0.1,0.2,0,0.4,0,0.6c0.2,1-1.1,1.8-1.7,0.8c-0.3-0.6-0.6-1.2-0.9-1.9c-0.1-0.1-0.2-0.1-0.2-0.2
		c-0.1-0.1-0.2-0.2-0.2-0.3c-0.4,0.1-0.9,0-1.2-0.6c-0.2-0.8-0.6-1.4-1.2-2c-0.3-0.4-0.3-0.8-0.2-1.2c-0.5-0.5-0.9-1-1.3-1.6
		c-2.2-3.2-4.5-5.4-7.6-7.7c-1.9-1.5-3.8-3-5.4-4.6c-2.6-1.3-5.2-2.9-7.4-4.8c-7.6-1.7-15.6-2.8-22-6.6c-1.9-0.1-3.8-0.3-5.8-0.3
		c-2.2,2.2-4,4.6-5.3,7.1c-12.6,25.2-9.2,58.2-9.2,58.2s23.8,80.3,76.1,91.3c52.4,11,65.5-27.8,75.6-74.8
		C571.7,384.3,555.2,340.7,526.1,331.5z"/>
	
		<radialGradient id="SVGID_00000067947447937173200850000009939707450393881016_" cx="522.2068" cy="346.4803" r="157.5671" gradientUnits="userSpaceOnUse">
		<stop  offset="0" style="stop-color:#A67C52"/>
		<stop  offset="1" style="stop-color:#FFFFFF"/>
	</radialGradient>
	
		<path style="clip-path:url(#SVGID_00000093884648376729023400000015014763760535399822_);fill:url(#SVGID_00000067947447937173200850000009939707450393881016_);" d="
		M512.2,379.8c10.8,7.9,17.7,20.2,21.3,32.9c1.9,6.7,3.2,13.6,4,20.5c1,8.1,0.7,16.7,3.9,24.3c2.1,4.9,5.1,9.4,8.9,13
		c4.6-11.6,8-25,11-39.2c10.2-47-6.3-90.7-35.4-99.9c-8.8-2.8-21.1-3.9-34.1-3.3c-1,1.2-2,2.4-2.9,3.7c-2.9,4.2-4,8.8-6,13.4
		c-2.3,5.3-4.9,10.7-5.4,16.6c-0.5,5.6,0,11.3,1.4,16.7C489.5,373.8,502.4,372.6,512.2,379.8z"/>
	
		<radialGradient id="SVGID_00000041273620990870124270000011851034024743750327_" cx="430.0875" cy="350.3598" r="168.1803" gradientUnits="userSpaceOnUse">
		<stop  offset="0" style="stop-color:#A67C52"/>
		<stop  offset="1" style="stop-color:#FFFFFF"/>
	</radialGradient>
	
		<path style="clip-path:url(#SVGID_00000093884648376729023400000015014763760535399822_);fill:url(#SVGID_00000041273620990870124270000011851034024743750327_);" d="
		M454.4,489.5c1.7-9.1,1-18.9,0.2-27.7c-1.4-13.7-4.2-27.3-4.8-41.1c-0.6-12.5,0.3-25.6,6.4-36.8c1.9-3.5,5.3-7.2,9.4-7.9
		c3.8-0.6,6.6,0.4,9.5,2.1c-0.2-0.7-0.6-1.3-1.1-1.9c-0.3-0.4-0.3-0.8-0.2-1.2c-0.5-0.5-0.9-1-1.3-1.6c-2.2-3.2-4.5-5.4-7.6-7.7
		c-1.9-1.5-3.8-3-5.4-4.6c-2.6-1.3-5.2-2.9-7.4-4.8c-7.6-1.7-15.6-2.8-22-6.6c-1.9-0.1-3.8-0.3-5.8-0.3c-2.2,2.2-4,4.6-5.3,7.1
		c-12.6,25.2-9.2,58.2-9.2,58.2S423.9,462.6,454.4,489.5z"/>
	
		<linearGradient id="SVGID_00000036216359347422799010000014708340934619211678_" gradientUnits="userSpaceOnUse" x1="444.2737" y1="382.6679" x2="1179.1682" y2="564.095">
		<stop  offset="0" style="stop-color:#A26B2E"/>
		<stop  offset="0.1" style="stop-color:#B6802E"/>
		<stop  offset="0.25" style="stop-color:#E3AB2C"/>
		<stop  offset="0.39" style="stop-color:#FFF6AF"/>
		<stop  offset="0.45" style="stop-color:#DDA62C"/>
		<stop  offset="0.65" style="stop-color:#B0742A"/>
		<stop  offset="0.75" style="stop-color:#9C5B27"/>
		<stop  offset="0.91" style="stop-color:#F2BA2D"/>
		<stop  offset="1" style="stop-color:#FFF1B5"/>
	</linearGradient>
	
		<path style="clip-path:url(#SVGID_00000093884648376729023400000015014763760535399822_);fill:url(#SVGID_00000036216359347422799010000014708340934619211678_);" d="
		M749,518c-42.3,11.5-75-12-97.3-51.8c-22.3-39.8-51.4-126.1-88.2-148.9c-24.5-15.2-50.3-7.8-64.8-1.1c-0.2,0.2-0.4,0.4-0.6,0.6
		c-32.4,39.3-18,66.9-18,66.9c-5.3-24.2,3.5-44.5,24.9-42.9c21.4,1.6,44.9,47.7,81.2,120.4c36.4,72.7,102.3,92.6,158.5,69.3
		c56.2-23.3,55.8-61.1,55.8-61.1S791.3,506.5,749,518z"/>
	
		<linearGradient id="SVGID_00000081647161158517871790000016382103691865533829_" gradientUnits="userSpaceOnUse" x1="434.7813" y1="362.4708" x2="960.6902" y2="475.0015">
		<stop  offset="0" style="stop-color:#A26B2E"/>
		<stop  offset="0.1" style="stop-color:#B6802E"/>
		<stop  offset="0.25" style="stop-color:#E3AB2C"/>
		<stop  offset="0.39" style="stop-color:#FFF6AF"/>
		<stop  offset="0.45" style="stop-color:#DDA62C"/>
		<stop  offset="0.65" style="stop-color:#B0742A"/>
		<stop  offset="0.75" style="stop-color:#9C5B27"/>
		<stop  offset="0.91" style="stop-color:#F2BA2D"/>
		<stop  offset="1" style="stop-color:#FFF1B5"/>
	</linearGradient>
	
		<path style="clip-path:url(#SVGID_00000093884648376729023400000015014763760535399822_);fill:url(#SVGID_00000081647161158517871790000016382103691865533829_);" d="
		M744.3,506.6c-42.7-0.3-37.3-60.8-83.6-142.7c-46-81.5-129.2-86.2-162-47.7c14.5-6.6,40.3-14.1,64.8,1.1
		c36.8,22.8,65.9,109.1,88.2,148.9C674,506,706.7,529.6,749,518c42.3-11.5,51.5-48.4,51.5-48.4S786.9,507,744.3,506.6z"/>
	
		<linearGradient id="SVGID_00000030469391244112061410000018416171320631842980_" gradientUnits="userSpaceOnUse" x1="683.2001" y1="332.3181" x2="0.4765" y2="571.9496">
		<stop  offset="0" style="stop-color:#A26B2E"/>
		<stop  offset="0.1" style="stop-color:#B6802E"/>
		<stop  offset="0.25" style="stop-color:#E3AB2C"/>
		<stop  offset="0.39" style="stop-color:#FFF6AF"/>
		<stop  offset="0.45" style="stop-color:#DDA62C"/>
		<stop  offset="0.65" style="stop-color:#B0742A"/>
		<stop  offset="0.75" style="stop-color:#9C5B27"/>
		<stop  offset="0.91" style="stop-color:#F2BA2D"/>
		<stop  offset="1" style="stop-color:#FFF1B5"/>
	</linearGradient>
	
		<path style="clip-path:url(#SVGID_00000093884648376729023400000015014763760535399822_);fill:url(#SVGID_00000030469391244112061410000018416171320631842980_);" d="
		M213.4,521c13.4,27,62.5,46.6,111.7,12.7c49.1-33.9,35.7-106.3,61.9-149.3c26.2-43,64.1-28.3,64.1-28.3l0,0
		c-5.8-2.8-12.5-5-20.3-6.1c-35.6-4.8-82.3,17.5-97,76.1c-14.7,58.7-14.2,93.6-71.9,99.9c-57.7,6.3-57.8-56.7-57.8-56.7
		S200,493.9,213.4,521z"/>
	
		<linearGradient id="SVGID_00000111175948068034433210000003869463241146834594_" gradientUnits="userSpaceOnUse" x1="470.7492" y1="414.5286" x2="-128.6492" y2="738.3415">
		<stop  offset="0" style="stop-color:#A26B2E"/>
		<stop  offset="0.1" style="stop-color:#B6802E"/>
		<stop  offset="0.25" style="stop-color:#E3AB2C"/>
		<stop  offset="0.39" style="stop-color:#FFF6AF"/>
		<stop  offset="0.45" style="stop-color:#DDA62C"/>
		<stop  offset="0.65" style="stop-color:#B0742A"/>
		<stop  offset="0.75" style="stop-color:#9C5B27"/>
		<stop  offset="0.91" style="stop-color:#F2BA2D"/>
		<stop  offset="1" style="stop-color:#FFF1B5"/>
	</linearGradient>
	
		<path style="clip-path:url(#SVGID_00000093884648376729023400000015014763760535399822_);fill:url(#SVGID_00000111175948068034433210000003869463241146834594_);" d="
		M451,356L451,356c0,0-37.8-14.7-64.1,28.3c-26.2,43-12.8,115.4-61.9,149.3c-49.1,33.9-98.3,14.3-111.7-12.7
		c-13.4-27-9.3-51.8-9.3-51.8S185.7,505.5,226,554c40.2,48.5,152.4,18.3,184.7-28.9c32.3-47.2,28.6-110.7,32-137.4
		c3.4-26.7,13.6-30.1,37.3-3.9C480,383.8,471.6,366,451,356z"/>
</g>
</svg>
